Exo-Black.ufo
<glyph name=".notdef" format="2">
  <advance width="659"/>
  <unicode hex="0000"/>
  <outline>
    <contour>
      <point x="50" y="-10" type="line"/>
      <point x="609" y="-10" type="line"/>
      <point x="609" y="549" type="line"/>
      <point x="50" y="549" type="line"/>
    </contour>
    <contour>
      <point x="497" y="179" type="line"/>
      <point x="407" y="269" type="line"/>
      <point x="497" y="359" type="line"/>
      <point x="420" y="436" type="line"/>
      <point x="330" y="346" type="line"/>
      <point x="240" y="436" type="line"/>
      <point x="163" y="359" type="line"/>
      <point x="253" y="269" type="line"/>
      <point x="163" y="179" type="line"/>
      <point x="240" y="102" type="line"/>
      <point x="330" y="192" type="line"/>
      <point x="420" y="102" type="line"/>
    </contour>
    <contour>
      <point x="134" y="74" type="line"/>
      <point x="134" y="465" type="line"/>
      <point x="525" y="465" type="line"/>
      <point x="525" y="74" type="line"/>
    </contour>
  </outline>
</glyph>
<glyph name="exclam" format="2">
  <advance width="277"/>
  <unicode hex="0021"/>
  <note>
GF Latin Plus glyph
</note>
  <outline>
    <contour>
      <point x="64" y="206" type="line"/>
      <point x="208" y="206" type="line"/>
      <point x="235" y="742" type="line"/>
      <point x="41" y="742" type="line"/>
    </contour>
    <component base="period" xOffset="6"/>
  </outline>
</glyph>
<glyph name="numbersign" format="1">
  <advance width="749"/>
  <unicode hex="0023"/>
  <note>
    GF Latin Plus glyph
  </note>
  <outline>
    <contour>
      <point x="310" y="323" type="line"/>
      <point x="326" y="409" type="line"/>
      <point x="420" y="409" type="line"/>
      <point x="404" y="323" type="line"/>
    </contour>
    <contour>
      <point x="11" y="191" type="line"/>
      <point x="153" y="191" type="line"/>
      <point x="116" y="0" type="line"/>
      <point x="248" y="0" type="line"/>
      <point x="285" y="191" type="line"/>
      <point x="374" y="191" type="line"/>
      <point x="337" y="0" type="line"/>
      <point x="469" y="0" type="line"/>
      <point x="506" y="191" type="line"/>
      <point x="686" y="191" type="line"/>
      <point x="704" y="323" type="line"/>
      <point x="536" y="323" type="line"/>
      <point x="552" y="409" type="line"/>
      <point x="720" y="409" type="line"/>
      <point x="739" y="541" type="line"/>
      <point x="572" y="541" type="line"/>
      <point x="608" y="732" type="line"/>
      <point x="476" y="732" type="line"/>
      <point x="440" y="541" type="line"/>
      <point x="352" y="541" type="line"/>
      <point x="389" y="732" type="line"/>
      <point x="257" y="732" type="line"/>
      <point x="220" y="541" type="line"/>
      <point x="66" y="541" type="line"/>
      <point x="45" y="409" type="line"/>
      <point x="194" y="409" type="line"/>
      <point x="178" y="323" type="line"/>
      <point x="31" y="323" type="line"/>
    </contour>
  </outline>
</glyph>
<glyph name="ampersand" format="2">
  <advance width="715"/>
  <unicode hex="0026"/>
  <note>
GF Latin Plus glyph
</note>
  <outline>
    <contour>
      <point x="261" y="171" type="curve" smooth="yes"/>
      <point x="233" y="171"/>
      <point x="215" y="193"/>
      <point x="215" y="218" type="curve" smooth="yes"/>
      <point x="215" y="238"/>
      <point x="220" y="251"/>
      <point x="239" y="270" type="curve" smooth="yes"/>
      <point x="267" y="297" type="line"/>
      <point x="332" y="213" type="line"/>
      <point x="312" y="192" type="line" smooth="yes"/>
      <point x="296" y="176"/>
      <point x="280" y="171"/>
    </contour>
    <contour>
      <point x="226" y="-5" type="curve" smooth="yes"/>
      <point x="296" y="-5"/>
      <point x="345" y="11"/>
      <point x="393" y="51" type="curve" smooth="yes"/>
      <point x="433" y="85" type="line"/>
      <point x="502" y="0" type="line"/>
      <point x="700" y="0" type="line"/>
      <point x="554" y="194" type="line"/>
      <point x="603" y="242" type="line"/>
      <point x="670" y="350" type="line"/>
      <point x="600" y="438" type="line"/>
      <point x="461" y="317" type="line"/>
      <point x="362" y="453" type="line" smooth="yes"/>
      <point x="332" y="494"/>
      <point x="317" y="518"/>
      <point x="317" y="535" type="curve" smooth="yes"/>
      <point x="317" y="555"/>
      <point x="328" y="568"/>
      <point x="359" y="568" type="curve" smooth="yes"/>
      <point x="531" y="568" type="line"/>
      <point x="531" y="710" type="line"/>
      <point x="488" y="725"/>
      <point x="397" y="739"/>
      <point x="321" y="739" type="curve" smooth="yes"/>
      <point x="209.50485436893206" y="739.0"/>
      <point x="123.0" y="695.6092715231788"/>
      <point x="123" y="583" type="curve" smooth="yes"/>
      <point x="123.0" y="547.2937062937062"/>
      <point x="123.52615075136885" y="511.35815879780984"/>
      <point x="165" y="445" type="curve" smooth="yes"/>
      <point x="175" y="429" type="line"/>
      <point x="119" y="381" type="line" smooth="yes"/>
      <point x="64" y="334"/>
      <point x="31" y="270"/>
      <point x="31" y="195" type="curve" smooth="yes"/>
      <point x="31" y="78"/>
      <point x="113" y="-5"/>
    </contour>
  </outline>
</glyph>
<glyph name="quotesingle" format="2">
  <advance width="256"/>
  <unicode hex="0027"/>
  <note>
GF Latin Plus glyph
</note>
  <outline>
    <contour>
      <point x="31" y="692" type="line"/>
      <point x="42" y="491" type="line"/>
      <point x="206" y="491" type="line"/>
      <point x="216" y="692" type="line"/>
      <point x="216" y="759" type="line"/>
      <point x="31" y="759" type="line"/>
    </contour>
  </outline>
</glyph>
<glyph name="parenleft" format="2">
  <advance width="413"/>
  <unicode hex="0028"/>
  <note>
GF Latin Plus glyph
</note>
  <outline>
    <contour>
      <point x="42" y="326" type="curve" smooth="yes"/>
      <point x="42" y="49"/>
      <point x="133" y="-107"/>
      <point x="231" y="-210" type="curve"/>
      <point x="402" y="-210" type="line"/>
      <point x="300" y="-46"/>
      <point x="236" y="99"/>
      <point x="236" y="326" type="curve" smooth="yes"/>
      <point x="236" y="556"/>
      <point x="320" y="729"/>
      <point x="402" y="860" type="curve"/>
      <point x="231" y="860" type="line"/>
      <point x="139" y="757"/>
      <point x="42" y="587"/>
    </contour>
  </outline>
</glyph>
<glyph name="parenright" format="1">
  <advance width="413"/>
  <unicode hex="0029"/>
  <note>
    GF Latin Plus glyph
  </note>
  <outline>
    <contour>
      <point x="11" y="-210" type="curve"/>
      <point x="182" y="-210" type="line"/>
      <point x="274" y="-107"/>
      <point x="371" y="63"/>
      <point x="371" y="324" type="curve" smooth="yes"/>
      <point x="371" y="601"/>
      <point x="280" y="757"/>
      <point x="182" y="860" type="curve"/>
      <point x="11" y="860" type="line"/>
      <point x="113" y="696"/>
      <point x="177" y="551"/>
      <point x="177" y="324" type="curve" smooth="yes"/>
      <point x="177" y="94"/>
      <point x="93" y="-79"/>
    </contour>
  </outline>
</glyph>
<glyph name="comma" format="2">
  <advance width="257"/>
  <unicode hex="002C"/>
  <note>
GF Latin Plus glyph
</note>
  <outline>
    <contour>
      <point x="48" y="39" type="line" smooth="yes"/>
      <point x="48" y="22"/>
      <point x="59" y="14"/>
      <point x="73" y="14" type="curve" smooth="yes"/>
      <point x="84" y="14" type="line"/>
      <point x="84" y="-5" type="line" smooth="yes"/>
      <point x="84" y="-23"/>
      <point x="74" y="-26"/>
      <point x="53" y="-26" type="curve"/>
      <point x="53" y="-88" type="line"/>
      <point x="53" y="-88"/>
      <point x="82" y="-97"/>
      <point x="115" y="-97" type="curve" smooth="yes"/>
      <point x="158" y="-97"/>
      <point x="208" y="-82"/>
      <point x="208" y="-11" type="curve" smooth="yes"/>
      <point x="208" y="136" type="line" smooth="yes"/>
      <point x="208" y="151"/>
      <point x="202" y="163"/>
      <point x="184" y="163" type="curve" smooth="yes"/>
      <point x="73" y="163" type="line" smooth="yes"/>
      <point x="57" y="163"/>
      <point x="48" y="154"/>
      <point x="48" y="136" type="curve" smooth="yes"/>
    </contour>
  </outline>
</glyph>
<glyph name="hyphen" format="2">
  <advance width="354"/>
  <unicode hex="002D"/>
  <note>
GF Latin Plus glyph
</note>
  <outline>
    <contour>
      <point x="20" y="213" type="line"/>
      <point x="334" y="213" type="line"/>
      <point x="334" y="367" type="line"/>
      <point x="20" y="367" type="line"/>
    </contour>
  </outline>
</glyph>
<glyph name="period" format="2">
  <advance width="257"/>
  <unicode hex="002E"/>
  <note>
GF Latin Plus glyph
</note>
  <outline>
    <contour>
      <point x="48" y="21" type="line" smooth="yes"/>
      <point x="48" y="7"/>
      <point x="58" y="-2"/>
      <point x="72" y="-2" type="curve" smooth="yes"/>
      <point x="185" y="-2" type="line" smooth="yes"/>
      <point x="199" y="-2"/>
      <point x="210" y="3"/>
      <point x="210" y="21" type="curve" smooth="yes"/>
      <point x="210" y="138" type="line" smooth="yes"/>
      <point x="210" y="154"/>
      <point x="203" y="163"/>
      <point x="185" y="163" type="curve" smooth="yes"/>
      <point x="72" y="163" type="line" smooth="yes"/>
      <point x="56" y="163"/>
      <point x="48" y="153"/>
      <point x="48" y="138" type="curve" smooth="yes"/>
    </contour>
  </outline>
</glyph>
<glyph name="slash" format="2">
  <advance width="502"/>
  <unicode hex="002F"/>
  <note>
GF Latin Plus glyph
</note>
  <outline>
    <contour>
      <point x="11" y="-72" type="line"/>
      <point x="210" y="-72" type="line"/>
      <point x="491" y="770" type="line"/>
      <point x="292" y="770" type="line"/>
    </contour>
  </outline>
</glyph>
<glyph name="zero" format="1">
  <advance width="641.0"/>
  <unicode hex="0030"/>
  <note>
    GF Latin Plus glyph
  </note>
  <outline>
    <contour>
      <point x="234" y="227" type="curve" smooth="yes"/>
      <point x="234" y="517" type="line" smooth="yes"/>
      <point x="234" y="557"/>
      <point x="249" y="575"/>
      <point x="284" y="575" type="curve" smooth="yes"/>
      <point x="359" y="575" type="line" smooth="yes"/>
      <point x="386" y="575"/>
      <point x="407" y="564"/>
      <point x="407" y="517" type="curve" smooth="yes"/>
      <point x="407" y="226" type="line" smooth="yes"/>
      <point x="407" y="184"/>
      <point x="387" y="168"/>
      <point x="351" y="168" type="curve" smooth="yes"/>
      <point x="291" y="168" type="line" smooth="yes"/>
      <point x="252" y="168"/>
      <point x="234" y="184"/>
    </contour>
    <contour>
      <point x="40" y="196" type="line" smooth="yes"/>
      <point x="40" y="69"/>
      <point x="106" y="-6"/>
      <point x="243" y="-6" type="curve" smooth="yes"/>
      <point x="405" y="-6" type="line" smooth="yes"/>
      <point x="531" y="-6"/>
      <point x="601" y="71"/>
      <point x="601" y="196" type="curve" smooth="yes"/>
      <point x="601" y="537" type="line" smooth="yes"/>
      <point x="601" y="674"/>
      <point x="532" y="749"/>
      <point x="406" y="749" type="curve" smooth="yes"/>
      <point x="244" y="749" type="line" smooth="yes"/>
      <point x="113" y="749"/>
      <point x="40" y="674"/>
      <point x="40" y="537" type="curve" smooth="yes"/>
    </contour>
  </outline>
</glyph>
<glyph name="two" format="2">
  <advance width="582"/>
  <unicode hex="0032"/>
  <note>
GF Latin Plus glyph
</note>
  <outline>
    <contour>
      <point x="52" y="565" type="line"/>
      <point x="265" y="565" type="line" smooth="yes"/>
      <point x="316" y="565"/>
      <point x="340" y="547"/>
      <point x="340" y="505" type="curve" smooth="yes"/>
      <point x="340" y="467"/>
      <point x="314" y="433"/>
      <point x="271" y="390" type="curve" smooth="yes"/>
      <point x="40" y="154" type="line"/>
      <point x="40" y="0" type="line"/>
      <point x="554" y="0" type="line"/>
      <point x="554" y="174" type="line"/>
      <point x="296" y="174" type="line"/>
      <point x="424" y="305" type="line" smooth="yes"/>
      <point x="493" y="375"/>
      <point x="534.0" y="441.0"/>
      <point x="534" y="539" type="curve" smooth="yes"/>
      <point x="534" y="675"/>
      <point x="478" y="749"/>
      <point x="302" y="749" type="curve" smooth="yes"/>
      <point x="195" y="749"/>
      <point x="117" y="733"/>
      <point x="52" y="719" type="curve"/>
    </contour>
  </outline>
</glyph>
<glyph name="three" format="2">
  <advance width="575"/>
  <unicode hex="0033"/>
  <note>
GF Latin Plus glyph
</note>
  <outline>
    <contour>
      <point x="44" y="565" type="line"/>
      <point x="248" y="565" type="line" smooth="yes"/>
      <point x="320" y="565"/>
      <point x="342" y="551"/>
      <point x="342" y="512" type="curve" smooth="yes"/>
      <point x="342" y="503" type="line" smooth="yes"/>
      <point x="342" y="472"/>
      <point x="316.94746676686765" y="462.4462848191452"/>
      <point x="264" y="459" type="curve" smooth="yes"/>
      <point x="95" y="448" type="line"/>
      <point x="95" y="298" type="line"/>
      <point x="273" y="290" type="line" smooth="yes"/>
      <point x="322" y="288"/>
      <point x="350" y="273"/>
      <point x="350" y="238" type="curve" smooth="yes"/>
      <point x="350" y="219" type="line" smooth="yes"/>
      <point x="350" y="187.76923076923077"/>
      <point x="330" y="177"/>
      <point x="252" y="177" type="curve" smooth="yes"/>
      <point x="34" y="177" type="line"/>
      <point x="34" y="21" type="line"/>
      <point x="119" y="4"/>
      <point x="221" y="-6"/>
      <point x="328" y="-6" type="curve" smooth="yes"/>
      <point x="462" y="-6"/>
      <point x="544" y="60"/>
      <point x="544" y="181" type="curve" smooth="yes"/>
      <point x="544" y="210" type="line" smooth="yes"/>
      <point x="544" y="290"/>
      <point x="513" y="353"/>
      <point x="450" y="373" type="curve"/>
      <point x="511" y="395"/>
      <point x="534" y="442"/>
      <point x="534" y="510" type="curve" smooth="yes"/>
      <point x="534" y="560" type="line" smooth="yes"/>
      <point x="534" y="688"/>
      <point x="455" y="747"/>
      <point x="327" y="749" type="curve" smooth="yes"/>
      <point x="228" y="751"/>
      <point x="130" y="736"/>
      <point x="44" y="721" type="curve"/>
    </contour>
  </outline>
</glyph>
<glyph name="four" format="2">
  <advance width="635"/>
  <unicode hex="0034"/>
  <note>
GF Latin Plus glyph
</note>
  <outline>
    <contour>
      <point x="21" y="224" type="line"/>
      <point x="55" y="137" type="line"/>
      <point x="364" y="137" type="line"/>
      <point x="364" y="0" type="line"/>
      <point x="558" y="0" type="line"/>
      <point x="558" y="137" type="line"/>
      <point x="618" y="167" type="line"/>
      <point x="618" y="301" type="line"/>
      <point x="558" y="301" type="line"/>
      <point x="558" y="507" type="line"/>
      <point x="401" y="507" type="line"/>
      <point x="364" y="411" type="line"/>
      <point x="364" y="301" type="line"/>
      <point x="252" y="301" type="line"/>
      <point x="434" y="743" type="line"/>
      <point x="236" y="743" type="line"/>
    </contour>
  </outline>
</glyph>
<glyph name="five" format="2">
  <advance width="592"/>
  <unicode hex="0035"/>
  <note>
GF Latin Plus glyph
</note>
  <outline>
    <contour>
      <point x="43" y="14" type="line"/>
      <point x="128" y="5"/>
      <point x="223" y="-6"/>
      <point x="298" y="-6" type="curve" smooth="yes"/>
      <point x="475" y="-6"/>
      <point x="560" y="49"/>
      <point x="560" y="186" type="curve" smooth="yes"/>
      <point x="560" y="295" type="line" smooth="yes"/>
      <point x="560" y="396"/>
      <point x="508.0" y="476"/>
      <point x="392" y="476" type="curve" smooth="yes"/>
      <point x="316" y="476" type="line" smooth="yes"/>
      <point x="283.7536231884058" y="476"/>
      <point x="249.72205210611415" y="472.7425647097683"/>
      <point x="227" y="456" type="curve"/>
      <point x="232" y="569" type="line"/>
      <point x="529" y="569" type="line"/>
      <point x="529" y="743" type="line"/>
      <point x="66" y="743" type="line"/>
      <point x="45" y="277" type="line"/>
      <point x="229" y="277" type="line"/>
      <point x="232" y="300"/>
      <point x="243.5581395348837" y="312"/>
      <point x="276" y="312" type="curve" smooth="yes"/>
      <point x="320" y="312" type="line" smooth="yes"/>
      <point x="356.4166666666667" y="312"/>
      <point x="366" y="292.0"/>
      <point x="366" y="259" type="curve" smooth="yes"/>
      <point x="366" y="228" type="line" smooth="yes"/>
      <point x="366" y="207.31034482758622"/>
      <point x="369.0" y="168"/>
      <point x="307" y="168" type="curve" smooth="yes"/>
      <point x="43" y="168" type="line"/>
    </contour>
  </outline>
</glyph>
<glyph name="seven" format="2">
  <advance width="561"/>
  <unicode hex="0037"/>
  <note>
GF Latin Plus glyph
</note>
  <outline>
    <contour>
      <point x="17" y="549" type="line"/>
      <point x="294" y="549" type="line"/>
      <point x="100" y="0" type="line"/>
      <point x="316" y="0" type="line"/>
      <point x="545" y="665" type="line"/>
      <point x="498" y="743" type="line"/>
      <point x="17" y="743" type="line"/>
    </contour>
  </outline>
</glyph>
<glyph name="eight" format="2">
  <advance width="618"/>
  <unicode hex="0038"/>
  <note>
GF Latin Plus glyph
</note>
  <outline>
    <contour>
      <point x="246" y="515" type="curve" smooth="yes"/>
      <point x="246" y="546" type="line" smooth="yes"/>
      <point x="246" y="583"/>
      <point x="259" y="585"/>
      <point x="283" y="585" type="curve" smooth="yes"/>
      <point x="335" y="585" type="line" smooth="yes"/>
      <point x="354" y="585"/>
      <point x="372" y="584"/>
      <point x="372" y="546" type="curve" smooth="yes"/>
      <point x="372" y="515" type="line" smooth="yes"/>
      <point x="372" y="478"/>
      <point x="370" y="462"/>
      <point x="335" y="462" type="curve" smooth="yes"/>
      <point x="283" y="462" type="line" smooth="yes"/>
      <point x="256" y="462"/>
      <point x="246" y="467"/>
    </contour>
    <contour>
      <point x="236" y="204" type="curve" smooth="yes"/>
      <point x="236" y="251" type="line" smooth="yes"/>
      <point x="236" y="278"/>
      <point x="251" y="298"/>
      <point x="283" y="298" type="curve" smooth="yes"/>
      <point x="337" y="298" type="line" smooth="yes"/>
      <point x="366" y="298"/>
      <point x="382" y="277"/>
      <point x="382" y="251" type="curve" smooth="yes"/>
      <point x="382" y="204" type="line" smooth="yes"/>
      <point x="382" y="176"/>
      <point x="379" y="158"/>
      <point x="335" y="158" type="curve" smooth="yes"/>
      <point x="283" y="158" type="line" smooth="yes"/>
      <point x="248" y="158"/>
      <point x="236" y="169"/>
    </contour>
    <contour>
      <point x="42" y="165" type="line" smooth="yes"/>
      <point x="42" y="19"/>
      <point x="146.05102040816325" y="-6"/>
      <point x="248" y="-6" type="curve" smooth="yes"/>
      <point x="383" y="-6" type="line" smooth="yes"/>
      <point x="485" y="-6"/>
      <point x="576" y="19"/>
      <point x="576" y="165" type="curve" smooth="yes"/>
      <point x="576" y="264" type="line" smooth="yes"/>
      <point x="576" y="301"/>
      <point x="570" y="377"/>
      <point x="501" y="394" type="curve"/>
      <point x="553.5215648221671" y="401.37144769433917"/>
      <point x="561" y="483"/>
      <point x="561" y="510" type="curve" smooth="yes"/>
      <point x="561" y="594" type="line" smooth="yes"/>
      <point x="561" y="708"/>
      <point x="475" y="749"/>
      <point x="380" y="749" type="curve" smooth="yes"/>
      <point x="238" y="749" type="line" smooth="yes"/>
      <point x="143" y="749"/>
      <point x="57" y="708"/>
      <point x="57" y="594" type="curve" smooth="yes"/>
      <point x="57" y="510" type="line" smooth="yes"/>
      <point x="57" y="457"/>
      <point x="55.54157090829882" y="411.6244090633514"/>
      <point x="116" y="380" type="curve"/>
      <point x="60" y="367"/>
      <point x="42" y="311"/>
      <point x="42" y="264" type="curve" smooth="yes"/>
    </contour>
  </outline>
</glyph>
<glyph name="nine" format="1">
  <advance width="597"/>
  <unicode hex="0039"/>
  <note>
    GF Latin Plus glyph
  </note>
  <outline>
    <contour>
      <point x="368" y="441" type="curve"/>
      <point x="282" y="441" type="line" smooth="yes"/>
      <point x="239" y="441"/>
      <point x="228" y="453"/>
      <point x="228" y="496" type="curve" smooth="yes"/>
      <point x="228" y="524" type="line" smooth="yes"/>
      <point x="228" y="557"/>
      <point x="238" y="575"/>
      <point x="271" y="575" type="curve" smooth="yes"/>
      <point x="288" y="575" type="line" smooth="yes"/>
      <point x="348" y="575"/>
      <point x="368" y="547"/>
    </contour>
    <contour>
      <point x="562" y="388" type="curve" smooth="yes"/>
      <point x="562" y="674"/>
      <point x="485" y="749"/>
      <point x="328" y="749" type="curve" smooth="yes"/>
      <point x="225" y="749" type="line" smooth="yes"/>
      <point x="109" y="749"/>
      <point x="34" y="695"/>
      <point x="34" y="565" type="curve" smooth="yes"/>
      <point x="34" y="457" type="line" smooth="yes"/>
      <point x="34" y="357"/>
      <point x="69" y="277"/>
      <point x="225" y="277" type="curve" smooth="yes"/>
      <point x="299" y="277"/>
      <point x="331" y="281"/>
      <point x="368" y="298" type="curve"/>
      <point x="368" y="215"/>
      <point x="338" y="168"/>
      <point x="247" y="168" type="curve" smooth="yes"/>
      <point x="78" y="168" type="line"/>
      <point x="78" y="14" type="line"/>
      <point x="132" y="0"/>
      <point x="199" y="-6"/>
      <point x="270" y="-6" type="curve" smooth="yes"/>
      <point x="454" y="-6"/>
      <point x="562" y="81"/>
    </contour>
  </outline>
</glyph>
<glyph name="question" format="2">
  <advance width="528"/>
  <unicode hex="003F"/>
  <note>
GF Latin Plus glyph
</note>
  <outline>
    <contour>
      <point x="41" y="535" type="line"/>
      <point x="92" y="552"/>
      <point x="141" y="565"/>
      <point x="193" y="565" type="curve" smooth="yes"/>
      <point x="253" y="565"/>
      <point x="289" y="547"/>
      <point x="289" y="502" type="curve" smooth="yes"/>
      <point x="289" y="487" type="line" smooth="yes"/>
      <point x="289" y="442"/>
      <point x="258" y="430"/>
      <point x="216" y="430" type="curve" smooth="yes"/>
      <point x="134" y="430" type="line"/>
      <point x="134" y="206" type="line"/>
      <point x="278" y="206" type="line"/>
      <point x="278" y="286" type="line"/>
      <point x="415" y="286"/>
      <point x="483" y="355"/>
      <point x="483" y="483" type="curve" smooth="yes"/>
      <point x="483" y="534" type="line" smooth="yes"/>
      <point x="483" y="652"/>
      <point x="399" y="739"/>
      <point x="253" y="739" type="curve" smooth="yes"/>
      <point x="158" y="739"/>
      <point x="88" y="710"/>
      <point x="41" y="679" type="curve"/>
    </contour>
    <component base="period" xOffset="77"/>
  </outline>
</glyph>
<glyph name="at" format="2">
  <advance width="888"/>
  <unicode hex="0040"/>
  <note>
GF Latin Plus glyph
</note>
  <outline>
    <contour>
      <point x="389" y="185" type="curve" smooth="yes"/>
      <point x="389" y="197" type="line" smooth="yes"/>
      <point x="389" y="221"/>
      <point x="398" y="224"/>
      <point x="426" y="226" type="curve" smooth="yes"/>
      <point x="497" y="232" type="line"/>
      <point x="497" y="189" type="line"/>
      <point x="483" y="162"/>
      <point x="453" y="155"/>
      <point x="424" y="155" type="curve" smooth="yes"/>
      <point x="397" y="155"/>
      <point x="389" y="164"/>
    </contour>
    <contour>
      <point x="37" y="40" type="line" smooth="yes"/>
      <point x="37" y="-141"/>
      <point x="153" y="-198"/>
      <point x="275" y="-198" type="curve" smooth="yes"/>
      <point x="604" y="-198" type="line" smooth="yes"/>
      <point x="751" y="-198"/>
      <point x="841" y="-128"/>
      <point x="841" y="60" type="curve" smooth="yes"/>
      <point x="841" y="472" type="line" smooth="yes"/>
      <point x="841" y="676"/>
      <point x="709" y="735"/>
      <point x="594" y="735" type="curve" smooth="yes"/>
      <point x="508" y="735" type="line" smooth="yes"/>
      <point x="382" y="735"/>
      <point x="238" y="718"/>
      <point x="190" y="708" type="curve"/>
      <point x="190" y="591" type="line"/>
      <point x="594" y="591" type="line" smooth="yes"/>
      <point x="655" y="591"/>
      <point x="697" y="549"/>
      <point x="697" y="472" type="curve" smooth="yes"/>
      <point x="697" y="60" type="line" smooth="yes"/>
      <point x="697" y="-8"/>
      <point x="676" y="-53"/>
      <point x="594" y="-53" type="curve" smooth="yes"/>
      <point x="275" y="-53" type="line" smooth="yes"/>
      <point x="235" y="-53"/>
      <point x="181" y="-30"/>
      <point x="181" y="60" type="curve" smooth="yes"/>
      <point x="181" y="298" type="line" smooth="yes"/>
      <point x="181" y="378"/>
      <point x="227" y="388"/>
      <point x="275" y="388" type="curve" smooth="yes"/>
      <point x="453" y="388" type="line" smooth="yes"/>
      <point x="484" y="388"/>
      <point x="497" y="383"/>
      <point x="497" y="350" type="curve"/>
      <point x="497" y="334" type="line"/>
      <point x="394" y="334" type="line" smooth="yes"/>
      <point x="294" y="334"/>
      <point x="235" y="289"/>
      <point x="235" y="191" type="curve" smooth="yes"/>
      <point x="235" y="158" type="line" smooth="yes"/>
      <point x="235" y="90"/>
      <point x="269" y="11"/>
      <point x="363" y="11" type="curve" smooth="yes"/>
      <point x="454" y="11"/>
      <point x="497" y="74"/>
      <point x="499" y="74" type="curve"/>
      <point x="523" y="20" type="line"/>
      <point x="641" y="20" type="line"/>
      <point x="641" y="362" type="line" smooth="yes"/>
      <point x="641" y="520"/>
      <point x="544" y="532"/>
      <point x="448" y="532" type="curve" smooth="yes"/>
      <point x="275" y="532" type="line" smooth="yes"/>
      <point x="99" y="532"/>
      <point x="37" y="434"/>
      <point x="37" y="308" type="curve" smooth="yes"/>
    </contour>
  </outline>
</glyph>
<glyph name="A" format="2">
  <advance width="692"/>
  <unicode hex="0041"/>
  <note>
GF Latin Plus glyph
</note>
  <anchor x="344.0" y="810.0" name="top"/>
  <anchor x="344.0" y="-150.0" name="bottom"/>
  <anchor x="677.0" y="0.0" name="ogonek"/>
  <outline>
    <contour>
      <point x="278" y="292" type="line"/>
      <point x="344" y="578" type="line"/>
      <point x="411" y="292" type="line"/>
    </contour>
    <contour>
      <point x="5" y="0" type="line"/>
      <point x="204" y="0" type="line"/>
      <point x="233" y="118" type="line"/>
      <point x="456" y="118" type="line"/>
      <point x="486" y="0" type="line"/>
      <point x="687" y="0" type="line"/>
      <point x="467" y="743" type="line"/>
      <point x="225" y="743" type="line"/>
    </contour>
  </outline>
</glyph>
<glyph name="B" format="2">
  <advance width="643"/>
  <unicode hex="0042"/>
  <note>
GF Latin Plus glyph
</note>
  <anchor x="294" y="810" name="top"/>
  <anchor x="293" y="-150" name="bottom"/>
  <outline>
    <contour>
      <point x="249" y="451" type="line"/>
      <point x="249" y="569" type="line"/>
      <point x="361" y="569" type="line" smooth="yes"/>
      <point x="382.0" y="569"/>
      <point x="404.0" y="555.0545454545454"/>
      <point x="404" y="510" type="curve" smooth="yes"/>
      <point x="404.0" y="476.74545454545455"/>
      <point x="390.0" y="451"/>
      <point x="361" y="451" type="curve" smooth="yes"/>
    </contour>
    <contour>
      <point x="249" y="174" type="line"/>
      <point x="249" y="304" type="line"/>
      <point x="372" y="304" type="line" smooth="yes"/>
      <point x="407.0" y="304"/>
      <point x="427.0" y="279.4918032786885"/>
      <point x="427" y="239" type="curve" smooth="yes"/>
      <point x="427.0" y="198.50819672131146"/>
      <point x="407.0" y="174"/>
      <point x="372" y="174" type="curve" smooth="yes"/>
    </contour>
    <contour>
      <point x="55" y="0" type="line"/>
      <point x="378" y="0" type="line" smooth="yes"/>
      <point x="532.0" y="0"/>
      <point x="611" y="57"/>
      <point x="611" y="204" type="curve" smooth="yes"/>
      <point x="611" y="309"/>
      <point x="556.4286972199795" y="368.6637052996973"/>
      <point x="486" y="386" type="curve"/>
      <point x="554.1515915239844" y="402.7585880796683"/>
      <point x="588" y="459"/>
      <point x="588" y="545" type="curve" smooth="yes"/>
      <point x="588" y="668"/>
      <point x="522.7098214285714" y="743"/>
      <point x="363" y="743" type="curve" smooth="yes"/>
      <point x="55" y="743" type="line"/>
    </contour>
  </outline>
</glyph>
<glyph name="C" format="2">
  <advance width="589"/>
  <unicode hex="0043"/>
  <note>
GF Latin Plus glyph
</note>
  <anchor x="310" y="810" name="top"/>
  <anchor x="340" y="-150" name="bottom"/>
  <outline>
    <contour>
      <point x="36" y="374" type="curve" smooth="yes"/>
      <point x="36.0" y="53.842519685039406"/>
      <point x="142.0" y="-6.0"/>
      <point x="309" y="-6" type="curve" smooth="yes"/>
      <point x="432" y="-6"/>
      <point x="503" y="6"/>
      <point x="553" y="26" type="curve"/>
      <point x="553" y="177" type="line"/>
      <point x="515" y="172"/>
      <point x="455" y="168"/>
      <point x="354" y="168" type="curve" smooth="yes"/>
      <point x="249" y="168"/>
      <point x="230" y="211"/>
      <point x="230" y="372" type="curve" smooth="yes"/>
      <point x="230.0" y="551.0"/>
      <point x="260.7563025210084" y="576.0"/>
      <point x="352" y="576" type="curve" smooth="yes"/>
      <point x="441.6617647058824" y="576.0"/>
      <point x="514.5502053819321" y="566.8871373575524"/>
      <point x="553" y="559" type="curve"/>
      <point x="553" y="710" type="line"/>
      <point x="513" y="727"/>
      <point x="432" y="750"/>
      <point x="309" y="750" type="curve" smooth="yes"/>
      <point x="148.0" y="750.0"/>
      <point x="36.0" y="683.824"/>
    </contour>
  </outline>
</glyph>
<glyph name="D" format="2">
  <advance width="688"/>
  <unicode hex="0044"/>
  <note>
GF Latin Plus glyph
</note>
  <anchor x="334" y="810" name="top"/>
  <anchor x="290" y="-150" name="bottom"/>
  <outline>
    <contour>
      <point x="249" y="174" type="line"/>
      <point x="249" y="569" type="line"/>
      <point x="363" y="569" type="line" smooth="yes"/>
      <point x="422.0" y="569"/>
      <point x="458.0" y="546.6615384615384"/>
      <point x="458" y="371" type="curve" smooth="yes"/>
      <point x="458.0" y="231.58461538461538"/>
      <point x="436.0" y="174"/>
      <point x="363" y="174" type="curve" smooth="yes"/>
    </contour>
    <contour>
      <point x="55" y="0" type="line"/>
      <point x="383" y="0" type="line" smooth="yes"/>
      <point x="564.0" y="0"/>
      <point x="652.0" y="109.59078590785907"/>
      <point x="652" y="371" type="curve" smooth="yes"/>
      <point x="652.0" y="579.6829268292684"/>
      <point x="598.0" y="743"/>
      <point x="383" y="743" type="curve" smooth="yes"/>
      <point x="55" y="743" type="line"/>
    </contour>
  </outline>
</glyph>
<glyph name="E" format="2">
  <advance width="604"/>
  <unicode hex="0045"/>
  <note>
GF Latin Plus glyph
</note>
  <anchor x="314" y="810" name="top"/>
  <anchor x="341" y="-150" name="bottom"/>
  <anchor x="558" y="12" name="ogonek"/>
  <outline>
    <contour>
      <point x="55" y="171" type="line" smooth="yes"/>
      <point x="55" y="6"/>
      <point x="186.0" y="-6.0"/>
      <point x="251" y="-6" type="curve" smooth="yes"/>
      <point x="351" y="-6"/>
      <point x="481" y="0"/>
      <point x="568" y="12" type="curve"/>
      <point x="568" y="176" type="line"/>
      <point x="292" y="176" type="line" smooth="yes"/>
      <point x="267" y="176"/>
      <point x="249" y="192"/>
      <point x="249" y="228" type="curve" smooth="yes"/>
      <point x="249" y="284" type="line"/>
      <point x="518" y="294" type="line"/>
      <point x="518" y="448" type="line"/>
      <point x="249" y="458" type="line"/>
      <point x="249" y="520" type="line" smooth="yes"/>
      <point x="249" y="549"/>
      <point x="267" y="564"/>
      <point x="300" y="564" type="curve" smooth="yes"/>
      <point x="568" y="564" type="line"/>
      <point x="568" y="728" type="line"/>
      <point x="499" y="735"/>
      <point x="408" y="743"/>
      <point x="240" y="743" type="curve" smooth="yes"/>
      <point x="156.0" y="743.0"/>
      <point x="55" y="703.8735632183908"/>
      <point x="55" y="559" type="curve" smooth="yes"/>
    </contour>
  </outline>
</glyph>
<glyph name="F" format="2">
  <advance width="593"/>
  <unicode hex="0046"/>
  <note>
GF Latin Plus glyph
</note>
  <anchor x="314" y="810" name="top"/>
  <outline>
    <contour>
      <point x="55" y="0" type="line"/>
      <point x="249" y="0" type="line"/>
      <point x="249" y="264" type="line"/>
      <point x="518" y="274" type="line"/>
      <point x="518" y="428" type="line"/>
      <point x="249" y="438" type="line"/>
      <point x="249" y="522" type="line" smooth="yes"/>
      <point x="249" y="542"/>
      <point x="262.42857142857144" y="564"/>
      <point x="296" y="564" type="curve" smooth="yes"/>
      <point x="568" y="564" type="line"/>
      <point x="568" y="727" type="line"/>
      <point x="451.0" y="743.0"/>
      <point x="301" y="743"/>
      <point x="240" y="743" type="curve" smooth="yes"/>
      <point x="156.0" y="743.0"/>
      <point x="55" y="703.8735632183908"/>
      <point x="55" y="559" type="curve" smooth="yes"/>
    </contour>
  </outline>
</glyph>
<glyph name="G" format="2">
  <advance width="675"/>
  <unicode hex="0047"/>
  <note>
GF Latin Plus glyph
</note>
  <anchor x="324" y="810" name="top"/>
  <anchor x="360" y="-150" name="bottom"/>
  <outline>
    <contour>
      <point x="36" y="370" type="curve" smooth="yes"/>
      <point x="36" y="164"/>
      <point x="76" y="-5"/>
      <point x="259" y="-5" type="curve" smooth="yes"/>
      <point x="343.39622641509436" y="-5.0"/>
      <point x="416" y="27"/>
      <point x="448" y="49" type="curve"/>
      <point x="474" y="0" type="line"/>
      <point x="620" y="0" type="line"/>
      <point x="620" y="441" type="line"/>
      <point x="589" y="442"/>
      <point x="553.8064516129032" y="443.0"/>
      <point x="506" y="443" type="curve" smooth="yes"/>
      <point x="451.90909090909093" y="443.0"/>
      <point x="374" y="439"/>
      <point x="331" y="433" type="curve"/>
      <point x="331" y="279" type="line"/>
      <point x="434" y="279" type="line"/>
      <point x="434" y="183" type="line"/>
      <point x="414.5962162956989" y="178.68804806571086"/>
      <point x="373.6078431372549" y="173.0"/>
      <point x="324" y="173" type="curve" smooth="yes"/>
      <point x="256" y="173"/>
      <point x="230" y="205"/>
      <point x="230" y="370" type="curve" smooth="yes"/>
      <point x="230" y="532"/>
      <point x="246" y="576"/>
      <point x="362" y="576" type="curve" smooth="yes"/>
      <point x="456" y="576"/>
      <point x="538.0" y="569.0"/>
      <point x="583" y="562" type="curve"/>
      <point x="583" y="713" type="line"/>
      <point x="502" y="735"/>
      <point x="443" y="750"/>
      <point x="325" y="750" type="curve" smooth="yes"/>
      <point x="82" y="750"/>
      <point x="36.0" y="599.0"/>
    </contour>
  </outline>
</glyph>
<glyph name="H" format="2">
  <advance width="718"/>
  <unicode hex="0048"/>
  <note>
GF Latin Plus glyph
</note>
  <anchor x="359" y="810" name="top"/>
  <anchor x="359" y="-150" name="bottom"/>
  <outline>
    <contour>
      <point x="55" y="0" type="line"/>
      <point x="249" y="0" type="line"/>
      <point x="249" y="283" type="line"/>
      <point x="469" y="283" type="line"/>
      <point x="469" y="0" type="line"/>
      <point x="663" y="0" type="line"/>
      <point x="663" y="743" type="line"/>
      <point x="469" y="743" type="line"/>
      <point x="469" y="457" type="line"/>
      <point x="249" y="457" type="line"/>
      <point x="249" y="743" type="line"/>
      <point x="55" y="743" type="line"/>
    </contour>
  </outline>
</glyph>
<glyph name="I" format="2">
  <advance width="304"/>
  <unicode hex="0049"/>
  <note>
GF Latin Plus glyph
</note>
  <anchor x="152" y="810" name="top"/>
  <anchor x="152" y="-150" name="bottom"/>
  <anchor x="239" y="0" name="ogonek"/>
  <outline>
    <contour>
      <point x="55" y="0" type="line"/>
      <point x="249" y="0" type="line"/>
      <point x="249" y="743" type="line"/>
      <point x="55" y="743" type="line"/>
    </contour>
  </outline>
</glyph>
<glyph name="J" format="2">
  <advance width="417"/>
  <unicode hex="004A"/>
  <note>
GF Latin Plus glyph
</note>
  <anchor x="265" y="810" name="top"/>
  <outline>
    <contour>
      <point x="26" y="12" type="line"/>
      <point x="57" y="3"/>
      <point x="105" y="-6"/>
      <point x="153" y="-6" type="curve" smooth="yes"/>
      <point x="305" y="-6"/>
      <point x="362" y="67"/>
      <point x="362" y="195" type="curve" smooth="yes"/>
      <point x="362" y="743" type="line"/>
      <point x="168" y="743" type="line"/>
      <point x="168" y="225" type="line" smooth="yes"/>
      <point x="168" y="189.0"/>
      <point x="151" y="168"/>
      <point x="107" y="168" type="curve" smooth="yes"/>
      <point x="83" y="168"/>
      <point x="51" y="168"/>
      <point x="26" y="168" type="curve"/>
    </contour>
  </outline>
</glyph>
<glyph name="K" format="2">
  <advance width="672"/>
  <unicode hex="004B"/>
  <note>
GF Latin Plus glyph
</note>
  <anchor x="340" y="810" name="top"/>
  <anchor x="340" y="-150" name="bottom"/>
  <outline>
    <contour>
      <point x="55" y="0" type="line"/>
      <point x="249" y="0" type="line"/>
      <point x="249" y="280" type="line"/>
      <point x="326" y="280" type="line"/>
      <point x="454" y="0" type="line"/>
      <point x="660" y="0" type="line"/>
      <point x="480" y="369" type="line"/>
      <point x="651" y="743" type="line"/>
      <point x="445" y="743" type="line"/>
      <point x="326" y="454" type="line"/>
      <point x="249" y="454" type="line"/>
      <point x="249" y="743" type="line"/>
      <point x="55" y="743" type="line"/>
    </contour>
  </outline>
</glyph>
<glyph name="L" format="2">
  <advance width="537"/>
  <unicode hex="004C"/>
  <note>
GF Latin Plus glyph
</note>
  <anchor x="152.0" y="810.0" name="top"/>
  <anchor x="300.0" y="-150.0" name="bottom"/>
  <anchor x="289" y="650" name="altcaron"/>
  <anchor x="349" y="400" name="dot"/>
  <outline>
    <contour>
      <point x="55" y="193" type="line" smooth="yes"/>
      <point x="55" y="58.00546448087431"/>
      <point x="113.00546448087431" y="0"/>
      <point x="248" y="0" type="curve" smooth="yes"/>
      <point x="517" y="0" type="line"/>
      <point x="517" y="174" type="line"/>
      <point x="301" y="174" type="line" smooth="yes"/>
      <point x="266" y="174"/>
      <point x="249" y="191"/>
      <point x="249" y="226" type="curve" smooth="yes"/>
      <point x="249" y="743" type="line"/>
      <point x="55" y="743" type="line"/>
    </contour>
  </outline>
</glyph>
<glyph name="M" format="2">
  <advance width="915"/>
  <unicode hex="004D"/>
  <note>
GF Latin Plus glyph
</note>
  <anchor x="447" y="810" name="top"/>
  <anchor x="447" y="-150" name="bottom"/>
  <outline>
    <contour>
      <point x="35" y="0" type="line"/>
      <point x="222" y="0" type="line"/>
      <point x="278" y="478" type="line"/>
      <point x="247" y="477" type="line"/>
      <point x="365" y="0" type="line"/>
      <point x="547" y="0" type="line"/>
      <point x="664" y="477" type="line"/>
      <point x="636" y="478" type="line"/>
      <point x="693" y="0" type="line"/>
      <point x="880" y="0" type="line"/>
      <point x="791" y="743" type="line"/>
      <point x="611" y="743" type="line"/>
      <point x="458" y="221" type="line"/>
      <point x="305" y="743" type="line"/>
      <point x="123" y="743" type="line"/>
    </contour>
  </outline>
</glyph>
<glyph name="N" format="2">
  <advance width="719"/>
  <unicode hex="004E"/>
  <note>
GF Latin Plus glyph
</note>
  <anchor x="344" y="810" name="top"/>
  <anchor x="344" y="-150" name="bottom"/>
  <outline>
    <contour>
      <point x="55" y="0" type="line"/>
      <point x="249" y="0" type="line"/>
      <point x="249" y="414" type="line"/>
      <point x="510" y="0" type="line"/>
      <point x="664" y="0" type="line"/>
      <point x="664" y="743" type="line"/>
      <point x="470" y="743" type="line"/>
      <point x="470" y="329" type="line"/>
      <point x="209" y="743" type="line"/>
      <point x="55" y="743" type="line"/>
    </contour>
  </outline>
</glyph>
<glyph name="O" format="2">
  <advance width="708"/>
  <unicode hex="004F"/>
  <note>
GF Latin Plus glyph
</note>
  <anchor x="354" y="810" name="top"/>
  <anchor x="354" y="-150" name="bottom"/>
  <anchor x="421" y="0" name="ogonek"/>
  <outline>
    <contour>
      <point x="230" y="372" type="curve" smooth="yes"/>
      <point x="230" y="544"/>
      <point x="254" y="576"/>
      <point x="354" y="576" type="curve" smooth="yes"/>
      <point x="454" y="576"/>
      <point x="478" y="544"/>
      <point x="478" y="372" type="curve" smooth="yes"/>
      <point x="478" y="206"/>
      <point x="454" y="168"/>
      <point x="354" y="168" type="curve" smooth="yes"/>
      <point x="254" y="168"/>
      <point x="230" y="206"/>
    </contour>
    <contour>
      <point x="36" y="372" type="curve" smooth="yes"/>
      <point x="36" y="57"/>
      <point x="144" y="-6"/>
      <point x="354" y="-6" type="curve" smooth="yes"/>
      <point x="564" y="-6"/>
      <point x="672" y="57"/>
      <point x="672" y="372" type="curve" smooth="yes"/>
      <point x="672" y="687"/>
      <point x="564" y="750"/>
      <point x="354" y="750" type="curve" smooth="yes"/>
      <point x="144" y="750"/>
      <point x="36" y="687"/>
    </contour>
  </outline>
</glyph>
<glyph name="P" format="2">
  <advance width="633"/>
  <unicode hex="0050"/>
  <note>
GF Latin Plus glyph
</note>
  <anchor x="314" y="810" name="top"/>
  <outline>
    <contour>
      <point x="249" y="378" type="line"/>
      <point x="249" y="569" type="line"/>
      <point x="361" y="569" type="line" smooth="yes"/>
      <point x="398.0" y="569"/>
      <point x="413.0" y="536.547619047619"/>
      <point x="413" y="475" type="curve" smooth="yes"/>
      <point x="413.0" y="411.44827586206895"/>
      <point x="401.0" y="378"/>
      <point x="361" y="378" type="curve" smooth="yes"/>
    </contour>
    <contour>
      <point x="55" y="0" type="line"/>
      <point x="249" y="0" type="line"/>
      <point x="249" y="224" type="line"/>
      <point x="279" y="218"/>
      <point x="341" y="204"/>
      <point x="392" y="204" type="curve" smooth="yes"/>
      <point x="487.0" y="204.0"/>
      <point x="607.0" y="236.1787072243346"/>
      <point x="607" y="477" type="curve" smooth="yes"/>
      <point x="607.0" y="714.9453125"/>
      <point x="483.0" y="743"/>
      <point x="381" y="743" type="curve" smooth="yes"/>
      <point x="55" y="743" type="line"/>
    </contour>
  </outline>
</glyph>
<glyph name="Q" format="2">
  <advance width="708"/>
  <unicode hex="0051"/>
  <note>
GF Latin Plus glyph
</note>
  <outline>
    <contour>
      <point x="299" y="-38" type="line"/>
      <point x="300.00000217232423" y="-162.0002693682054"/>
      <point x="409.5164319248826" y="-215.0"/>
      <point x="519" y="-215" type="curve" smooth="yes"/>
      <point x="538" y="-215"/>
      <point x="556" y="-210"/>
      <point x="576" y="-208" type="curve"/>
      <point x="576" y="-68" type="line"/>
      <point x="556" y="-72"/>
      <point x="532" y="-79"/>
      <point x="508" y="-79" type="curve" smooth="yes"/>
      <point x="472.0" y="-79.0"/>
      <point x="436.5711598200061" y="-69.24764842505337"/>
      <point x="433" y="-38" type="curve"/>
    </contour>
    <component base="O"/>
  </outline>
</glyph>
<glyph name="R" format="2">
  <advance width="640"/>
  <unicode hex="0052"/>
  <note>
GF Latin Plus glyph
</note>
  <anchor x="304" y="810" name="top"/>
  <anchor x="310" y="-150" name="bottom"/>
  <outline>
    <contour>
      <point x="55" y="0" type="line"/>
      <point x="249" y="0" type="line"/>
      <point x="249" y="256" type="line"/>
      <point x="274" y="256.0"/>
      <point x="298" y="256.0"/>
      <point x="323" y="256" type="curve"/>
      <point x="427" y="0" type="line"/>
      <point x="624" y="0" type="line"/>
      <point x="495" y="288" type="line"/>
      <point x="551.268335604551" y="319.85000128559483"/>
      <point x="596" y="369"/>
      <point x="596" y="493" type="curve" smooth="yes"/>
      <point x="596" y="687"/>
      <point x="502" y="743"/>
      <point x="372" y="743" type="curve" smooth="yes"/>
      <point x="55" y="743" type="line"/>
    </contour>
    <contour>
      <point x="249" y="410" type="line"/>
      <point x="249" y="569" type="line"/>
      <point x="337" y="569" type="line" smooth="yes"/>
      <point x="380" y="569"/>
      <point x="402" y="551"/>
      <point x="402" y="492" type="curve" smooth="yes"/>
      <point x="402" y="433"/>
      <point x="380" y="410"/>
      <point x="337" y="410" type="curve" smooth="yes"/>
    </contour>
  </outline>
</glyph>
<glyph name="S" format="2">
  <advance width="597"/>
  <unicode hex="0053"/>
  <note>
GF Latin Plus glyph
</note>
  <anchor x="294" y="810" name="top"/>
  <anchor x="294" y="-150" name="bottom"/>
  <outline>
    <contour>
      <point x="36" y="497" type="line" smooth="yes"/>
      <point x="36" y="337.59030837004406"/>
      <point x="117" y="275"/>
      <point x="272" y="275" type="curve" smooth="yes"/>
      <point x="325" y="275" type="line" smooth="yes"/>
      <point x="352.44444444444446" y="275"/>
      <point x="377" y="259.734693877551"/>
      <point x="377" y="231" type="curve" smooth="yes"/>
      <point x="377" y="219" type="line" smooth="yes"/>
      <point x="377" y="181"/>
      <point x="344.4177215189874" y="168.0"/>
      <point x="278" y="168" type="curve" smooth="yes"/>
      <point x="208.0543933054393" y="168.0"/>
      <point x="116" y="171"/>
      <point x="49" y="177" type="curve"/>
      <point x="49" y="23" type="line"/>
      <point x="118" y="5"/>
      <point x="200" y="-6"/>
      <point x="288" y="-6" type="curve" smooth="yes"/>
      <point x="457.0" y="-6.0"/>
      <point x="561" y="33"/>
      <point x="561" y="224" type="curve" smooth="yes"/>
      <point x="561" y="257" type="line" smooth="yes"/>
      <point x="561" y="372.1497584541063"/>
      <point x="490" y="459"/>
      <point x="351" y="459" type="curve" smooth="yes"/>
      <point x="285" y="459" type="line" smooth="yes"/>
      <point x="240.64705882352942" y="459"/>
      <point x="220" y="477.2830188679245"/>
      <point x="220" y="510" type="curve" smooth="yes"/>
      <point x="220" y="520" type="line" smooth="yes"/>
      <point x="220" y="566"/>
      <point x="259.06976744186045" y="575.0"/>
      <point x="316" y="575" type="curve" smooth="yes"/>
      <point x="378" y="575"/>
      <point x="462" y="571"/>
      <point x="524" y="566" type="curve"/>
      <point x="524" y="720" type="line"/>
      <point x="465" y="734"/>
      <point x="385" y="749"/>
      <point x="292" y="749" type="curve" smooth="yes"/>
      <point x="126.0" y="749.0"/>
      <point x="36" y="677.0138888888889"/>
      <point x="36" y="530" type="curve" smooth="yes"/>
    </contour>
  </outline>
</glyph>
<glyph name="T" format="2">
  <advance width="600"/>
  <unicode hex="0054"/>
  <note>
GF Latin Plus glyph
</note>
  <anchor x="300" y="810" name="top"/>
  <anchor x="300" y="-150" name="bottom"/>
  <outline>
    <contour>
      <point x="16" y="569" type="line"/>
      <point x="203" y="569" type="line"/>
      <point x="203" y="0" type="line"/>
      <point x="397" y="0" type="line"/>
      <point x="397" y="569" type="line"/>
      <point x="584" y="569" type="line"/>
      <point x="584" y="743" type="line"/>
      <point x="16" y="743" type="line"/>
    </contour>
  </outline>
</glyph>
<glyph name="U" format="2">
  <advance width="692"/>
  <unicode hex="0055"/>
  <note>
GF Latin Plus glyph
</note>
  <anchor x="334" y="810" name="top"/>
  <anchor x="334" y="-150" name="bottom"/>
  <anchor x="422" y="0" name="ogonek"/>
  <outline>
    <contour>
      <point x="45" y="245" type="line" smooth="yes"/>
      <point x="45" y="37"/>
      <point x="182" y="-5"/>
      <point x="346" y="-5" type="curve" smooth="yes"/>
      <point x="510" y="-5"/>
      <point x="647" y="37"/>
      <point x="647" y="245" type="curve" smooth="yes"/>
      <point x="647" y="743" type="line"/>
      <point x="453" y="743" type="line"/>
      <point x="453" y="246" type="line" smooth="yes"/>
      <point x="453" y="194"/>
      <point x="414" y="169"/>
      <point x="346" y="169" type="curve" smooth="yes"/>
      <point x="278" y="169"/>
      <point x="239" y="194"/>
      <point x="239" y="246" type="curve" smooth="yes"/>
      <point x="239" y="743" type="line"/>
      <point x="45" y="743" type="line"/>
    </contour>
  </outline>
</glyph>
<glyph name="V" format="2">
  <advance width="692"/>
  <unicode hex="0056"/>
  <note>
GF Latin Plus glyph
</note>
  <outline>
    <contour>
      <point x="5" y="743" type="line"/>
      <point x="225" y="0" type="line"/>
      <point x="467" y="0" type="line"/>
      <point x="687" y="743" type="line"/>
      <point x="488" y="743" type="line"/>
      <point x="347" y="211" type="line"/>
      <point x="206" y="743" type="line"/>
    </contour>
  </outline>
</glyph>
<glyph name="W" format="2">
  <advance width="991"/>
  <unicode hex="0057"/>
  <note>
GF Latin Plus glyph
</note>
  <anchor x="503" y="810" name="top"/>
  <anchor x="499" y="-150" name="bottom"/>
  <outline>
    <contour>
      <point x="5" y="743" type="line"/>
      <point x="175" y="0" type="line"/>
      <point x="369" y="0" type="line"/>
      <point x="496" y="454" type="line"/>
      <point x="622" y="0" type="line"/>
      <point x="816" y="0" type="line"/>
      <point x="986" y="743" type="line"/>
      <point x="785" y="743" type="line"/>
      <point x="693" y="291" type="line"/>
      <point x="583" y="743" type="line"/>
      <point x="409" y="743" type="line"/>
      <point x="298" y="291" type="line"/>
      <point x="206" y="743" type="line"/>
    </contour>
  </outline>
</glyph>
<glyph name="X" format="2">
  <advance width="690"/>
  <unicode hex="0058"/>
  <note>
GF Latin Plus glyph
</note>
  <anchor x="317.0" y="810.0" name="top"/>
  <anchor x="317.0" y="-150.0" name="bottom"/>
  <outline>
    <contour>
      <point x="8" y="0" type="line"/>
      <point x="222" y="0" type="line"/>
      <point x="361" y="254" type="line"/>
      <point x="261" y="417" type="line"/>
    </contour>
    <contour>
      <point x="327" y="478" type="line"/>
      <point x="426" y="318" type="line"/>
      <point x="685" y="743" type="line"/>
      <point x="471" y="743" type="line"/>
    </contour>
    <contour>
      <point x="5" y="743" type="line"/>
      <point x="466" y="0" type="line"/>
      <point x="680" y="0" type="line"/>
      <point x="219" y="743" type="line"/>
    </contour>
  </outline>
</glyph>
<glyph name="Y" format="1">
  <advance width="634"/>
  <unicode hex="0059"/>
  <note>
    GF Latin Plus glyph
  </note>
  <outline>
    <contour>
      <point x="5" y="743" type="line"/>
      <point x="220" y="211" type="line"/>
      <point x="220" y="0" type="line"/>
      <point x="414" y="0" type="line"/>
      <point x="414" y="211" type="line"/>
      <point x="629" y="743" type="line"/>
      <point x="436" y="743" type="line"/>
      <point x="321" y="409" type="line"/>
      <point x="206" y="743" type="line"/>
    </contour>
    <contour>
      <point x="321" y="810" type="move" name="top"/>
    </contour>
    <contour>
      <point x="321" y="-150" type="move" name="bottom"/>
    </contour>
    <contour>
      <point x="404" y="0" type="move" name="ogonek"/>
    </contour>
  </outline>
</glyph>
<glyph name="Z" format="2">
  <advance width="583"/>
  <unicode hex="005A"/>
  <note>
GF Latin Plus glyph
</note>
  <anchor x="285" y="810" name="top"/>
  <anchor x="285" y="-150" name="bottom"/>
  <outline>
    <contour>
      <point x="35" y="0" type="line"/>
      <point x="548" y="0" type="line"/>
      <point x="548" y="174" type="line"/>
      <point x="271" y="174" type="line"/>
      <point x="548" y="589" type="line"/>
      <point x="548" y="743" type="line"/>
      <point x="35" y="743" type="line"/>
      <point x="35" y="569" type="line"/>
      <point x="312" y="569" type="line"/>
      <point x="35" y="154" type="line"/>
    </contour>
  </outline>
</glyph>
<glyph name="bracketleft" format="2">
  <advance width="344"/>
  <unicode hex="005B"/>
  <note>
GF Latin Plus glyph
</note>
  <outline>
    <contour>
      <point x="48" y="12" type="line" smooth="yes"/>
      <point x="48" y="-86"/>
      <point x="75" y="-210"/>
      <point x="244" y="-210" type="curve" smooth="yes"/>
      <point x="334" y="-210" type="line"/>
      <point x="334" y="-56" type="line"/>
      <point x="304" y="-56" type="line" smooth="yes"/>
      <point x="266" y="-56"/>
      <point x="242" y="-38"/>
      <point x="242" y="22" type="curve" smooth="yes"/>
      <point x="242" y="610" type="line" smooth="yes"/>
      <point x="242" y="670"/>
      <point x="266" y="688"/>
      <point x="304" y="688" type="curve" smooth="yes"/>
      <point x="334" y="688" type="line"/>
      <point x="334" y="842" type="line"/>
      <point x="244" y="842" type="line" smooth="yes"/>
      <point x="105" y="842"/>
      <point x="48" y="772"/>
      <point x="48" y="640" type="curve" smooth="yes"/>
    </contour>
  </outline>
</glyph>
<glyph name="bracketright" format="2">
  <advance width="344"/>
  <unicode hex="005D"/>
  <note>
GF Latin Plus glyph
</note>
  <outline>
    <contour>
      <point x="11" y="-56" type="line"/>
      <point x="11" y="-210" type="line"/>
      <point x="101" y="-210" type="line" smooth="yes"/>
      <point x="270" y="-210"/>
      <point x="297" y="-86"/>
      <point x="297" y="12" type="curve" smooth="yes"/>
      <point x="297" y="640" type="line" smooth="yes"/>
      <point x="297" y="772"/>
      <point x="240" y="842"/>
      <point x="101" y="842" type="curve" smooth="yes"/>
      <point x="11" y="842" type="line"/>
      <point x="11" y="688" type="line"/>
      <point x="41" y="688" type="line" smooth="yes"/>
      <point x="79" y="688"/>
      <point x="103" y="670"/>
      <point x="103" y="610" type="curve" smooth="yes"/>
      <point x="103" y="22" type="line" smooth="yes"/>
      <point x="103" y="-38"/>
      <point x="79" y="-56"/>
      <point x="41" y="-56" type="curve" smooth="yes"/>
    </contour>
  </outline>
</glyph>
<glyph name="underscore" format="2">
  <advance width="609"/>
  <unicode hex="005F"/>
  <note>
GF Latin Plus glyph
</note>
  <outline>
    <contour>
      <point x="0" y="-211" type="line"/>
      <point x="0" y="-57" type="line"/>
      <point x="609" y="-57" type="line"/>
      <point x="609" y="-211" type="line"/>
    </contour>
  </outline>
</glyph>
<glyph name="b" format="2">
  <advance width="590"/>
  <unicode hex="0062"/>
  <note>
GF Latin Plus glyph
</note>
  <anchor x="141" y="850" name="top"/>
  <outline>
    <contour>
      <point x="238" y="166" type="curve"/>
      <point x="238" y="373" type="line"/>
      <point x="248" y="381"/>
      <point x="279" y="393"/>
      <point x="304" y="393" type="curve" smooth="yes"/>
      <point x="332" y="393"/>
      <point x="366" y="386"/>
      <point x="366" y="273" type="curve" smooth="yes"/>
      <point x="366" y="164"/>
      <point x="333" y="151"/>
      <point x="304" y="151" type="curve" smooth="yes"/>
      <point x="273" y="151"/>
      <point x="252" y="158"/>
    </contour>
    <contour>
      <point x="44" y="0" type="line"/>
      <point x="208" y="0" type="line"/>
      <point x="238" y="49" type="line"/>
      <point x="277" y="16"/>
      <point x="311" y="-6"/>
      <point x="380" y="-6" type="curve" smooth="yes"/>
      <point x="499" y="-6"/>
      <point x="560" y="72"/>
      <point x="560" y="263" type="curve" smooth="yes"/>
      <point x="560" y="462"/>
      <point x="514" y="548"/>
      <point x="370" y="548" type="curve" smooth="yes"/>
      <point x="325" y="548"/>
      <point x="274" y="528"/>
      <point x="238" y="509" type="curve"/>
      <point x="238" y="763" type="line"/>
      <point x="44" y="763" type="line"/>
    </contour>
  </outline>
</glyph>
<glyph name="c" format="2">
  <advance width="490"/>
  <unicode hex="0063"/>
  <note>
GF Latin Plus glyph
</note>
  <anchor x="270" y="650" name="top"/>
  <anchor x="270" y="-150" name="bottom"/>
  <outline>
    <contour>
      <point x="30" y="266" type="curve" smooth="yes"/>
      <point x="30" y="58"/>
      <point x="126" y="-6"/>
      <point x="263" y="-6" type="curve" smooth="yes"/>
      <point x="332" y="-6"/>
      <point x="419" y="9"/>
      <point x="470" y="30" type="curve"/>
      <point x="470" y="139" type="line"/>
      <point x="334" y="139" type="line" smooth="yes"/>
      <point x="242" y="139"/>
      <point x="224" y="157"/>
      <point x="224" y="269" type="curve" smooth="yes"/>
      <point x="224" y="379"/>
      <point x="246" y="406"/>
      <point x="332" y="406" type="curve" smooth="yes"/>
      <point x="463" y="406" type="line"/>
      <point x="463" y="517" type="line"/>
      <point x="392" y="540"/>
      <point x="341" y="548"/>
      <point x="269" y="548" type="curve" smooth="yes"/>
      <point x="113" y="548"/>
      <point x="30" y="484"/>
    </contour>
  </outline>
</glyph>
<glyph name="d" format="2">
  <advance width="588"/>
  <unicode hex="0064"/>
  <note>
GF Latin Plus glyph
</note>
  <anchor x="280" y="-150" name="bottom"/>
  <anchor x="567" y="650" name="altcaron"/>
  <anchor x="449" y="850" name="top"/>
  <outline>
    <contour>
      <point x="224" y="273" type="curve" smooth="yes"/>
      <point x="224" y="386"/>
      <point x="243" y="404"/>
      <point x="298" y="404" type="curve" smooth="yes"/>
      <point x="316.5625" y="404.0"/>
      <point x="340.437707888135" y="394.1152566842246"/>
      <point x="352" y="387" type="curve"/>
      <point x="352" y="169" type="line"/>
      <point x="340.99309010440203" y="159.8275750870017"/>
      <point x="319.5072463768116" y="149.0"/>
      <point x="293" y="149" type="curve" smooth="yes"/>
      <point x="242.0" y="149.0"/>
      <point x="224.0" y="162.88059701492537"/>
    </contour>
    <contour>
      <point x="30" y="263" type="curve" smooth="yes"/>
      <point x="30.0" y="62.0"/>
      <point x="100" y="-6"/>
      <point x="222" y="-6" type="curve" smooth="yes"/>
      <point x="271" y="-6"/>
      <point x="313.59209641267006" y="15.393084361086316"/>
      <point x="352" y="49" type="curve"/>
      <point x="382" y="0" type="line"/>
      <point x="546" y="0" type="line"/>
      <point x="546" y="763" type="line"/>
      <point x="352" y="763" type="line"/>
      <point x="352" y="527" type="line"/>
      <point x="318.4381158957923" y="539.1195692598528"/>
      <point x="274" y="548"/>
      <point x="232" y="548" type="curve" smooth="yes"/>
      <point x="74" y="548"/>
      <point x="30.0" y="462.0"/>
    </contour>
  </outline>
</glyph>
<glyph name="e" format="2">
  <advance width="535"/>
  <unicode hex="0065"/>
  <note>
GF Latin Plus glyph
</note>
  <anchor x="270" y="650" name="top"/>
  <anchor x="270" y="-150" name="bottom"/>
  <anchor x="475" y="25" name="ogonek"/>
  <outline>
    <contour>
      <point x="220" y="316" type="line"/>
      <point x="220.0" y="389.70454545454544"/>
      <point x="237.0" y="410.0"/>
      <point x="276" y="410" type="curve" smooth="yes"/>
      <point x="317.8363636363636" y="410.0"/>
      <point x="335.0" y="394.0"/>
      <point x="335" y="356" type="curve" smooth="yes"/>
      <point x="335.0" y="327.0"/>
      <point x="323.8235294117647" y="316"/>
      <point x="297" y="316" type="curve" smooth="yes"/>
    </contour>
    <contour>
      <point x="30" y="268" type="curve" smooth="yes"/>
      <point x="30" y="51"/>
      <point x="101.4" y="-5.0"/>
      <point x="285" y="-5" type="curve" smooth="yes"/>
      <point x="376.30434782608694" y="-5.0"/>
      <point x="438" y="11"/>
      <point x="485" y="25" type="curve"/>
      <point x="485" y="138" type="line"/>
      <point x="338" y="138" type="line" smooth="yes"/>
      <point x="244.14545454545453" y="138"/>
      <point x="227.00296336501972" y="154.9715516958105"/>
      <point x="222" y="203" type="curve"/>
      <point x="318" y="203" type="line" smooth="yes"/>
      <point x="432" y="203"/>
      <point x="505" y="239"/>
      <point x="505" y="357" type="curve" smooth="yes"/>
      <point x="505" y="509"/>
      <point x="447" y="548"/>
      <point x="276" y="548" type="curve" smooth="yes"/>
      <point x="90" y="548"/>
      <point x="30" y="490"/>
    </contour>
  </outline>
</glyph>
<glyph name="g" format="2">
  <advance width="586"/>
  <unicode hex="0067"/>
  <note>
GF Latin Plus glyph
</note>
  <anchor x="291" y="650" name="top"/>
  <outline>
    <contour>
      <point x="216" y="348" type="curve" smooth="yes"/>
      <point x="216" y="382"/>
      <point x="227" y="395"/>
      <point x="261" y="395" type="curve" smooth="yes"/>
      <point x="316" y="395" type="line" smooth="yes"/>
      <point x="350" y="395"/>
      <point x="361" y="382"/>
      <point x="361" y="348" type="curve" smooth="yes"/>
      <point x="361" y="314"/>
      <point x="350" y="299"/>
      <point x="316" y="299" type="curve" smooth="yes"/>
      <point x="261" y="299" type="line" smooth="yes"/>
      <point x="227" y="299"/>
      <point x="216" y="314"/>
    </contour>
    <contour>
      <point x="42" y="361" type="curve" smooth="yes"/>
      <point x="42" y="299"/>
      <point x="64.86163839796926" y="244.4406908644761"/>
      <point x="121" y="208" type="curve"/>
      <point x="66.78405165177452" y="194.6682094225675"/>
      <point x="34.0" y="151.02654867256638"/>
      <point x="34" y="97" type="curve" smooth="yes"/>
      <point x="34.0" y="24.89922480620156"/>
      <point x="96.3835616438356" y="-34"/>
      <point x="241" y="-34" type="curve" smooth="yes"/>
      <point x="333" y="-34" type="line" smooth="yes"/>
      <point x="362" y="-34"/>
      <point x="383" y="-46"/>
      <point x="383" y="-69" type="curve" smooth="yes"/>
      <point x="383" y="-81" type="line" smooth="yes"/>
      <point x="383" y="-104"/>
      <point x="362" y="-116"/>
      <point x="333" y="-116" type="curve" smooth="yes"/>
      <point x="245" y="-116" type="line" smooth="yes"/>
      <point x="210" y="-116"/>
      <point x="196" y="-98"/>
      <point x="196" y="-77" type="curve" smooth="yes"/>
      <point x="196" y="-72" type="line" smooth="yes"/>
      <point x="196" y="-50"/>
      <point x="211" y="-34"/>
      <point x="245" y="-34" type="curve"/>
      <point x="184" y="22" type="line"/>
      <point x="94.0" y="22.0"/>
      <point x="12" y="-29.44642857142857"/>
      <point x="12" y="-112" type="curve" smooth="yes"/>
      <point x="12" y="-123" type="line" smooth="yes"/>
      <point x="12" y="-203.1208053691275"/>
      <point x="89" y="-250"/>
      <point x="188" y="-250" type="curve" smooth="yes"/>
      <point x="357" y="-250" type="line" smooth="yes"/>
      <point x="502" y="-250"/>
      <point x="567" y="-182"/>
      <point x="567" y="-70" type="curve" smooth="yes"/>
      <point x="567" y="-61" type="line" smooth="yes"/>
      <point x="567" y="67"/>
      <point x="488" y="110"/>
      <point x="366" y="110" type="curve" smooth="yes"/>
      <point x="236" y="110" type="line" smooth="yes"/>
      <point x="214" y="110"/>
      <point x="196" y="114"/>
      <point x="196" y="131" type="curve" smooth="yes"/>
      <point x="196" y="148"/>
      <point x="214" y="155"/>
      <point x="236" y="155" type="curve" smooth="yes"/>
      <point x="338" y="155" type="line" smooth="yes"/>
      <point x="477" y="155"/>
      <point x="535" y="220"/>
      <point x="535" y="320" type="curve" smooth="yes"/>
      <point x="535" y="366"/>
      <point x="528" y="394"/>
      <point x="514" y="415" type="curve"/>
      <point x="571" y="433" type="line"/>
      <point x="571" y="539" type="line"/>
      <point x="277" y="539" type="line" smooth="yes"/>
      <point x="109" y="539"/>
      <point x="42" y="477"/>
    </contour>
  </outline>
</glyph>
<glyph name="h" format="2">
  <advance width="600"/>
  <unicode hex="0068"/>
  <note>
GF Latin Plus glyph
</note>
  <anchor x="141" y="850" name="top"/>
  <anchor x="299" y="-150" name="bottom"/>
  <outline>
    <contour>
      <point x="44" y="0" type="line"/>
      <point x="238" y="0" type="line"/>
      <point x="238" y="343" type="line"/>
      <point x="254" y="359"/>
      <point x="284" y="374"/>
      <point x="311" y="374" type="curve" smooth="yes"/>
      <point x="339" y="374"/>
      <point x="364" y="364"/>
      <point x="364" y="324" type="curve" smooth="yes"/>
      <point x="364" y="0" type="line"/>
      <point x="558" y="0" type="line"/>
      <point x="558" y="350" type="line" smooth="yes"/>
      <point x="558" y="472"/>
      <point x="520" y="548"/>
      <point x="392" y="548" type="curve" smooth="yes"/>
      <point x="333" y="548"/>
      <point x="268" y="516"/>
      <point x="238" y="487" type="curve"/>
      <point x="238" y="762" type="line"/>
      <point x="44" y="762" type="line"/>
    </contour>
  </outline>
</glyph>
<glyph name="j" format="2">
  <advance width="282"/>
  <unicode hex="006A"/>
  <note>
GF Latin Plus glyph
</note>
  <outline>
    <contour>
      <point x="41" y="630" type="line" smooth="yes"/>
      <point x="41" y="616"/>
      <point x="51" y="607"/>
      <point x="65" y="607" type="curve" smooth="yes"/>
      <point x="217" y="607" type="line" smooth="yes"/>
      <point x="231" y="607"/>
      <point x="239" y="615"/>
      <point x="239" y="630" type="curve" smooth="yes"/>
      <point x="239" y="741" type="line" smooth="yes"/>
      <point x="239" y="755"/>
      <point x="232" y="766"/>
      <point x="217" y="766" type="curve" smooth="yes"/>
      <point x="65" y="766" type="line" smooth="yes"/>
      <point x="49" y="766"/>
      <point x="41" y="756"/>
      <point x="41" y="741" type="curve" smooth="yes"/>
    </contour>
    <component base="jdotless"/>
  </outline>
</glyph>
<glyph name="k" format="2">
  <advance width="586"/>
  <unicode hex="006B"/>
  <note>
GF Latin Plus glyph
</note>
  <anchor x="290" y="-150" name="bottom"/>
  <outline>
    <contour>
      <point x="44" y="0" type="line"/>
      <point x="238" y="0" type="line"/>
      <point x="238" y="196" type="line"/>
      <point x="291" y="196" type="line"/>
      <point x="399" y="0" type="line"/>
      <point x="593" y="0" type="line"/>
      <point x="436" y="283" type="line"/>
      <point x="575" y="539" type="line"/>
      <point x="380" y="539" type="line"/>
      <point x="292" y="370" type="line"/>
      <point x="238" y="370" type="line"/>
      <point x="238" y="763" type="line"/>
      <point x="44" y="763" type="line"/>
    </contour>
  </outline>
</glyph>
<glyph name="l" format="2">
  <advance width="326"/>
  <unicode hex="006C"/>
  <note>
GF Latin Plus glyph
</note>
  <anchor x="198" y="-150" name="bottom"/>
  <anchor x="258" y="650" name="altcaron"/>
  <anchor x="141" y="850" name="top"/>
  <anchor x="288" y="350" name="dot"/>
  <outline>
    <contour>
      <point x="44" y="175" type="line" smooth="yes"/>
      <point x="44" y="57.8354430379747"/>
      <point x="103.00000000000001" y="-3"/>
      <point x="231" y="-3" type="curve" smooth="yes"/>
      <point x="314" y="-3" type="line"/>
      <point x="314" y="138" type="line"/>
      <point x="281" y="143" type="line" smooth="yes"/>
      <point x="250" y="148"/>
      <point x="238" y="167"/>
      <point x="238" y="205" type="curve" smooth="yes"/>
      <point x="238" y="763" type="line"/>
      <point x="44" y="763" type="line"/>
    </contour>
  </outline>
</glyph>
<glyph name="m" format="2">
  <advance width="920"/>
  <unicode hex="006D"/>
  <note>
GF Latin Plus glyph
</note>
  <anchor x="481" y="650" name="top"/>
  <anchor x="461" y="-150" name="bottom"/>
  <outline>
    <contour>
      <point x="44" y="0" type="line"/>
      <point x="238" y="0" type="line"/>
      <point x="238" y="343" type="line"/>
      <point x="255" y="360"/>
      <point x="284" y="374"/>
      <point x="311" y="374" type="curve" smooth="yes"/>
      <point x="342" y="374"/>
      <point x="364" y="363"/>
      <point x="364" y="322" type="curve" smooth="yes"/>
      <point x="364" y="0" type="line"/>
      <point x="558" y="0" type="line"/>
      <point x="558" y="318" type="line" smooth="yes"/>
      <point x="558" y="327"/>
      <point x="558" y="335"/>
      <point x="558" y="343" type="curve"/>
      <point x="575" y="360"/>
      <point x="604" y="374"/>
      <point x="631" y="374" type="curve" smooth="yes"/>
      <point x="662" y="374"/>
      <point x="684" y="363"/>
      <point x="684" y="322" type="curve" smooth="yes"/>
      <point x="684" y="0" type="line"/>
      <point x="878" y="0" type="line"/>
      <point x="878" y="340" type="line" smooth="yes"/>
      <point x="878" y="471"/>
      <point x="844" y="548"/>
      <point x="706" y="548" type="curve" smooth="yes"/>
      <point x="641" y="548"/>
      <point x="578" y="507"/>
      <point x="536" y="475" type="curve"/>
      <point x="513" y="517"/>
      <point x="471" y="548"/>
      <point x="404" y="548" type="curve" smooth="yes"/>
      <point x="323" y="548"/>
      <point x="281" y="520"/>
      <point x="238" y="487" type="curve"/>
      <point x="206" y="539" type="line"/>
      <point x="44" y="539" type="line"/>
    </contour>
  </outline>
</glyph>
<glyph name="o" format="2">
  <advance width="574"/>
  <unicode hex="006F"/>
  <note>
GF Latin Plus glyph
</note>
  <anchor x="287" y="650" name="top"/>
  <anchor x="287" y="-150" name="bottom"/>
  <anchor x="347" y="0" name="ogonek"/>
  <outline>
    <contour>
      <point x="224" y="272" type="curve" smooth="yes"/>
      <point x="224.0" y="383.8333333333333"/>
      <point x="237.0" y="394.0"/>
      <point x="287" y="394" type="curve" smooth="yes"/>
      <point x="337.0" y="394.0"/>
      <point x="350.0" y="383.8333333333333"/>
      <point x="350" y="272" type="curve" smooth="yes"/>
      <point x="350.0" y="159.17293233082708"/>
      <point x="337.0" y="149.0"/>
      <point x="287" y="149" type="curve" smooth="yes"/>
      <point x="237.0" y="149.0"/>
      <point x="224.0" y="159.17293233082708"/>
    </contour>
    <contour>
      <point x="30" y="271" type="curve" smooth="yes"/>
      <point x="30.0" y="71.27636363636364"/>
      <point x="94" y="-5"/>
      <point x="287" y="-5" type="curve" smooth="yes"/>
      <point x="484" y="-5"/>
      <point x="544.0" y="64.25090909090909"/>
      <point x="544" y="271" type="curve" smooth="yes"/>
      <point x="544.0" y="481.2410071942446"/>
      <point x="479" y="548"/>
      <point x="287" y="548" type="curve" smooth="yes"/>
      <point x="97" y="548"/>
      <point x="30.0" y="487.2194244604317"/>
    </contour>
  </outline>
</glyph>
<glyph name="p" format="2">
  <advance width="590"/>
  <unicode hex="0070"/>
  <note>
GF Latin Plus glyph
</note>
  <anchor x="287" y="650" name="top"/>
  <outline>
    <contour>
      <point x="238" y="166" type="curve"/>
      <point x="238" y="373" type="line"/>
      <point x="251" y="382"/>
      <point x="277" y="393"/>
      <point x="305" y="393" type="curve" smooth="yes"/>
      <point x="344.0" y="393.0"/>
      <point x="366.0" y="368.9259259259259"/>
      <point x="366" y="268" type="curve" smooth="yes"/>
      <point x="366.0" y="167.40186915887853"/>
      <point x="332.0" y="151.0"/>
      <point x="304" y="151" type="curve" smooth="yes"/>
      <point x="279" y="151"/>
      <point x="251" y="157"/>
    </contour>
    <contour>
      <point x="44" y="-237" type="line"/>
      <point x="238" y="-237" type="line"/>
      <point x="238" y="17" type="line"/>
      <point x="275" y="-1"/>
      <point x="325" y="-8"/>
      <point x="370" y="-8" type="curve" smooth="yes"/>
      <point x="524" y="-8"/>
      <point x="560" y="100"/>
      <point x="560" y="268" type="curve" smooth="yes"/>
      <point x="560" y="458"/>
      <point x="499" y="548"/>
      <point x="370" y="548" type="curve" smooth="yes"/>
      <point x="311" y="548"/>
      <point x="277" y="523"/>
      <point x="238" y="490" type="curve"/>
      <point x="208" y="539" type="line"/>
      <point x="44" y="539" type="line"/>
    </contour>
  </outline>
</glyph>
<glyph name="q" format="2">
  <advance width="588"/>
  <unicode hex="0071"/>
  <note>
GF Latin Plus glyph
</note>
  <outline>
    <contour>
      <point x="224" y="275" type="curve" smooth="yes"/>
      <point x="224" y="375"/>
      <point x="243" y="404"/>
      <point x="302" y="404" type="curve" smooth="yes"/>
      <point x="352" y="404" type="line"/>
      <point x="352" y="169" type="line"/>
      <point x="341.0374374447496" y="160.77807808356224"/>
      <point x="305.5" y="149.0"/>
      <point x="290" y="149" type="curve" smooth="yes"/>
      <point x="241" y="149"/>
      <point x="224" y="163"/>
    </contour>
    <contour>
      <point x="30" y="268" type="curve" smooth="yes"/>
      <point x="30" y="76"/>
      <point x="78" y="-6"/>
      <point x="231" y="-6" type="curve" smooth="yes"/>
      <point x="273" y="-6"/>
      <point x="322.2385740621755" y="21.158666058164176"/>
      <point x="352" y="49" type="curve"/>
      <point x="352" y="-237" type="line"/>
      <point x="546" y="-237" type="line"/>
      <point x="546" y="522" type="line"/>
      <point x="467" y="534"/>
      <point x="335" y="548"/>
      <point x="239" y="548" type="curve" smooth="yes"/>
      <point x="97" y="548"/>
      <point x="30" y="488"/>
    </contour>
  </outline>
</glyph>
<glyph name="r" format="2">
  <advance width="430"/>
  <unicode hex="0072"/>
  <note>
GF Latin Plus glyph
</note>
  <anchor x="230" y="650" name="top"/>
  <anchor x="141" y="-150" name="bottom"/>
  <outline>
    <contour>
      <point x="44" y="0" type="line"/>
      <point x="238" y="0" type="line"/>
      <point x="238" y="305" type="line"/>
      <point x="260.12690669750293" y="334.50254226333726"/>
      <point x="295" y="347"/>
      <point x="344" y="347" type="curve" smooth="yes"/>
      <point x="362" y="347"/>
      <point x="387" y="345"/>
      <point x="410" y="343" type="curve"/>
      <point x="410" y="542" type="line"/>
      <point x="396" y="546"/>
      <point x="381" y="547"/>
      <point x="370" y="547" type="curve" smooth="yes"/>
      <point x="310" y="547"/>
      <point x="270" y="508"/>
      <point x="238" y="464" type="curve"/>
      <point x="195" y="539" type="line"/>
      <point x="44" y="539" type="line"/>
    </contour>
  </outline>
</glyph>
<glyph name="s" format="1">
  <advance width="508.0"/>
  <unicode hex="0073"/>
  <note>
    GF Latin Plus glyph
  </note>
  <outline>
    <contour>
      <point x="26" y="347" type="line" smooth="yes"/>
      <point x="26" y="232"/>
      <point x="101" y="192"/>
      <point x="191" y="192" type="curve" smooth="yes"/>
      <point x="281" y="192" type="line" smooth="yes"/>
      <point x="313" y="192"/>
      <point x="318" y="184"/>
      <point x="318" y="171" type="curve" smooth="yes"/>
      <point x="318" y="158" type="line" smooth="yes"/>
      <point x="318" y="145"/>
      <point x="314" y="138"/>
      <point x="288" y="138" type="curve" smooth="yes"/>
      <point x="38" y="138" type="line"/>
      <point x="38" y="25" type="line"/>
      <point x="89" y="3"/>
      <point x="170" y="-6"/>
      <point x="247" y="-6" type="curve" smooth="yes"/>
      <point x="405" y="-6"/>
      <point x="482" y="34"/>
      <point x="482" y="143" type="curve" smooth="yes"/>
      <point x="482" y="198" type="line" smooth="yes"/>
      <point x="482" y="288.9142857142857"/>
      <point x="440" y="346"/>
      <point x="323" y="346" type="curve" smooth="yes"/>
      <point x="230" y="346" type="line" smooth="yes"/>
      <point x="200" y="346"/>
      <point x="190" y="351"/>
      <point x="190" y="367" type="curve" smooth="yes"/>
      <point x="190" y="380" type="line" smooth="yes"/>
      <point x="190" y="395"/>
      <point x="199" y="400"/>
      <point x="219" y="400" type="curve" smooth="yes"/>
      <point x="456" y="400" type="line"/>
      <point x="456" y="513" type="line"/>
      <point x="420" y="528"/>
      <point x="333" y="544"/>
      <point x="260" y="544" type="curve" smooth="yes"/>
      <point x="75" y="544"/>
      <point x="26" y="484"/>
      <point x="26" y="380" type="curve" smooth="yes"/>
    </contour>
    <contour>
      <point x="250" y="650" type="move" name="top"/>
    </contour>
    <contour>
      <point x="250" y="-150" type="move" name="bottom"/>
    </contour>
  </outline>
</glyph>
<glyph name="t" format="2">
  <advance width="403"/>
  <unicode hex="0074"/>
  <note>
GF Latin Plus glyph
</note>
  <anchor x="220" y="-150" name="bottom"/>
  <anchor x="294" y="650" name="altcaron"/>
  <anchor x="197" y="750" name="top"/>
  <outline>
    <contour>
      <point x="5" y="385" type="line"/>
      <point x="88" y="385" type="line"/>
      <point x="82" y="203" type="line" smooth="yes"/>
      <point x="77" y="49"/>
      <point x="129" y="0"/>
      <point x="267" y="0" type="curve" smooth="yes"/>
      <point x="379" y="0" type="line"/>
      <point x="379" y="144" type="line"/>
      <point x="310" y="151" type="line" smooth="yes"/>
      <point x="285" y="154"/>
      <point x="274" y="169"/>
      <point x="274" y="204" type="curve" smooth="yes"/>
      <point x="274" y="385" type="line"/>
      <point x="383" y="385" type="line"/>
      <point x="383" y="539" type="line"/>
      <point x="274" y="539" type="line"/>
      <point x="274" y="690" type="line"/>
      <point x="120" y="690" type="line"/>
      <point x="96" y="539" type="line"/>
      <point x="5" y="509" type="line"/>
    </contour>
  </outline>
</glyph>
<glyph name="u" format="2">
  <advance width="600"/>
  <unicode hex="0075"/>
  <note>
GF Latin Plus glyph
</note>
  <anchor x="298" y="650" name="top"/>
  <anchor x="298" y="-150" name="bottom"/>
  <anchor x="546" y="0" name="ogonek"/>
  <outline>
    <contour>
      <point x="42" y="156" type="line" smooth="yes"/>
      <point x="42" y="59"/>
      <point x="98" y="-6"/>
      <point x="192" y="-6" type="curve" smooth="yes"/>
      <point x="257" y="-6"/>
      <point x="316" y="23"/>
      <point x="362" y="52" type="curve"/>
      <point x="394" y="0" type="line"/>
      <point x="556" y="0" type="line"/>
      <point x="556" y="539" type="line"/>
      <point x="362" y="539" type="line"/>
      <point x="362" y="196" type="line"/>
      <point x="347" y="178"/>
      <point x="309" y="165"/>
      <point x="289" y="165" type="curve" smooth="yes"/>
      <point x="258" y="165"/>
      <point x="236" y="175"/>
      <point x="236" y="217" type="curve" smooth="yes"/>
      <point x="236" y="539" type="line"/>
      <point x="42" y="539" type="line"/>
    </contour>
  </outline>
</glyph>
<glyph name="v" format="1">
  <advance width="582"/>
  <unicode hex="0076"/>
  <note>
    GF Latin Plus glyph
  </note>
  <outline>
    <contour>
      <point x="8" y="539" type="line"/>
      <point x="174" y="0" type="line"/>
      <point x="398" y="0" type="line"/>
      <point x="574" y="539" type="line"/>
      <point x="376" y="539" type="line"/>
      <point x="290" y="179" type="line"/>
      <point x="208" y="539" type="line"/>
    </contour>
  </outline>
</glyph>
<glyph name="w" format="2">
  <advance width="845"/>
  <unicode hex="0077"/>
  <note>
GF Latin Plus glyph
</note>
  <anchor x="429" y="-150" name="bottom"/>
  <anchor x="429" y="650" name="top"/>
  <outline>
    <contour>
      <point x="8" y="539" type="line"/>
      <point x="137" y="0" type="line"/>
      <point x="347" y="0" type="line"/>
      <point x="424" y="261" type="line"/>
      <point x="497" y="0" type="line"/>
      <point x="711" y="0" type="line"/>
      <point x="837" y="539" type="line"/>
      <point x="637" y="539" type="line"/>
      <point x="593" y="179" type="line"/>
      <point x="507" y="539" type="line"/>
      <point x="349" y="539" type="line"/>
      <point x="263" y="179" type="line"/>
      <point x="208" y="539" type="line"/>
    </contour>
  </outline>
</glyph>
<glyph name="x" format="2">
  <advance width="564"/>
  <unicode hex="0078"/>
  <note>
GF Latin Plus glyph
</note>
  <outline>
    <contour>
      <point x="0" y="0" type="line"/>
      <point x="196" y="0" type="line"/>
      <point x="281" y="148" type="line"/>
      <point x="212" y="332" type="line"/>
    </contour>
    <contour>
      <point x="271" y="369" type="line"/>
      <point x="352" y="205" type="line"/>
      <point x="564" y="539" type="line"/>
      <point x="368" y="539" type="line"/>
    </contour>
    <contour>
      <point x="0" y="539" type="line"/>
      <point x="369" y="0" type="line"/>
      <point x="564" y="0" type="line"/>
      <point x="195" y="539" type="line"/>
    </contour>
  </outline>
</glyph>
<glyph name="y" format="2">
  <advance width="587"/>
  <unicode hex="0079"/>
  <note>
GF Latin Plus glyph
</note>
  <anchor x="280" y="650" name="top"/>
  <anchor x="560" y="-150" name="bottom"/>
  <outline>
    <contour>
      <point x="8" y="539" type="line"/>
      <point x="91" y="156" type="line" smooth="yes"/>
      <point x="110" y="66"/>
      <point x="163" y="0"/>
      <point x="280" y="0" type="curve"/>
      <point x="228" y="-237" type="line"/>
      <point x="392" y="-237" type="line"/>
      <point x="442" y="-138" type="line"/>
      <point x="579" y="539" type="line"/>
      <point x="382" y="539" type="line"/>
      <point x="313" y="156" type="line"/>
      <point x="297" y="157"/>
      <point x="275" y="164"/>
      <point x="270" y="195" type="curve" smooth="yes"/>
      <point x="209" y="539" type="line"/>
    </contour>
  </outline>
</glyph>
<glyph name="z" format="2">
  <advance width="512"/>
  <unicode hex="007A"/>
  <note>
GF Latin Plus glyph
</note>
  <anchor x="250" y="650" name="top"/>
  <anchor x="250" y="-150" name="bottom"/>
  <outline>
    <contour>
      <point x="30" y="385" type="line"/>
      <point x="258" y="385" type="line"/>
      <point x="41" y="138" type="line"/>
      <point x="41" y="0" type="line"/>
      <point x="482" y="0" type="line"/>
      <point x="482" y="154" type="line"/>
      <point x="265" y="154" type="line"/>
      <point x="482" y="401" type="line"/>
      <point x="482" y="539" type="line"/>
      <point x="30" y="539" type="line"/>
    </contour>
  </outline>
</glyph>
<glyph name="braceleft" format="2">
  <advance width="322"/>
  <unicode hex="007B"/>
  <note>
GF Latin Plus glyph
</note>
  <outline>
    <contour>
      <point x="11" y="245" type="line"/>
      <point x="51" y="248"/>
      <point x="70" y="226"/>
      <point x="70" y="192" type="curve" smooth="yes"/>
      <point x="70" y="-38" type="line" smooth="yes"/>
      <point x="70" y="-162"/>
      <point x="135" y="-210"/>
      <point x="311" y="-210" type="curve"/>
      <point x="311" y="-66" type="line"/>
      <point x="265" y="-66"/>
      <point x="264" y="-33"/>
      <point x="264" y="32" type="curve" smooth="yes"/>
      <point x="264" y="231" type="line" smooth="yes"/>
      <point x="264" y="288"/>
      <point x="225" y="321"/>
      <point x="160" y="334" type="curve"/>
      <point x="225" y="339"/>
      <point x="265" y="366"/>
      <point x="265" y="440" type="curve" smooth="yes"/>
      <point x="265" y="576" type="line" smooth="yes"/>
      <point x="265" y="667"/>
      <point x="269" y="688"/>
      <point x="311" y="688" type="curve"/>
      <point x="311" y="842" type="line"/>
      <point x="147" y="842"/>
      <point x="71" y="776"/>
      <point x="71" y="656" type="curve" smooth="yes"/>
      <point x="71" y="475" type="line" smooth="yes"/>
      <point x="71" y="437"/>
      <point x="44" y="425"/>
      <point x="11" y="422" type="curve"/>
    </contour>
  </outline>
</glyph>
<glyph name="cent" format="2">
  <advance width="485"/>
  <unicode hex="00A2"/>
  <note>
GF Latin Plus glyph
</note>
  <outline>
    <contour>
      <point x="22" y="266" type="curve" smooth="yes"/>
      <point x="22.0" y="61.0"/>
      <point x="104.85309827390545" y="-2.7907855314207306"/>
      <point x="212" y="-5" type="curve"/>
      <point x="212" y="-95" type="line"/>
      <point x="320" y="-95" type="line"/>
      <point x="320" y="-6" type="line"/>
      <point x="370.5875" y="-6.0"/>
      <point x="419.6855099044556" y="6.323473635417692"/>
      <point x="462" y="33" type="curve"/>
      <point x="462" y="147" type="line"/>
      <point x="462" y="147"/>
      <point x="398" y="139"/>
      <point x="306" y="139" type="curve" smooth="yes"/>
      <point x="234" y="139"/>
      <point x="216" y="162"/>
      <point x="216" y="264" type="curve" smooth="yes"/>
      <point x="216" y="374"/>
      <point x="238" y="392"/>
      <point x="306" y="392" type="curve" smooth="yes"/>
      <point x="395" y="392"/>
      <point x="456" y="386"/>
      <point x="456" y="386" type="curve"/>
      <point x="456" y="500" type="line"/>
      <point x="409.3514217496031" y="518.8388489088142"/>
      <point x="364.5221679096824" y="530.476333225245"/>
      <point x="324" y="534" type="curve"/>
      <point x="324" y="634" type="line"/>
      <point x="216" y="634" type="line"/>
      <point x="216" y="536" type="line"/>
      <point x="103.56818181818181" y="536.0"/>
      <point x="22.0" y="474.0"/>
    </contour>
  </outline>
</glyph>
<glyph name="sterling" format="2">
  <advance width="609"/>
  <unicode hex="00A3"/>
  <note>
GF Latin Plus glyph
</note>
  <outline>
    <contour>
      <point x="54" y="0" type="line"/>
      <point x="569" y="0" type="line"/>
      <point x="569" y="174" type="line"/>
      <point x="330" y="174" type="line"/>
      <point x="330" y="304" type="line"/>
      <point x="491" y="317" type="line"/>
      <point x="491" y="422" type="line"/>
      <point x="330" y="439" type="line"/>
      <point x="330" y="504" type="line" smooth="yes"/>
      <point x="330" y="559"/>
      <point x="350" y="576"/>
      <point x="405" y="576" type="curve" smooth="yes"/>
      <point x="570" y="576" type="line"/>
      <point x="570" y="733" type="line"/>
      <point x="532" y="740"/>
      <point x="471" y="749"/>
      <point x="397" y="749" type="curve" smooth="yes"/>
      <point x="210" y="749"/>
      <point x="136" y="669"/>
      <point x="136" y="482" type="curve" smooth="yes"/>
      <point x="136" y="439" type="line"/>
      <point x="54" y="412" type="line"/>
      <point x="54" y="317" type="line"/>
      <point x="136" y="304" type="line"/>
      <point x="136" y="174" type="line"/>
      <point x="54" y="149" type="line"/>
    </contour>
  </outline>
</glyph>
<glyph name="currency" format="2">
  <advance width="609"/>
  <unicode hex="00A4"/>
  <note>
GF Latin Plus glyph
</note>
  <outline>
    <contour>
      <point x="304" y="541" type="curve" smooth="yes"/>
      <point x="202.44155844155844" y="541.0"/>
      <point x="120.0" y="457.0"/>
      <point x="120" y="356" type="curve" smooth="yes"/>
      <point x="120.0" y="255.0"/>
      <point x="202.44155844155844" y="171.0"/>
      <point x="304" y="171" type="curve" smooth="yes"/>
      <point x="405.4516129032258" y="171.0"/>
      <point x="489.0" y="255.0"/>
      <point x="489" y="356" type="curve" smooth="yes"/>
      <point x="489.0" y="457.0"/>
      <point x="405.4516129032258" y="541.0"/>
    </contour>
    <contour>
      <point x="238" y="499" type="line"/>
      <point x="134" y="603" type="line"/>
      <point x="57" y="526" type="line"/>
      <point x="161" y="422" type="line"/>
    </contour>
    <contour>
      <point x="445" y="420" type="line"/>
      <point x="551" y="526" type="line"/>
      <point x="474" y="603" type="line"/>
      <point x="368" y="497" type="line"/>
    </contour>
    <contour>
      <point x="551" y="186" type="line"/>
      <point x="445" y="292" type="line"/>
      <point x="368" y="215" type="line"/>
      <point x="474" y="109" type="line"/>
    </contour>
    <contour>
      <point x="134" y="109" type="line"/>
      <point x="242" y="217" type="line"/>
      <point x="165" y="294" type="line"/>
      <point x="57" y="186" type="line"/>
    </contour>
    <contour>
      <point x="304" y="447" type="curve" smooth="yes"/>
      <point x="354.0" y="447.0"/>
      <point x="395.0" y="406.0152671755725"/>
      <point x="395" y="356" type="curve" smooth="yes"/>
      <point x="395.0" y="306.6793893129771"/>
      <point x="354.0" y="265.0"/>
      <point x="304" y="265" type="curve" smooth="yes"/>
      <point x="255.0" y="265.0"/>
      <point x="215.0" y="306.6793893129771"/>
      <point x="215" y="356" type="curve" smooth="yes"/>
      <point x="215.0" y="406.0152671755725"/>
      <point x="255.0" y="447.0"/>
    </contour>
  </outline>
</glyph>
<glyph name="brokenbar" format="2">
  <advance width="250"/>
  <unicode hex="00A6"/>
  <note>
GF Latin Plus glyph
</note>
  <outline>
    <contour>
      <point x="48" y="429" type="line"/>
      <point x="202" y="429" type="line"/>
      <point x="202" y="770" type="line"/>
      <point x="48" y="770" type="line"/>
    </contour>
    <contour>
      <point x="48" y="-72" type="line"/>
      <point x="202" y="-72" type="line"/>
      <point x="202" y="256" type="line"/>
      <point x="48" y="256" type="line"/>
    </contour>
  </outline>
</glyph>
<glyph name="section" format="2">
  <advance width="532"/>
  <unicode hex="00A7"/>
  <note>
GF Latin Plus glyph
</note>
  <outline>
    <contour>
      <point x="216" y="373" type="curve" smooth="yes"/>
      <point x="216" y="401" type="line" smooth="yes"/>
      <point x="216" y="419.0"/>
      <point x="226" y="430"/>
      <point x="251" y="430" type="curve" smooth="yes"/>
      <point x="281" y="430" type="line" smooth="yes"/>
      <point x="307" y="430"/>
      <point x="319" y="421.0"/>
      <point x="319" y="403" type="curve" smooth="yes"/>
      <point x="319" y="374" type="line" smooth="yes"/>
      <point x="319" y="348.0"/>
      <point x="306" y="344"/>
      <point x="281" y="344" type="curve" smooth="yes"/>
      <point x="251" y="344" type="line" smooth="yes"/>
      <point x="230.0" y="344"/>
      <point x="216" y="354.0"/>
    </contour>
    <contour>
      <point x="32" y="323" type="line" smooth="yes"/>
      <point x="32" y="227"/>
      <point x="101" y="200"/>
      <point x="201" y="200" type="curve" smooth="yes"/>
      <point x="281" y="200" type="line" smooth="yes"/>
      <point x="302" y="200"/>
      <point x="309" y="193"/>
      <point x="309" y="179" type="curve" smooth="yes"/>
      <point x="309" y="167" type="line" smooth="yes"/>
      <point x="309" y="152.52380952380952"/>
      <point x="302.0" y="148"/>
      <point x="272" y="148" type="curve" smooth="yes"/>
      <point x="68" y="148" type="line"/>
      <point x="68" y="11" type="line"/>
      <point x="141" y="-3"/>
      <point x="234" y="-6"/>
      <point x="314" y="-6" type="curve" smooth="yes"/>
      <point x="423.6170212765958" y="-6.0"/>
      <point x="498" y="31.0"/>
      <point x="498" y="160" type="curve" smooth="yes"/>
      <point x="498" y="203" type="line" smooth="yes"/>
      <point x="498" y="261.0"/>
      <point x="475.5968858968424" y="300.7669513095184"/>
      <point x="431" y="315" type="curve"/>
      <point x="481" y="336"/>
      <point x="503" y="379"/>
      <point x="503" y="418" type="curve" smooth="yes"/>
      <point x="503" y="450" type="line" smooth="yes"/>
      <point x="503" y="541"/>
      <point x="443" y="575"/>
      <point x="330" y="575" type="curve" smooth="yes"/>
      <point x="253" y="575" type="line" smooth="yes"/>
      <point x="227" y="575"/>
      <point x="225" y="591"/>
      <point x="225" y="600" type="curve" smooth="yes"/>
      <point x="225" y="606" type="line" smooth="yes"/>
      <point x="225" y="620.0"/>
      <point x="232" y="630"/>
      <point x="261" y="630" type="curve" smooth="yes"/>
      <point x="465" y="630" type="line"/>
      <point x="465" y="764" type="line"/>
      <point x="405.5142190194207" y="779.3220951010583"/>
      <point x="299" y="784"/>
      <point x="231" y="784" type="curve" smooth="yes"/>
      <point x="93.25" y="784.0"/>
      <point x="41" y="718.0"/>
      <point x="41" y="638" type="curve" smooth="yes"/>
      <point x="41" y="590" type="line" smooth="yes"/>
      <point x="41" y="532.0"/>
      <point x="54.94478122362829" y="484.9754621844698"/>
      <point x="106" y="459" type="curve"/>
      <point x="53" y="438"/>
      <point x="32" y="411"/>
      <point x="32" y="355" type="curve" smooth="yes"/>
    </contour>
  </outline>
</glyph>
<glyph name="copyright" format="2">
  <advance width="792"/>
  <unicode hex="00A9"/>
  <note>
GF Latin Plus glyph
</note>
  <outline>
    <contour>
      <point x="211" y="365" type="curve" smooth="yes"/>
      <point x="211" y="188"/>
      <point x="290" y="147"/>
      <point x="374" y="147" type="curve" smooth="yes"/>
      <point x="437" y="147"/>
      <point x="499" y="148"/>
      <point x="549" y="175" type="curve"/>
      <point x="549" y="267" type="line"/>
      <point x="512" y="260"/>
      <point x="466" y="251"/>
      <point x="412" y="251" type="curve" smooth="yes"/>
      <point x="352" y="251"/>
      <point x="325" y="278"/>
      <point x="325" y="362" type="curve" smooth="yes"/>
      <point x="325" y="457"/>
      <point x="346" y="479"/>
      <point x="415" y="479" type="curve" smooth="yes"/>
      <point x="444" y="479"/>
      <point x="488" y="475"/>
      <point x="543" y="467" type="curve"/>
      <point x="543" y="559" type="line"/>
      <point x="490" y="579"/>
      <point x="412" y="583"/>
      <point x="375" y="583" type="curve" smooth="yes"/>
      <point x="273" y="583"/>
      <point x="211" y="526"/>
    </contour>
    <contour>
      <point x="145" y="368" type="curve" smooth="yes"/>
      <point x="145" y="583"/>
      <point x="219" y="628"/>
      <point x="308" y="628" type="curve" smooth="yes"/>
      <point x="508" y="628" type="line" smooth="yes"/>
      <point x="639" y="628"/>
      <point x="648" y="488"/>
      <point x="648" y="368" type="curve" smooth="yes"/>
      <point x="648" y="164"/>
      <point x="588" y="104"/>
      <point x="498" y="104" type="curve" smooth="yes"/>
      <point x="308" y="104" type="line" smooth="yes"/>
      <point x="194" y="104"/>
      <point x="145" y="209"/>
    </contour>
    <contour>
      <point x="31" y="368" type="curve" smooth="yes"/>
      <point x="31" y="147"/>
      <point x="115" y="0"/>
      <point x="308" y="0" type="curve" smooth="yes"/>
      <point x="508" y="0" type="line" smooth="yes"/>
      <point x="659" y="0"/>
      <point x="762" y="109"/>
      <point x="762" y="368" type="curve" smooth="yes"/>
      <point x="762" y="583"/>
      <point x="711" y="732"/>
      <point x="508" y="732" type="curve" smooth="yes"/>
      <point x="308" y="732" type="line" smooth="yes"/>
      <point x="79" y="732"/>
      <point x="31" y="563"/>
    </contour>
  </outline>
</glyph>
<glyph name="logicalnot" format="2">
  <advance width="609"/>
  <unicode hex="00AC"/>
  <note>
GF Latin Plus glyph
</note>
  <outline>
    <contour>
      <point x="528" y="159" type="line"/>
      <point x="528" y="467" type="line"/>
      <point x="374" y="467" type="line"/>
      <point x="374" y="159" type="line"/>
    </contour>
    <component base="minus" yOffset="120"/>
  </outline>
</glyph>
<glyph name="registered" format="2">
  <advance width="792"/>
  <unicode hex="00AE"/>
  <note>
GF Latin Plus glyph
</note>
  <outline>
    <contour>
      <point x="351" y="399" type="line"/>
      <point x="351" y="476" type="line"/>
      <point x="420" y="476" type="line" smooth="yes"/>
      <point x="434" y="476"/>
      <point x="444" y="469"/>
      <point x="444" y="441" type="curve" smooth="yes"/>
      <point x="444" y="403"/>
      <point x="434" y="399"/>
      <point x="420" y="399" type="curve" smooth="yes"/>
    </contour>
    <contour>
      <point x="237" y="153" type="line"/>
      <point x="351" y="153" type="line"/>
      <point x="351" y="315" type="line"/>
      <point x="387" y="315" type="line"/>
      <point x="464" y="153" type="line"/>
      <point x="578" y="153" type="line"/>
      <point x="494" y="311" type="line"/>
      <point x="539" y="327"/>
      <point x="558" y="365"/>
      <point x="558" y="442" type="curve" smooth="yes"/>
      <point x="558" y="553"/>
      <point x="490" y="580"/>
      <point x="424" y="580" type="curve" smooth="yes"/>
      <point x="237" y="580" type="line"/>
    </contour>
    <contour>
      <point x="145" y="368" type="curve" smooth="yes"/>
      <point x="145" y="583"/>
      <point x="219" y="628"/>
      <point x="308" y="628" type="curve" smooth="yes"/>
      <point x="508" y="628" type="line" smooth="yes"/>
      <point x="639" y="628"/>
      <point x="648" y="488"/>
      <point x="648" y="368" type="curve" smooth="yes"/>
      <point x="648" y="164"/>
      <point x="588" y="104"/>
      <point x="498" y="104" type="curve" smooth="yes"/>
      <point x="308" y="104" type="line" smooth="yes"/>
      <point x="194" y="104"/>
      <point x="145" y="209"/>
    </contour>
    <contour>
      <point x="31" y="368" type="curve" smooth="yes"/>
      <point x="31" y="147"/>
      <point x="115" y="0"/>
      <point x="308" y="0" type="curve" smooth="yes"/>
      <point x="508" y="0" type="line" smooth="yes"/>
      <point x="659" y="0"/>
      <point x="762" y="109"/>
      <point x="762" y="368" type="curve" smooth="yes"/>
      <point x="762" y="583"/>
      <point x="711" y="732"/>
      <point x="508" y="732" type="curve" smooth="yes"/>
      <point x="308" y="732" type="line" smooth="yes"/>
      <point x="79" y="732"/>
      <point x="31" y="563"/>
    </contour>
  </outline>
</glyph>
<glyph name="degree" format="1">
  <advance width="311.0"/>
  <unicode hex="00B0"/>
  <note>
    GF Latin Plus glyph
  </note>
  <outline>
    <contour>
      <point x="91" y="622" type="curve" smooth="yes"/>
      <point x="91" y="662"/>
      <point x="117" y="688"/>
      <point x="156" y="688" type="curve" smooth="yes"/>
      <point x="195" y="688"/>
      <point x="220" y="662"/>
      <point x="220" y="622" type="curve" smooth="yes"/>
      <point x="220" y="582"/>
      <point x="194" y="557"/>
      <point x="156" y="557" type="curve" smooth="yes"/>
      <point x="118" y="557"/>
      <point x="91" y="582"/>
    </contour>
    <contour>
      <point x="4" y="622" type="curve" smooth="yes"/>
      <point x="4" y="531"/>
      <point x="69" y="470"/>
      <point x="156" y="470" type="curve" smooth="yes"/>
      <point x="246" y="470"/>
      <point x="307" y="531"/>
      <point x="307" y="622" type="curve" smooth="yes"/>
      <point x="307" y="713"/>
      <point x="246" y="775"/>
      <point x="156" y="775" type="curve" smooth="yes"/>
      <point x="69" y="775"/>
      <point x="4" y="713"/>
    </contour>
  </outline>
</glyph>
<glyph name="acute" format="2">
  <advance width="244"/>
  <unicode hex="00B4"/>
  <note>
GF Latin Plus glyph
</note>
  <outline>
    <contour>
      <point x="11" y="631" type="line"/>
      <point x="125" y="631" type="line"/>
      <point x="233" y="774" type="line"/>
      <point x="79" y="774" type="line"/>
    </contour>
  </outline>
</glyph>
<glyph name="paragraph" format="2">
  <advance width="574"/>
  <unicode hex="00B6"/>
  <note>
GF Latin Plus glyph
</note>
  <outline>
    <contour>
      <point x="146" y="466" type="curve" smooth="yes"/>
      <point x="146" y="569" type="line" smooth="yes"/>
      <point x="146" y="611"/>
      <point x="148" y="619"/>
      <point x="188" y="619" type="curve" smooth="yes"/>
      <point x="232" y="619" type="line"/>
      <point x="232" y="426" type="line"/>
      <point x="188" y="426" type="line" smooth="yes"/>
      <point x="160" y="426"/>
      <point x="146" y="427"/>
    </contour>
    <contour>
      <point x="22" y="446" type="line" smooth="yes"/>
      <point x="22" y="368"/>
      <point x="64" y="302"/>
      <point x="164" y="302" type="curve" smooth="yes"/>
      <point x="199" y="302"/>
      <point x="222" y="312"/>
      <point x="232" y="319" type="curve"/>
      <point x="232" y="-270" type="line"/>
      <point x="356" y="-270" type="line"/>
      <point x="356" y="619" type="line"/>
      <point x="410" y="619" type="line"/>
      <point x="410" y="0" type="line"/>
      <point x="534" y="0" type="line"/>
      <point x="534" y="617" type="line"/>
      <point x="584" y="617" type="line"/>
      <point x="584" y="743" type="line"/>
      <point x="178" y="743" type="line" smooth="yes"/>
      <point x="84" y="743"/>
      <point x="22" y="698"/>
      <point x="22" y="603" type="curve" smooth="yes"/>
    </contour>
  </outline>
</glyph>
<glyph name="periodcentered" format="2">
  <advance width="257"/>
  <unicode hex="00B7"/>
  <note>
GF Latin Plus glyph
</note>
  <outline>
    <contour>
      <point x="48" y="288" type="line" smooth="yes"/>
      <point x="48" y="274"/>
      <point x="58" y="265"/>
      <point x="72" y="265" type="curve" smooth="yes"/>
      <point x="185" y="265" type="line" smooth="yes"/>
      <point x="199" y="265"/>
      <point x="210" y="270"/>
      <point x="210" y="288" type="curve" smooth="yes"/>
      <point x="210" y="405" type="line" smooth="yes"/>
      <point x="210" y="421"/>
      <point x="203" y="430"/>
      <point x="185" y="430" type="curve" smooth="yes"/>
      <point x="72" y="430" type="line" smooth="yes"/>
      <point x="56" y="430"/>
      <point x="48" y="420"/>
      <point x="48" y="405" type="curve" smooth="yes"/>
    </contour>
  </outline>
</glyph>
<glyph name="cedilla" format="2">
  <advance width="238"/>
  <unicode hex="00B8"/>
  <note>
GF Latin Plus glyph
</note>
  <outline>
    <contour>
      <point x="28" y="-124" type="line"/>
      <point x="28" y="-203" type="line"/>
      <point x="87" y="-203" type="line" smooth="yes"/>
      <point x="164.6024096385542" y="-203"/>
      <point x="200.0" y="-170.0"/>
      <point x="200" y="-117" type="curve" smooth="yes"/>
      <point x="200.0" y="-67.0"/>
      <point x="158.1086956521739" y="-47.0"/>
      <point x="118" y="-47" type="curve"/>
      <point x="43" y="-62" type="line"/>
      <point x="67" y="-69"/>
      <point x="75" y="-81"/>
      <point x="75" y="-94" type="curve" smooth="yes"/>
      <point x="75" y="-107"/>
      <point x="66" y="-117"/>
      <point x="43" y="-121" type="curve" smooth="yes"/>
    </contour>
    <contour>
      <point x="179" y="20" type="line"/>
      <point x="93" y="20" type="line"/>
      <point x="43" y="-62" type="line"/>
      <point x="129" y="-62" type="line"/>
    </contour>
  </outline>
</glyph>
<glyph name="ordmasculine" format="2">
  <advance width="424"/>
  <unicode hex="00BA"/>
  <note>
GF Latin Plus glyph
</note>
  <outline>
    <contour>
      <point x="24" y="248" type="line"/>
      <point x="400" y="248" type="line"/>
      <point x="400" y="336" type="line"/>
      <point x="24" y="336" type="line"/>
    </contour>
    <component base="o.superior" yOffset="80"/>
  </outline>
</glyph>
<glyph name="AE" format="2">
  <advance width="992"/>
  <unicode hex="00C6"/>
  <note>
GF Latin Plus glyph
</note>
  <anchor x="534" y="810" name="top"/>
  <outline>
    <contour>
      <point x="346" y="282" type="line"/>
      <point x="463" y="527" type="line"/>
      <point x="463" y="282" type="line"/>
    </contour>
    <contour>
      <point x="5" y="0" type="line"/>
      <point x="194" y="0" type="line"/>
      <point x="261" y="118" type="line"/>
      <point x="463" y="118" type="line"/>
      <point x="464" y="111" type="line" smooth="yes"/>
      <point x="477" y="19"/>
      <point x="539" y="-6"/>
      <point x="659" y="-6" type="curve" smooth="yes"/>
      <point x="779" y="-6"/>
      <point x="872" y="3"/>
      <point x="956" y="14" type="curve"/>
      <point x="956" y="176" type="line"/>
      <point x="699" y="176" type="line" smooth="yes"/>
      <point x="670" y="176"/>
      <point x="637" y="175"/>
      <point x="637" y="228" type="curve" smooth="yes"/>
      <point x="637" y="284" type="line"/>
      <point x="906" y="294" type="line"/>
      <point x="906" y="448" type="line"/>
      <point x="637" y="458" type="line"/>
      <point x="637" y="516" type="line" smooth="yes"/>
      <point x="637" y="546"/>
      <point x="650" y="564"/>
      <point x="689" y="564" type="curve" smooth="yes"/>
      <point x="956" y="564" type="line"/>
      <point x="956" y="727" type="line"/>
      <point x="891" y="734"/>
      <point x="774" y="743"/>
      <point x="649" y="743" type="curve" smooth="yes"/>
      <point x="465.0" y="743.0"/>
      <point x="360" y="692"/>
      <point x="269" y="514" type="curve" smooth="yes"/>
    </contour>
  </outline>
</glyph>
<glyph name="Eth" format="2">
  <advance width="688"/>
  <unicode hex="00D0"/>
  <note>
GF Latin Plus glyph
</note>
  <outline>
    <contour>
      <point x="10" y="311" type="line"/>
      <point x="334" y="311" type="line"/>
      <point x="334" y="435" type="line"/>
      <point x="10" y="435" type="line"/>
    </contour>
    <component base="D"/>
  </outline>
</glyph>
<glyph name="multiply" format="2">
  <advance width="609"/>
  <unicode hex="00D7"/>
  <note>
GF Latin Plus glyph
</note>
  <outline>
    <contour>
      <point x="200" y="143" type="line"/>
      <point x="517" y="460" type="line"/>
      <point x="408" y="569" type="line"/>
      <point x="91" y="252" type="line"/>
    </contour>
    <contour>
      <point x="517" y="252" type="line"/>
      <point x="200" y="569" type="line"/>
      <point x="91" y="460" type="line"/>
      <point x="408" y="143" type="line"/>
    </contour>
  </outline>
</glyph>
<glyph name="Thorn" format="2">
  <advance width="603"/>
  <unicode hex="00DE"/>
  <note>
GF Latin Plus glyph
</note>
  <outline>
    <contour>
      <point x="55" y="0" type="line"/>
      <point x="249" y="0" type="line"/>
      <point x="249" y="134" type="line"/>
      <point x="273" y="129"/>
      <point x="322" y="114"/>
      <point x="362" y="114" type="curve" smooth="yes"/>
      <point x="457" y="114"/>
      <point x="577" y="145"/>
      <point x="577" y="377" type="curve" smooth="yes"/>
      <point x="577" y="606"/>
      <point x="453" y="633"/>
      <point x="351" y="633" type="curve" smooth="yes"/>
      <point x="249" y="633" type="line"/>
      <point x="249" y="743" type="line"/>
      <point x="55" y="743" type="line"/>
    </contour>
    <contour>
      <point x="249" y="288" type="line"/>
      <point x="249" y="459" type="line"/>
      <point x="331" y="459" type="line" smooth="yes"/>
      <point x="368" y="459"/>
      <point x="383" y="430"/>
      <point x="383" y="375" type="curve" smooth="yes"/>
      <point x="383" y="318"/>
      <point x="371" y="288"/>
      <point x="331" y="288" type="curve" smooth="yes"/>
    </contour>
  </outline>
</glyph>
<glyph name="germandbls" format="2">
  <advance width="620"/>
  <unicode hex="00DF"/>
  <note>
GF Latin Plus glyph
</note>
  <outline>
    <contour>
      <point x="34" y="0" type="line"/>
      <point x="228" y="0" type="line"/>
      <point x="228" y="506" type="line" smooth="yes"/>
      <point x="228" y="581"/>
      <point x="246" y="610"/>
      <point x="306" y="610" type="curve" smooth="yes"/>
      <point x="350" y="610"/>
      <point x="376" y="596"/>
      <point x="376" y="542" type="curve" smooth="yes"/>
      <point x="376.0" y="482.6768558951965"/>
      <point x="301.0" y="425.17903930131"/>
      <point x="301" y="333" type="curve" smooth="yes"/>
      <point x="301" y="225"/>
      <point x="420" y="194"/>
      <point x="420" y="162" type="curve" smooth="yes"/>
      <point x="420" y="156" type="line" smooth="yes"/>
      <point x="420" y="146"/>
      <point x="402" y="138"/>
      <point x="359" y="138" type="curve" smooth="yes"/>
      <point x="330" y="138"/>
      <point x="298" y="139"/>
      <point x="270" y="141" type="curve"/>
      <point x="270" y="10" type="line"/>
      <point x="300.04469860576694" y="-0.014899535255649354"/>
      <point x="354" y="-6"/>
      <point x="411" y="-6" type="curve" smooth="yes"/>
      <point x="481.0" y="-6.0"/>
      <point x="604" y="24"/>
      <point x="604" y="152" type="curve" smooth="yes"/>
      <point x="604" y="179" type="line" smooth="yes"/>
      <point x="604" y="298"/>
      <point x="485" y="332"/>
      <point x="485" y="370" type="curve" smooth="yes"/>
      <point x="485.0" y="399.7647058823529"/>
      <point x="560.0" y="455.6862745098039"/>
      <point x="560" y="554" type="curve" smooth="yes"/>
      <point x="560" y="678"/>
      <point x="486" y="764"/>
      <point x="307" y="764" type="curve" smooth="yes"/>
      <point x="115" y="764"/>
      <point x="34" y="662"/>
      <point x="34" y="527" type="curve" smooth="yes"/>
    </contour>
  </outline>
</glyph>
<glyph name="ae" format="1">
  <advance width="832.0"/>
  <unicode hex="00E6"/>
  <note>
    GF Latin Plus glyph
  </note>
  <outline>
    <contour>
      <point x="511" y="322" type="line"/>
      <point x="511.0" y="379.4942528735632"/>
      <point x="518.7142857142858" y="404.0"/>
      <point x="565" y="404" type="curve" smooth="yes"/>
      <point x="595.1395348837209" y="404.0"/>
      <point x="619.0" y="396.85714285714283"/>
      <point x="619" y="354" type="curve" smooth="yes"/>
      <point x="619.0" y="340.4"/>
      <point x="615.9" y="322"/>
      <point x="588" y="322" type="curve" smooth="yes"/>
    </contour>
    <contour>
      <point x="224" y="166" type="curve" smooth="yes"/>
      <point x="224" y="185" type="line" smooth="yes"/>
      <point x="224" y="201"/>
      <point x="233.98981364145362" y="219.80758355075307"/>
      <point x="256" y="224" type="curve" smooth="yes"/>
      <point x="319" y="236" type="line"/>
      <point x="319.0" y="199.09756097560975"/>
      <point x="323.6097749496528" y="164.24872016111104"/>
      <point x="329" y="147" type="curve"/>
      <point x="313.96190074126457" y="137.33265047652725"/>
      <point x="294.0" y="126.0"/>
      <point x="271" y="126" type="curve" smooth="yes"/>
      <point x="246.0" y="126.0"/>
      <point x="224" y="132.36363636363637"/>
    </contour>
    <contour>
      <point x="30" y="133" type="line" smooth="yes"/>
      <point x="30" y="67"/>
      <point x="64" y="-6"/>
      <point x="175" y="-6" type="curve" smooth="yes"/>
      <point x="261" y="-6"/>
      <point x="331" y="34"/>
      <point x="367" y="70" type="curve"/>
      <point x="397" y="23"/>
      <point x="474" y="-6"/>
      <point x="542" y="-6" type="curve" smooth="yes"/>
      <point x="625" y="-6"/>
      <point x="703" y="0"/>
      <point x="773" y="25" type="curve"/>
      <point x="773" y="138" type="line"/>
      <point x="642" y="138" type="line" smooth="yes"/>
      <point x="555.7063492063492" y="138"/>
      <point x="513.0000945858341" y="143.9972097178935"/>
      <point x="511" y="203" type="curve"/>
      <point x="594" y="203" type="line" smooth="yes"/>
      <point x="722.4324324324325" y="203"/>
      <point x="792.0" y="240.0"/>
      <point x="792" y="349" type="curve" smooth="yes"/>
      <point x="792" y="507"/>
      <point x="730" y="548"/>
      <point x="581" y="548" type="curve" smooth="yes"/>
      <point x="506" y="548"/>
      <point x="459" y="523"/>
      <point x="422" y="501" type="curve"/>
      <point x="387" y="524"/>
      <point x="328" y="545"/>
      <point x="253" y="545" type="curve" smooth="yes"/>
      <point x="181" y="545"/>
      <point x="125" y="531"/>
      <point x="62" y="506" type="curve"/>
      <point x="62" y="395" type="line"/>
      <point x="232" y="395" type="line" smooth="yes"/>
      <point x="297" y="395"/>
      <point x="322" y="387"/>
      <point x="322" y="347" type="curve" smooth="yes"/>
      <point x="322" y="326" type="line"/>
      <point x="216" y="326" type="line" smooth="yes"/>
      <point x="77" y="326"/>
      <point x="30" y="259"/>
      <point x="30" y="184" type="curve" smooth="yes"/>
    </contour>
    <contour>
      <point x="420" y="650" type="move" name="top"/>
    </contour>
  </outline>
</glyph>
<glyph name="eth" format="2">
  <advance width="574"/>
  <unicode hex="00F0"/>
  <note>
GF Latin Plus glyph
</note>
  <outline>
    <contour>
      <point x="30" y="261" type="curve" smooth="yes"/>
      <point x="30.0" y="68.24637681159422"/>
      <point x="94.0" y="-5.0"/>
      <point x="287" y="-5" type="curve" smooth="yes"/>
      <point x="484" y="-5"/>
      <point x="544" y="64"/>
      <point x="544" y="271" type="curve" smooth="yes"/>
      <point x="544.0" y="366.13681027948985"/>
      <point x="470.8267545699839" y="401.28187926612867"/>
      <point x="418" y="459" type="curve"/>
      <point x="395.8520632859847" y="497.7588892495268"/>
      <point x="339.0" y="525.0"/>
      <point x="259" y="525" type="curve" smooth="yes"/>
      <point x="115.0" y="525.0"/>
      <point x="30.0" y="469.11678832116786"/>
    </contour>
    <contour>
      <point x="224" y="262" type="curve" smooth="yes"/>
      <point x="224.0" y="364.8196721311475"/>
      <point x="237.0" y="374.0"/>
      <point x="287" y="374" type="curve" smooth="yes"/>
      <point x="337.0" y="374.0"/>
      <point x="350.0" y="364.8196721311475"/>
      <point x="350" y="262" type="curve" smooth="yes"/>
      <point x="350.0" y="158.1869918699187"/>
      <point x="337.0" y="149.0"/>
      <point x="287" y="149" type="curve" smooth="yes"/>
      <point x="237.0" y="149.0"/>
      <point x="224.0" y="158.1869918699187"/>
    </contour>
    <contour>
      <point x="114" y="649" type="line"/>
      <point x="308" y="649"/>
      <point x="370" y="576"/>
      <point x="370" y="345" type="curve"/>
      <point x="544" y="272" type="line"/>
      <point x="544" y="638"/>
      <point x="447" y="763"/>
      <point x="114" y="763" type="curve"/>
    </contour>
    <contour>
      <point x="138" y="536" type="line"/>
      <point x="532" y="686" type="line"/>
      <point x="509" y="747" type="line"/>
      <point x="115" y="596" type="line"/>
    </contour>
  </outline>
</glyph>
<glyph name="divide" format="2">
  <advance width="609"/>
  <unicode hex="00F7"/>
  <note>
GF Latin Plus glyph
</note>
  <outline>
    <contour>
      <point x="224" y="516" type="line" smooth="yes"/>
      <point x="224" y="502"/>
      <point x="234" y="493"/>
      <point x="248" y="493" type="curve" smooth="yes"/>
      <point x="360" y="493" type="line" smooth="yes"/>
      <point x="374" y="493"/>
      <point x="385" y="498"/>
      <point x="385" y="516" type="curve" smooth="yes"/>
      <point x="385" y="613" type="line" smooth="yes"/>
      <point x="385" y="629"/>
      <point x="378" y="638"/>
      <point x="360" y="638" type="curve" smooth="yes"/>
      <point x="248" y="638" type="line" smooth="yes"/>
      <point x="232" y="638"/>
      <point x="224" y="628"/>
      <point x="224" y="613" type="curve" smooth="yes"/>
    </contour>
    <contour>
      <point x="224" y="97" type="line" smooth="yes"/>
      <point x="224" y="83"/>
      <point x="234" y="74"/>
      <point x="248" y="74" type="curve" smooth="yes"/>
      <point x="360" y="74" type="line" smooth="yes"/>
      <point x="374" y="74"/>
      <point x="385" y="79"/>
      <point x="385" y="97" type="curve" smooth="yes"/>
      <point x="385" y="194" type="line" smooth="yes"/>
      <point x="385" y="210"/>
      <point x="378" y="219"/>
      <point x="360" y="219" type="curve" smooth="yes"/>
      <point x="248" y="219" type="line" smooth="yes"/>
      <point x="232" y="219"/>
      <point x="224" y="209"/>
      <point x="224" y="194" type="curve" smooth="yes"/>
    </contour>
    <component base="minus"/>
  </outline>
</glyph>
<glyph name="oslash" format="2">
  <advance width="574"/>
  <unicode hex="00F8"/>
  <note>
GF Latin Plus glyph
</note>
  <anchor x="287" y="650" name="top"/>
  <outline>
    <contour>
      <point x="475" y="539" type="line"/>
      <point x="13" y="0" type="line"/>
      <point x="99" y="0" type="line"/>
      <point x="561" y="539" type="line"/>
    </contour>
    <component base="o"/>
  </outline>
</glyph>
<glyph name="thorn" format="2">
  <advance width="590"/>
  <unicode hex="00FE"/>
  <note>
GF Latin Plus glyph
</note>
  <outline>
    <contour>
      <point x="238" y="166" type="curve"/>
      <point x="238" y="373" type="line"/>
      <point x="251" y="382"/>
      <point x="277" y="393"/>
      <point x="305" y="393" type="curve" smooth="yes"/>
      <point x="344" y="393"/>
      <point x="366" y="367"/>
      <point x="366" y="258" type="curve" smooth="yes"/>
      <point x="366" y="166"/>
      <point x="332" y="151"/>
      <point x="304" y="151" type="curve" smooth="yes"/>
      <point x="279" y="151"/>
      <point x="251" y="157"/>
    </contour>
    <contour>
      <point x="44" y="-237" type="line"/>
      <point x="238" y="-237" type="line"/>
      <point x="238" y="17" type="line"/>
      <point x="275" y="-1"/>
      <point x="325" y="-8"/>
      <point x="370" y="-8" type="curve" smooth="yes"/>
      <point x="514" y="-8"/>
      <point x="560" y="100"/>
      <point x="560" y="268" type="curve" smooth="yes"/>
      <point x="560" y="458"/>
      <point x="489" y="548"/>
      <point x="370" y="548" type="curve" smooth="yes"/>
      <point x="311" y="548"/>
      <point x="277" y="523"/>
      <point x="238" y="490" type="curve"/>
      <point x="238" y="763" type="line"/>
      <point x="44" y="763" type="line"/>
    </contour>
  </outline>
</glyph>
<glyph name="dcroat" format="2">
  <advance width="588"/>
  <unicode hex="0111"/>
  <note>
GF Latin Plus glyph
</note>
  <outline>
    <contour>
      <point x="250" y="606" type="line"/>
      <point x="598" y="606" type="line"/>
      <point x="598" y="680" type="line"/>
      <point x="250" y="680" type="line"/>
    </contour>
    <component base="d"/>
  </outline>
</glyph>
<glyph name="hbar" format="2">
  <advance width="600"/>
  <unicode hex="0127"/>
  <note>
GF Latin Plus glyph
</note>
  <outline>
    <contour>
      <point x="-10" y="606" type="line"/>
      <point x="338" y="606" type="line"/>
      <point x="338" y="680" type="line"/>
      <point x="-10" y="680" type="line"/>
    </contour>
    <component base="h"/>
  </outline>
</glyph>
<glyph name="dotlessi" format="2">
  <advance width="280"/>
  <unicode hex="0131"/>
  <anchor x="141" y="650" name="top"/>
  <anchor x="141" y="-150" name="bottom"/>
  <anchor x="228" y="0" name="ogonek"/>
  <outline>
    <contour>
      <point x="44" y="0" type="line"/>
      <point x="238" y="0" type="line"/>
      <point x="238" y="539" type="line"/>
      <point x="44" y="539" type="line"/>
    </contour>
  </outline>
</glyph>
<glyph name="kgreenlandic" format="2">
  <advance width="586"/>
  <unicode hex="0138"/>
  <note>
GF Latin Plus glyph
</note>
  <outline>
    <contour>
      <point x="44" y="0" type="line"/>
      <point x="238" y="0" type="line"/>
      <point x="238" y="182" type="line"/>
      <point x="292" y="182" type="line"/>
      <point x="398" y="0" type="line"/>
      <point x="593" y="0" type="line"/>
      <point x="436" y="269" type="line"/>
      <point x="575" y="539" type="line"/>
      <point x="374" y="539" type="line"/>
      <point x="286" y="356" type="line"/>
      <point x="238" y="356" type="line"/>
      <point x="238" y="539" type="line"/>
      <point x="44" y="539" type="line"/>
    </contour>
  </outline>
</glyph>
<glyph name="Lslash" format="2">
  <advance width="537"/>
  <unicode hex="0141"/>
  <note>
GF Latin Plus glyph
</note>
  <outline>
    <contour>
      <point x="-7" y="297" type="line"/>
      <point x="76" y="333" type="line"/>
      <point x="228" y="375" type="line"/>
      <point x="372" y="438" type="line"/>
      <point x="372" y="539" type="line"/>
      <point x="228" y="476" type="line"/>
      <point x="76" y="434" type="line"/>
      <point x="-7" y="398" type="line"/>
    </contour>
    <component base="L"/>
  </outline>
</glyph>
<glyph name="lslash" format="2">
  <advance width="326"/>
  <unicode hex="0142"/>
  <note>
GF Latin Plus glyph
</note>
  <outline>
    <contour>
      <point x="-8" y="326" type="line"/>
      <point x="44" y="349" type="line"/>
      <point x="238" y="412" type="line"/>
      <point x="316" y="446" type="line"/>
      <point x="316" y="547" type="line"/>
      <point x="238" y="513" type="line"/>
      <point x="44" y="450" type="line"/>
      <point x="-8" y="427" type="line"/>
    </contour>
    <component base="l"/>
  </outline>
</glyph>
<glyph name="Eng" format="2">
  <advance width="709"/>
  <unicode hex="014A"/>
  <note>
GF Latin Plus glyph
</note>
  <outline>
    <contour>
      <point x="328" y="-225" type="line"/>
      <point x="359" y="-234"/>
      <point x="407" y="-243"/>
      <point x="455" y="-243" type="curve" smooth="yes"/>
      <point x="607" y="-243"/>
      <point x="664" y="-170"/>
      <point x="664" y="-42" type="curve" smooth="yes"/>
      <point x="664" y="79" type="line"/>
      <point x="470" y="79" type="line"/>
      <point x="470" y="-12" type="line" smooth="yes"/>
      <point x="470" y="-48"/>
      <point x="455" y="-69"/>
      <point x="416" y="-69" type="curve" smooth="yes"/>
      <point x="387" y="-69.0"/>
      <point x="357" y="-69.0"/>
      <point x="328" y="-69" type="curve"/>
    </contour>
    <component base="N"/>
  </outline>
</glyph>
<glyph name="eng" format="2">
  <advance width="600"/>
  <unicode hex="014B"/>
  <note>
GF Latin Plus glyph
</note>
  <outline>
    <contour>
      <point x="302" y="-237" type="curve"/>
      <point x="456" y="-237" type="line"/>
      <point x="509" y="-208"/>
      <point x="558" y="-145.53333333333333"/>
      <point x="558" y="-45" type="curve" smooth="yes"/>
      <point x="558" y="139" type="line"/>
      <point x="364" y="139" type="line"/>
      <point x="364" y="-50" type="line" smooth="yes"/>
      <point x="364" y="-158.8181818181818"/>
      <point x="326" y="-209"/>
    </contour>
    <component base="n"/>
  </outline>
</glyph>
<glyph name="oe" format="1">
  <advance width="847.0"/>
  <unicode hex="0153"/>
  <note>
    GF Latin Plus glyph
  </note>
  <outline>
    <contour>
      <point x="532" y="316" type="line"/>
      <point x="532" y="386"/>
      <point x="548" y="410"/>
      <point x="589" y="410" type="curve" smooth="yes"/>
      <point x="633" y="410"/>
      <point x="647" y="390"/>
      <point x="647" y="359" type="curve" smooth="yes"/>
      <point x="647" y="330"/>
      <point x="638" y="316"/>
      <point x="612" y="316" type="curve" smooth="yes"/>
    </contour>
    <contour>
      <point x="372" y="268" type="curve" smooth="yes"/>
      <point x="372.0" y="81.0"/>
      <point x="435.836820083682" y="-5.0"/>
      <point x="581" y="-5" type="curve" smooth="yes"/>
      <point x="672" y="-5"/>
      <point x="744" y="9"/>
      <point x="797" y="25" type="curve"/>
      <point x="797" y="138" type="line"/>
      <point x="640" y="138" type="line" smooth="yes"/>
      <point x="565" y="138"/>
      <point x="537" y="154"/>
      <point x="534" y="203" type="curve"/>
      <point x="650" y="203" type="line" smooth="yes"/>
      <point x="740" y="203"/>
      <point x="817" y="244"/>
      <point x="817" y="337" type="curve" smooth="yes"/>
      <point x="817" y="505"/>
      <point x="761" y="548"/>
      <point x="588" y="548" type="curve" smooth="yes"/>
      <point x="425" y="548"/>
      <point x="372.0" y="460.0"/>
    </contour>
    <contour>
      <point x="224" y="272" type="curve" smooth="yes"/>
      <point x="224" y="393"/>
      <point x="237" y="404"/>
      <point x="287" y="404" type="curve" smooth="yes"/>
      <point x="337" y="404"/>
      <point x="350" y="393"/>
      <point x="350" y="272" type="curve" smooth="yes"/>
      <point x="350" y="150"/>
      <point x="337" y="139"/>
      <point x="287" y="139" type="curve" smooth="yes"/>
      <point x="237" y="139"/>
      <point x="224" y="150"/>
    </contour>
    <contour>
      <point x="30" y="271" type="curve" smooth="yes"/>
      <point x="30" y="71"/>
      <point x="94" y="-5"/>
      <point x="287" y="-5" type="curve" smooth="yes"/>
      <point x="461.00389105058366" y="-5.0"/>
      <point x="514.0" y="64.0"/>
      <point x="514" y="271" type="curve" smooth="yes"/>
      <point x="514.0" y="481.0"/>
      <point x="456.58754863813226" y="548.0"/>
      <point x="287" y="548" type="curve" smooth="yes"/>
      <point x="97" y="548"/>
      <point x="30" y="487"/>
    </contour>
  </outline>
</glyph>
<glyph name="tbar" format="2">
  <advance width="403"/>
  <unicode hex="0167"/>
  <note>
GF Latin Plus glyph
</note>
  <outline>
    <contour>
      <point x="5" y="246" type="line"/>
      <point x="383" y="246" type="line"/>
      <point x="383" y="320" type="line"/>
      <point x="5" y="320" type="line"/>
    </contour>
    <component base="t"/>
  </outline>
</glyph>
<glyph name="Schwa" format="2">
  <advance width="635"/>
  <unicode hex="018F"/>
  <note>
GF Latin Plus glyph
</note>
  <outline>
    <contour>
      <point x="306" y="-6" type="curve" smooth="yes"/>
      <point x="473" y="-6"/>
      <point x="599" y="60"/>
      <point x="599" y="386" type="curve" smooth="yes"/>
      <point x="599" y="690"/>
      <point x="463" y="750"/>
      <point x="276" y="750" type="curve" smooth="yes"/>
      <point x="168" y="750"/>
      <point x="106" y="735"/>
      <point x="62" y="718" type="curve"/>
      <point x="62" y="567" type="line"/>
      <point x="94" y="571"/>
      <point x="145" y="576"/>
      <point x="231" y="576" type="curve" smooth="yes"/>
      <point x="338" y="576"/>
      <point x="399" y="547"/>
      <point x="404" y="444" type="curve"/>
      <point x="25" y="444" type="line"/>
      <point x="25" y="324" type="line" smooth="yes"/>
      <point x="25" y="83.0"/>
      <point x="140" y="-6"/>
    </contour>
    <contour>
      <point x="308" y="168" type="curve" smooth="yes"/>
      <point x="245" y="168"/>
      <point x="226.0" y="202.0"/>
      <point x="222" y="290" type="curve"/>
      <point x="401" y="290" type="line"/>
      <point x="394.0" y="193.0"/>
      <point x="353" y="168"/>
    </contour>
  </outline>
</glyph>
<glyph name="florin" format="2">
  <advance width="609"/>
  <unicode hex="0192"/>
  <note>
GF Latin Plus glyph
</note>
  <outline>
    <contour>
      <point x="11" y="-179" type="line"/>
      <point x="30" y="-190"/>
      <point x="75" y="-204"/>
      <point x="136" y="-204" type="curve" smooth="yes"/>
      <point x="268" y="-204"/>
      <point x="329" y="-98"/>
      <point x="361" y="88" type="curve" smooth="yes"/>
      <point x="408" y="357" type="line"/>
      <point x="498" y="357" type="line"/>
      <point x="519" y="491" type="line"/>
      <point x="424" y="491" type="line"/>
      <point x="441" y="575" type="line" smooth="yes"/>
      <point x="450" y="620"/>
      <point x="468" y="656"/>
      <point x="527" y="656" type="curve" smooth="yes"/>
      <point x="565" y="656" type="line"/>
      <point x="583" y="775" type="line"/>
      <point x="566" y="784"/>
      <point x="530" y="800"/>
      <point x="456" y="800" type="curve" smooth="yes"/>
      <point x="331" y="800"/>
      <point x="274" y="713"/>
      <point x="258" y="632" type="curve" smooth="yes"/>
      <point x="230" y="491" type="line"/>
      <point x="156" y="491" type="line"/>
      <point x="135" y="357" type="line"/>
      <point x="214" y="357" type="line"/>
      <point x="159" y="37" type="line" smooth="yes"/>
      <point x="147" y="-32"/>
      <point x="124" y="-60"/>
      <point x="70" y="-60" type="curve" smooth="yes"/>
      <point x="30" y="-60" type="line"/>
    </contour>
  </outline>
</glyph>
<glyph name="circumflex" format="2">
  <advance width="378"/>
  <unicode hex="02C6"/>
  <note>
GF Latin Plus glyph
</note>
  <outline>
    <contour>
      <point x="128" y="777" type="line"/>
      <point x="28" y="631" type="line"/>
      <point x="140" y="631" type="line"/>
      <point x="190" y="692" type="line"/>
      <point x="239" y="631" type="line"/>
      <point x="350" y="631" type="line"/>
      <point x="259" y="777" type="line"/>
    </contour>
  </outline>
</glyph>
<glyph name="caron" format="2">
  <advance width="378"/>
  <unicode hex="02C7"/>
  <note>
GF Latin Plus glyph
</note>
  <outline>
    <contour>
      <point x="250" y="631" type="line"/>
      <point x="350" y="777" type="line"/>
      <point x="238" y="777" type="line"/>
      <point x="188" y="716" type="line"/>
      <point x="139" y="777" type="line"/>
      <point x="28" y="777" type="line"/>
      <point x="119" y="631" type="line"/>
    </contour>
  </outline>
</glyph>
<glyph name="breve" format="2">
  <advance width="346"/>
  <unicode hex="02D8"/>
  <note>
GF Latin Plus glyph
</note>
  <outline>
    <contour>
      <point x="28" y="777" type="line"/>
      <point x="28" y="673"/>
      <point x="77" y="620"/>
      <point x="172" y="620" type="curve" smooth="yes"/>
      <point x="269" y="620"/>
      <point x="318" y="673"/>
      <point x="318" y="777" type="curve"/>
      <point x="227" y="777" type="line"/>
      <point x="227" y="725"/>
      <point x="205" y="707"/>
      <point x="172" y="707" type="curve" smooth="yes"/>
      <point x="145" y="707"/>
      <point x="117" y="723"/>
      <point x="117" y="777" type="curve"/>
    </contour>
  </outline>
</glyph>
<glyph name="dotaccent" format="2">
  <advance width="193"/>
  <unicode hex="02D9"/>
  <note>
GF Latin Plus glyph
</note>
  <outline>
    <contour>
      <point x="28" y="650" type="line" smooth="yes"/>
      <point x="28" y="636"/>
      <point x="38" y="627"/>
      <point x="52" y="627" type="curve" smooth="yes"/>
      <point x="142" y="627" type="line" smooth="yes"/>
      <point x="156" y="627"/>
      <point x="165" y="635"/>
      <point x="165" y="650" type="curve" smooth="yes"/>
      <point x="165" y="761" type="line" smooth="yes"/>
      <point x="165" y="775"/>
      <point x="157" y="786"/>
      <point x="142" y="786" type="curve" smooth="yes"/>
      <point x="52" y="786" type="line" smooth="yes"/>
      <point x="36" y="786"/>
      <point x="28" y="776"/>
      <point x="28" y="761" type="curve" smooth="yes"/>
    </contour>
  </outline>
</glyph>
<glyph name="ring" format="2">
  <advance width="319"/>
  <unicode hex="02DA"/>
  <note>
GF Latin Plus glyph
</note>
  <outline>
    <contour>
      <point x="116" y="697" type="curve" smooth="yes"/>
      <point x="116.0" y="732.6363636363636"/>
      <point x="130.0" y="746.0"/>
      <point x="160" y="746" type="curve" smooth="yes"/>
      <point x="190.0" y="746.0"/>
      <point x="203.0" y="732.6363636363636"/>
      <point x="203" y="697" type="curve" smooth="yes"/>
      <point x="203.0" y="661.2790697674419"/>
      <point x="190.0" y="649.0"/>
      <point x="160" y="649" type="curve" smooth="yes"/>
      <point x="130.0" y="649.0"/>
      <point x="116.0" y="661.2790697674419"/>
    </contour>
    <contour>
      <point x="28" y="697" type="curve" smooth="yes"/>
      <point x="28.0" y="609.25"/>
      <point x="75.0" y="580.0"/>
      <point x="160" y="580" type="curve" smooth="yes"/>
      <point x="246.0" y="580.0"/>
      <point x="291.0" y="609.25"/>
      <point x="291" y="697" type="curve" smooth="yes"/>
      <point x="291.0" y="784.7168141592921"/>
      <point x="246.0" y="815.0"/>
      <point x="160" y="815" type="curve" smooth="yes"/>
      <point x="75.0" y="815.0"/>
      <point x="28.0" y="784.7168141592921"/>
    </contour>
  </outline>
</glyph>
<glyph name="tilde" format="1">
  <advance width="404"/>
  <unicode hex="02DC"/>
  <note>
    GF Latin Plus glyph
  </note>
  <outline>
    <contour>
      <point x="18" y="617" type="curve"/>
      <point x="114" y="617" type="line"/>
      <point x="117" y="638"/>
      <point x="126" y="656"/>
      <point x="147" y="656" type="curve" smooth="yes"/>
      <point x="184" y="656"/>
      <point x="221" y="619"/>
      <point x="288" y="619" type="curve" smooth="yes"/>
      <point x="353" y="619"/>
      <point x="391" y="666"/>
      <point x="396" y="769" type="curve"/>
      <point x="300" y="769" type="line"/>
      <point x="298" y="741"/>
      <point x="289" y="725"/>
      <point x="269" y="725" type="curve" smooth="yes"/>
      <point x="224" y="725"/>
      <point x="199" y="762"/>
      <point x="129" y="762" type="curve" smooth="yes"/>
      <point x="71" y="762"/>
      <point x="25" y="724"/>
    </contour>
  </outline>
</glyph>
<glyph name="hungarumlaut" format="1">
  <advance width="419"/>
  <unicode hex="02DD"/>
  <note>
    GF Latin Plus glyph
  </note>
  <outline>
    <contour>
      <point x="242" y="774" type="line"/>
      <point x="184" y="631" type="line"/>
      <point x="298" y="631" type="line"/>
      <point x="386" y="774" type="line"/>
    </contour>
    <contour>
      <point x="69" y="774" type="line"/>
      <point x="11" y="631" type="line"/>
      <point x="125" y="631" type="line"/>
      <point x="213" y="774" type="line"/>
    </contour>
  </outline>
</glyph>
<glyph name="pi" format="1">
  <advance width="650"/>
  <unicode hex="03C0"/>
  <outline>
    <contour>
      <point x="11" y="365" type="line"/>
      <point x="77" y="365" type="line"/>
      <point x="77" y="0" type="line"/>
      <point x="271" y="0" type="line"/>
      <point x="271" y="365" type="line"/>
      <point x="338" y="365" type="line"/>
      <point x="338" y="166" type="line" smooth="yes"/>
      <point x="338" y="54"/>
      <point x="391" y="-6"/>
      <point x="491" y="-6" type="curve" smooth="yes"/>
      <point x="552" y="-6"/>
      <point x="586.6934959756475" y="10.066782839748194"/>
      <point x="609" y="26" type="curve"/>
      <point x="609" y="140" type="line"/>
      <point x="571" y="140" type="line" smooth="yes"/>
      <point x="543" y="140"/>
      <point x="532" y="144"/>
      <point x="532" y="176" type="curve" smooth="yes"/>
      <point x="532" y="365" type="line"/>
      <point x="601" y="365" type="line"/>
      <point x="601" y="539" type="line"/>
      <point x="11" y="539" type="line"/>
    </contour>
  </outline>
</glyph>
<glyph name="endash" format="2">
  <advance width="513"/>
  <unicode hex="2013"/>
  <note>
GF Latin Plus glyph
</note>
  <outline>
    <contour>
      <point x="20" y="212" type="line"/>
      <point x="493" y="212" type="line"/>
      <point x="493" y="367" type="line"/>
      <point x="20" y="367" type="line"/>
    </contour>
  </outline>
</glyph>
<glyph name="quoteright" format="1">
  <advance width="250"/>
  <unicode hex="2019"/>
  <note>
    GF Latin Plus glyph
  </note>
  <outline>
    <contour>
      <point x="35" y="619" type="line" smooth="yes"/>
      <point x="35" y="602"/>
      <point x="46" y="594"/>
      <point x="60" y="594" type="curve" smooth="yes"/>
      <point x="71" y="594" type="line"/>
      <point x="71" y="579" type="line" smooth="yes"/>
      <point x="71" y="569"/>
      <point x="70" y="548"/>
      <point x="40" y="548" type="curve"/>
      <point x="40" y="476" type="line"/>
      <point x="50" y="473"/>
      <point x="59" y="472"/>
      <point x="83" y="472" type="curve" smooth="yes"/>
      <point x="133.10714285714286" y="472.0"/>
      <point x="205" y="487.0"/>
      <point x="205" y="573" type="curve" smooth="yes"/>
      <point x="205" y="733" type="line" smooth="yes"/>
      <point x="205" y="748"/>
      <point x="199" y="760"/>
      <point x="181" y="760" type="curve" smooth="yes"/>
      <point x="60" y="760" type="line" smooth="yes"/>
      <point x="44" y="760"/>
      <point x="35" y="751"/>
      <point x="35" y="733" type="curve" smooth="yes"/>
    </contour>
  </outline>
</glyph>
<glyph name="quotesinglbase" format="2">
  <advance width="250"/>
  <unicode hex="201A"/>
  <note>
GF Latin Plus glyph
</note>
  <outline>
    <contour>
      <point x="35" y="19" type="line" smooth="yes"/>
      <point x="35" y="2"/>
      <point x="46" y="-6"/>
      <point x="60" y="-6" type="curve" smooth="yes"/>
      <point x="71" y="-6" type="line"/>
      <point x="71" y="-21" type="line" smooth="yes"/>
      <point x="71" y="-31"/>
      <point x="70" y="-52"/>
      <point x="40" y="-52" type="curve"/>
      <point x="40" y="-124" type="line"/>
      <point x="40" y="-124"/>
      <point x="59" y="-128"/>
      <point x="83" y="-128" type="curve" smooth="yes"/>
      <point x="133" y="-128"/>
      <point x="205" y="-113"/>
      <point x="205" y="-27" type="curve" smooth="yes"/>
      <point x="205" y="133" type="line" smooth="yes"/>
      <point x="205" y="148"/>
      <point x="199" y="160"/>
      <point x="181" y="160" type="curve" smooth="yes"/>
      <point x="60" y="160" type="line" smooth="yes"/>
      <point x="44" y="160"/>
      <point x="35" y="151"/>
      <point x="35" y="133" type="curve" smooth="yes"/>
    </contour>
  </outline>
</glyph>
<glyph name="dagger" format="2">
  <advance width="486"/>
  <unicode hex="2020"/>
  <note>
GF Latin Plus glyph
</note>
  <outline>
    <contour>
      <point x="11" y="424" type="line"/>
      <point x="144" y="409" type="line"/>
      <point x="156" y="-72" type="line"/>
      <point x="329" y="-72" type="line"/>
      <point x="343" y="409" type="line"/>
      <point x="475" y="424" type="line"/>
      <point x="475" y="573" type="line"/>
      <point x="343" y="588" type="line"/>
      <point x="330" y="770" type="line"/>
      <point x="157" y="770" type="line"/>
      <point x="144" y="588" type="line"/>
      <point x="11" y="573" type="line"/>
    </contour>
  </outline>
</glyph>
<glyph name="ellipsis" format="2">
  <advance width="816"/>
  <unicode hex="2026"/>
  <note>
GF Latin Plus glyph
</note>
  <outline>
    <contour>
      <point x="55" y="23" type="line" smooth="yes"/>
      <point x="55" y="9"/>
      <point x="65" y="0"/>
      <point x="79" y="0" type="curve" smooth="yes"/>
      <point x="192" y="0" type="line" smooth="yes"/>
      <point x="206" y="0"/>
      <point x="217" y="5"/>
      <point x="217" y="23" type="curve" smooth="yes"/>
      <point x="217" y="140" type="line" smooth="yes"/>
      <point x="217" y="156"/>
      <point x="210" y="165"/>
      <point x="192" y="165" type="curve" smooth="yes"/>
      <point x="79" y="165" type="line" smooth="yes"/>
      <point x="63" y="165"/>
      <point x="55" y="155"/>
      <point x="55" y="140" type="curve" smooth="yes"/>
    </contour>
    <contour>
      <point x="327" y="23" type="line" smooth="yes"/>
      <point x="327" y="9"/>
      <point x="337" y="0"/>
      <point x="351" y="0" type="curve" smooth="yes"/>
      <point x="464" y="0" type="line" smooth="yes"/>
      <point x="478" y="0"/>
      <point x="489" y="5"/>
      <point x="489" y="23" type="curve" smooth="yes"/>
      <point x="489" y="140" type="line" smooth="yes"/>
      <point x="489" y="156"/>
      <point x="482" y="165"/>
      <point x="464" y="165" type="curve" smooth="yes"/>
      <point x="351" y="165" type="line" smooth="yes"/>
      <point x="335" y="165"/>
      <point x="327" y="155"/>
      <point x="327" y="140" type="curve" smooth="yes"/>
    </contour>
    <contour>
      <point x="599" y="23" type="line" smooth="yes"/>
      <point x="599" y="9"/>
      <point x="609" y="0"/>
      <point x="623" y="0" type="curve" smooth="yes"/>
      <point x="736" y="0" type="line" smooth="yes"/>
      <point x="750" y="0"/>
      <point x="761" y="5"/>
      <point x="761" y="23" type="curve" smooth="yes"/>
      <point x="761" y="140" type="line" smooth="yes"/>
      <point x="761" y="156"/>
      <point x="754" y="165"/>
      <point x="736" y="165" type="curve" smooth="yes"/>
      <point x="623" y="165" type="line" smooth="yes"/>
      <point x="607" y="165"/>
      <point x="599" y="155"/>
      <point x="599" y="140" type="curve" smooth="yes"/>
    </contour>
  </outline>
</glyph>
<glyph name="guilsinglleft" format="2">
  <advance width="376"/>
  <unicode hex="2039"/>
  <note>
GF Latin Plus glyph
</note>
  <outline>
    <contour>
      <point x="28" y="284" type="line"/>
      <point x="259" y="56" type="line"/>
      <point x="352" y="154" type="line"/>
      <point x="221" y="284" type="line"/>
      <point x="351" y="412" type="line"/>
      <point x="254" y="507" type="line"/>
    </contour>
  </outline>
</glyph>
<glyph name="zerosuperior" format="2">
  <advance width="450"/>
  <unicode hex="2070"/>
  <outline>
    <contour>
      <point x="194" y="452" type="curve" smooth="yes"/>
      <point x="194" y="647" type="line" smooth="yes"/>
      <point x="194" y="672"/>
      <point x="206" y="677"/>
      <point x="216" y="677" type="curve" smooth="yes"/>
      <point x="234" y="677" type="line" smooth="yes"/>
      <point x="244" y="677"/>
      <point x="256" y="672"/>
      <point x="256" y="647" type="curve" smooth="yes"/>
      <point x="256" y="452" type="line" smooth="yes"/>
      <point x="256" y="427"/>
      <point x="244" y="422"/>
      <point x="234" y="422" type="curve" smooth="yes"/>
      <point x="216" y="422" type="line" smooth="yes"/>
      <point x="206" y="422"/>
      <point x="194" y="427"/>
    </contour>
    <contour>
      <point x="24" y="427" type="line" smooth="yes"/>
      <point x="24" y="334"/>
      <point x="70" y="275"/>
      <point x="179" y="275" type="curve" smooth="yes"/>
      <point x="277" y="275" type="line" smooth="yes"/>
      <point x="374" y="275"/>
      <point x="426" y="335"/>
      <point x="426" y="427" type="curve" smooth="yes"/>
      <point x="426" y="664" type="line" smooth="yes"/>
      <point x="426" y="769"/>
      <point x="371" y="824"/>
      <point x="278" y="824" type="curve" smooth="yes"/>
      <point x="180" y="824" type="line" smooth="yes"/>
      <point x="77" y="824"/>
      <point x="24" y="767"/>
      <point x="24" y="664" type="curve" smooth="yes"/>
    </contour>
  </outline>
</glyph>
<glyph name="i.superior" format="2">
  <advance width="220"/>
  <unicode hex="2071"/>
  <anchor x="188.0" y="280" name="ogonek"/>
  <anchor x="110.0" y="171" name="bottom"/>
  <outline>
    <contour>
      <point x="24.0" y="734" type="line" smooth="yes"/>
      <point x="24.0" y="722"/>
      <point x="32.0" y="715"/>
      <point x="44.0" y="715" type="curve" smooth="yes"/>
      <point x="178.0" y="715" type="line" smooth="yes"/>
      <point x="190.0" y="715"/>
      <point x="196.0" y="722"/>
      <point x="196.0" y="734" type="curve" smooth="yes"/>
      <point x="196.0" y="821" type="line" smooth="yes"/>
      <point x="196.0" y="832"/>
      <point x="190.0" y="841"/>
      <point x="178.0" y="841" type="curve" smooth="yes"/>
      <point x="44.0" y="841" type="line" smooth="yes"/>
      <point x="31.0" y="841"/>
      <point x="24.0" y="833"/>
      <point x="24.0" y="821" type="curve" smooth="yes"/>
    </contour>
    <contour>
      <point x="25" y="280" type="line"/>
      <point x="195" y="280" type="line"/>
      <point x="195" y="672" type="line"/>
      <point x="25" y="672" type="line"/>
    </contour>
  </outline>
</glyph>
<glyph name="foursuperior" format="2">
  <advance width="450"/>
  <unicode hex="2074"/>
  <note>
GF Latin Plus glyph
</note>
  <outline>
    <contour>
      <point x="12" y="472" type="line"/>
      <point x="30" y="369" type="line"/>
      <point x="244.0" y="369" type="line"/>
      <point x="244.0" y="280" type="line"/>
      <point x="404" y="280" type="line"/>
      <point x="404" y="369" type="line"/>
      <point x="439" y="394" type="line"/>
      <point x="439" y="507" type="line"/>
      <point x="404" y="507" type="line"/>
      <point x="404" y="645" type="line"/>
      <point x="283" y="645" type="line"/>
      <point x="244" y="537" type="line"/>
      <point x="244.0" y="507" type="line"/>
      <point x="200" y="507" type="line"/>
      <point x="309" y="820" type="line"/>
      <point x="140.0" y="820" type="line"/>
    </contour>
  </outline>
</glyph>
<glyph name="sixsuperior" format="2">
  <advance width="450"/>
  <unicode hex="2076"/>
  <outline>
    <contour>
      <point x="196.0" y="490" type="curve"/>
      <point x="236.0" y="490" type="line" smooth="yes"/>
      <point x="263.63157894736844" y="490"/>
      <point x="261" y="482.0"/>
      <point x="261" y="459" type="curve" smooth="yes"/>
      <point x="261" y="444" type="line" smooth="yes"/>
      <point x="261" y="435.0"/>
      <point x="255.73684210526315" y="422"/>
      <point x="236" y="422" type="curve" smooth="yes"/>
      <point x="229" y="422" type="line" smooth="yes"/>
      <point x="202" y="422"/>
      <point x="196.0" y="437"/>
    </contour>
    <contour>
      <point x="26.0" y="535" type="curve" smooth="yes"/>
      <point x="26.0" y="330"/>
      <point x="82.0" y="275"/>
      <point x="206.0" y="275" type="curve" smooth="yes"/>
      <point x="279.0" y="275" type="line" smooth="yes"/>
      <point x="370.0" y="275"/>
      <point x="425.0" y="316"/>
      <point x="425.0" y="413" type="curve" smooth="yes"/>
      <point x="425" y="492" type="line" smooth="yes"/>
      <point x="425" y="562"/>
      <point x="408" y="628"/>
      <point x="287" y="628" type="curve" smooth="yes"/>
      <point x="228" y="628"/>
      <point x="218.0" y="625"/>
      <point x="196.0" y="611" type="curve"/>
      <point x="196.0" y="651"/>
      <point x="209.0" y="677"/>
      <point x="271.0" y="677" type="curve" smooth="yes"/>
      <point x="393.0" y="677" type="line"/>
      <point x="393.0" y="808" type="line"/>
      <point x="352.0" y="820"/>
      <point x="305.0" y="824"/>
      <point x="249.0" y="824" type="curve" smooth="yes"/>
      <point x="108.0" y="824"/>
      <point x="26.0" y="766"/>
    </contour>
  </outline>
</glyph>
<glyph name="sevensuperior" format="2">
  <advance width="450"/>
  <unicode hex="2077"/>
  <outline>
    <contour>
      <point x="24" y="656" type="line"/>
      <point x="216" y="656" type="line"/>
      <point x="78" y="280" type="line"/>
      <point x="267" y="280" type="line"/>
      <point x="428" y="731" type="line"/>
      <point x="397" y="820" type="line"/>
      <point x="24" y="820" type="line"/>
    </contour>
  </outline>
</glyph>
<glyph name="eightsuperior" format="2">
  <advance width="450"/>
  <unicode hex="2078"/>
  <outline>
    <contour>
      <point x="193" y="635" type="curve" smooth="yes"/>
      <point x="193" y="670" type="line" smooth="yes"/>
      <point x="193" y="680"/>
      <point x="199" y="686"/>
      <point x="209" y="686" type="curve" smooth="yes"/>
      <point x="242" y="686" type="line" smooth="yes"/>
      <point x="252" y="686"/>
      <point x="258" y="680"/>
      <point x="258" y="670" type="curve" smooth="yes"/>
      <point x="258" y="635" type="line" smooth="yes"/>
      <point x="258" y="625"/>
      <point x="252" y="619"/>
      <point x="242" y="619" type="curve" smooth="yes"/>
      <point x="209" y="619" type="line" smooth="yes"/>
      <point x="199" y="619"/>
      <point x="193" y="625"/>
    </contour>
    <contour>
      <point x="186" y="437" type="curve" smooth="yes"/>
      <point x="186" y="470" type="line" smooth="yes"/>
      <point x="186" y="484"/>
      <point x="192" y="494"/>
      <point x="206" y="494" type="curve" smooth="yes"/>
      <point x="245" y="494" type="line" smooth="yes"/>
      <point x="259" y="494"/>
      <point x="265" y="484"/>
      <point x="265" y="470" type="curve" smooth="yes"/>
      <point x="265" y="437" type="line" smooth="yes"/>
      <point x="265" y="423"/>
      <point x="259" y="413"/>
      <point x="245" y="413" type="curve" smooth="yes"/>
      <point x="206" y="413" type="line" smooth="yes"/>
      <point x="192" y="413"/>
      <point x="186" y="423"/>
    </contour>
    <contour>
      <point x="26" y="404" type="line" smooth="yes"/>
      <point x="26" y="310.0"/>
      <point x="88.37974683544304" y="275"/>
      <point x="180.0" y="275" type="curve" smooth="yes"/>
      <point x="280.0" y="275" type="line" smooth="yes"/>
      <point x="373.42281879194627" y="275"/>
      <point x="425" y="310.0"/>
      <point x="425" y="404" type="curve" smooth="yes"/>
      <point x="425" y="473" type="line" smooth="yes"/>
      <point x="425" y="494.5473684210526"/>
      <point x="412.5962568910443" y="545.1906564681179"/>
      <point x="377" y="562" type="curve"/>
      <point x="404.28636945135054" y="573.1166690357354"/>
      <point x="418" y="610.2530120481928"/>
      <point x="418" y="651" type="curve" smooth="yes"/>
      <point x="418" y="712" type="line" smooth="yes"/>
      <point x="418" y="795"/>
      <point x="348.0" y="824"/>
      <point x="277.0" y="824" type="curve" smooth="yes"/>
      <point x="171" y="824" type="line" smooth="yes"/>
      <point x="100" y="824"/>
      <point x="33" y="795"/>
      <point x="33" y="712" type="curve" smooth="yes"/>
      <point x="33" y="651" type="line" smooth="yes"/>
      <point x="33" y="615.0212765957447"/>
      <point x="45.49992467286353" y="581.6296854275085"/>
      <point x="72" y="562" type="curve"/>
      <point x="36.772282446732625" y="549.9219254103083"/>
      <point x="26" y="504.7469879518072"/>
      <point x="26" y="474" type="curve" smooth="yes"/>
    </contour>
  </outline>
</glyph>
<glyph name="n.superior" format="2">
  <advance width="446"/>
  <unicode hex="207F"/>
  <anchor x="223.0" y="751" name="top"/>
  <anchor x="223.0" y="171" name="bottom"/>
  <outline>
    <contour>
      <point x="25" y="280" type="line"/>
      <point x="195" y="280" type="line"/>
      <point x="195" y="513" type="line"/>
      <point x="199" y="522"/>
      <point x="216.0" y="531"/>
      <point x="227.0" y="531" type="curve" smooth="yes"/>
      <point x="241.0" y="531"/>
      <point x="252" y="527"/>
      <point x="252.0" y="507" type="curve" smooth="yes"/>
      <point x="252.0" y="280" type="line"/>
      <point x="422.0" y="280" type="line"/>
      <point x="422.0" y="529" type="line" smooth="yes"/>
      <point x="422.0" y="614"/>
      <point x="406.0" y="678"/>
      <point x="297.0" y="678" type="curve" smooth="yes"/>
      <point x="259.0" y="678"/>
      <point x="216.0" y="656"/>
      <point x="195.0" y="635" type="curve"/>
      <point x="168.0" y="672" type="line"/>
      <point x="25" y="672" type="line"/>
    </contour>
  </outline>
</glyph>
<glyph name="franc" format="2">
  <advance width="609"/>
  <unicode hex="20A3"/>
  <note>
GF Latin Plus glyph
</note>
  <outline>
    <contour>
      <point x="125" y="0" type="line"/>
      <point x="319" y="0" type="line"/>
      <point x="319" y="304" type="line"/>
      <point x="508" y="314" type="line"/>
      <point x="508" y="468" type="line"/>
      <point x="319" y="478" type="line"/>
      <point x="319" y="522" type="line" smooth="yes"/>
      <point x="319" y="542"/>
      <point x="332" y="564"/>
      <point x="366" y="564" type="curve" smooth="yes"/>
      <point x="558" y="564" type="line"/>
      <point x="558" y="727" type="line"/>
      <point x="469" y="739"/>
      <point x="356" y="743"/>
      <point x="310" y="743" type="curve" smooth="yes"/>
      <point x="226" y="743"/>
      <point x="125" y="706"/>
      <point x="125" y="569" type="curve" smooth="yes"/>
    </contour>
    <contour>
      <point x="55" y="104" type="line"/>
      <point x="125" y="94" type="line"/>
      <point x="319" y="94" type="line"/>
      <point x="478" y="104" type="line"/>
      <point x="478" y="238" type="line"/>
      <point x="319" y="248" type="line"/>
      <point x="125" y="248" type="line"/>
      <point x="55" y="238" type="line"/>
    </contour>
  </outline>
</glyph>
<glyph name="naira" format="2">
  <advance width="609"/>
  <unicode hex="20A6"/>
  <note>
GF Latin Plus glyph
</note>
  <outline>
    <contour>
      <point x="75" y="0" type="line"/>
      <point x="229" y="0" type="line"/>
      <point x="229" y="374" type="line"/>
      <point x="410" y="0" type="line"/>
      <point x="534" y="0" type="line"/>
      <point x="534" y="743" type="line"/>
      <point x="380" y="743" type="line"/>
      <point x="380" y="369" type="line"/>
      <point x="199" y="743" type="line"/>
      <point x="75" y="743" type="line"/>
    </contour>
    <contour>
      <point x="30.0" y="469.0" type="line"/>
      <point x="147" y="469" type="line"/>
      <point x="147" y="563" type="line"/>
      <point x="30.0" y="563.0" type="line"/>
    </contour>
    <contour>
      <point x="257" y="469" type="line"/>
      <point x="579.0" y="469.0" type="line"/>
      <point x="579.0" y="563.0" type="line"/>
      <point x="207" y="563" type="line"/>
    </contour>
    <contour>
      <point x="30.0" y="180.0" type="line"/>
      <point x="431" y="180" type="line"/>
      <point x="372" y="274" type="line"/>
      <point x="30.0" y="274.0" type="line"/>
    </contour>
    <contour>
      <point x="492" y="180" type="line"/>
      <point x="579.0" y="180.0" type="line"/>
      <point x="579.0" y="274.0" type="line"/>
      <point x="492" y="274" type="line"/>
    </contour>
  </outline>
</glyph>
<glyph name="peseta" format="1">
  <advance width="609"/>
  <unicode hex="20A7"/>
  <note>
    GF Latin Plus glyph
  </note>
  <outline>
    <contour>
      <point x="249" y="318" type="line"/>
      <point x="249" y="569" type="line"/>
      <point x="321" y="569" type="line" smooth="yes"/>
      <point x="350.88461538461536" y="569"/>
      <point x="363.0" y="527.0"/>
      <point x="363" y="445" type="curve" smooth="yes"/>
      <point x="363.0" y="361.0"/>
      <point x="353.3076923076923" y="318"/>
      <point x="321" y="318" type="curve" smooth="yes"/>
    </contour>
    <contour>
      <point x="55" y="0" type="line"/>
      <point x="249" y="0" type="line"/>
      <point x="249" y="164" type="line"/>
      <point x="276.4519910436687" y="158.50960179126625"/>
      <point x="305.5132743362832" y="144.0"/>
      <point x="352" y="144" type="curve" smooth="yes"/>
      <point x="442.5813953488372" y="144.0"/>
      <point x="557.0" y="180.0"/>
      <point x="557" y="447" type="curve" smooth="yes"/>
      <point x="557.0" y="712.0"/>
      <point x="438.4867256637168" y="743"/>
      <point x="341" y="743" type="curve" smooth="yes"/>
      <point x="55" y="743" type="line"/>
    </contour>
    <contour>
      <point x="188" y="391" type="line"/>
      <point x="599" y="391" type="line"/>
      <point x="599" y="485" type="line"/>
      <point x="188" y="485" type="line"/>
    </contour>
    <contour>
      <point x="10" y="391" type="line"/>
      <point x="177" y="391" type="line"/>
      <point x="177" y="485" type="line"/>
      <point x="10" y="485" type="line"/>
    </contour>
  </outline>
</glyph>
<glyph name="dong" format="2">
  <advance width="609"/>
  <unicode hex="20AB"/>
  <note>
GF Latin Plus glyph
</note>
  <outline>
    <contour>
      <point x="60" y="-51" type="line"/>
      <point x="558" y="-51" type="line"/>
      <point x="558" y="103" type="line"/>
      <point x="60" y="103" type="line"/>
    </contour>
    <contour>
      <point x="250" y="646" type="line"/>
      <point x="598" y="646" type="line"/>
      <point x="598" y="720" type="line"/>
      <point x="250" y="720" type="line"/>
    </contour>
    <contour>
      <point x="224" y="373" type="curve" smooth="yes"/>
      <point x="224.0" y="433.85714285714283"/>
      <point x="247" y="444"/>
      <point x="298" y="444" type="curve" smooth="yes"/>
      <point x="317" y="444"/>
      <point x="340" y="434"/>
      <point x="352" y="427" type="curve"/>
      <point x="352" y="329" type="line"/>
      <point x="341" y="320"/>
      <point x="320" y="309"/>
      <point x="293" y="309" type="curve" smooth="yes"/>
      <point x="246" y="309"/>
      <point x="224" y="316"/>
    </contour>
    <contour>
      <point x="30" y="363" type="curve" smooth="yes"/>
      <point x="30.0" y="206.9344978165939"/>
      <point x="100.0" y="154.0"/>
      <point x="222" y="154" type="curve" smooth="yes"/>
      <point x="271" y="154"/>
      <point x="314" y="175"/>
      <point x="352" y="209" type="curve"/>
      <point x="382" y="160" type="line"/>
      <point x="546" y="160" type="line"/>
      <point x="546" y="783" type="line"/>
      <point x="352" y="783" type="line"/>
      <point x="352" y="567" type="line"/>
      <point x="318" y="579"/>
      <point x="274" y="588"/>
      <point x="232" y="588" type="curve" smooth="yes"/>
      <point x="74.0" y="588.0"/>
      <point x="30.0" y="520.0408163265306"/>
    </contour>
  </outline>
</glyph>
<glyph name="euro" format="2">
  <advance width="609"/>
  <unicode hex="20AC"/>
  <note>
GF Latin Plus glyph
</note>
  <outline>
    <contour>
      <point x="11" y="388" type="line"/>
      <point x="85" y="379" type="line"/>
      <point x="240" y="379" type="line"/>
      <point x="503" y="387" type="line"/>
      <point x="503" y="473" type="line"/>
      <point x="239" y="481" type="line"/>
      <point x="95" y="481" type="line"/>
      <point x="11" y="471" type="line"/>
    </contour>
    <contour>
      <point x="11" y="245" type="line"/>
      <point x="95" y="237" type="line"/>
      <point x="239" y="237" type="line"/>
      <point x="503" y="245" type="line"/>
      <point x="503" y="332" type="line"/>
      <point x="240" y="340" type="line"/>
      <point x="85" y="340" type="line"/>
      <point x="11" y="332" type="line"/>
    </contour>
    <component base="C" xOffset="39"/>
  </outline>
</glyph>
<glyph name="kip" format="2">
  <advance width="609"/>
  <unicode hex="20AD"/>
  <note>
GF Latin Plus glyph
</note>
  <outline>
    <contour>
      <point x="10" y="275" type="line"/>
      <point x="579" y="275" type="line"/>
      <point x="579" y="459" type="line"/>
      <point x="10" y="459" type="line"/>
    </contour>
    <contour>
      <point x="55" y="0" type="line"/>
      <point x="249" y="0" type="line"/>
      <point x="249" y="280" type="line"/>
      <point x="303" y="280" type="line"/>
      <point x="401" y="0" type="line"/>
      <point x="604" y="0" type="line"/>
      <point x="454" y="369" type="line"/>
      <point x="595" y="743" type="line"/>
      <point x="392" y="743" type="line"/>
      <point x="303" y="454" type="line"/>
      <point x="249" y="454" type="line"/>
      <point x="249" y="743" type="line"/>
      <point x="55" y="743" type="line"/>
    </contour>
  </outline>
</glyph>
<glyph name="peso" format="1">
  <advance width="609"/>
  <unicode hex="20B1"/>
  <note>
    GF Latin Plus glyph
  </note>
  <outline>
    <contour>
      <point x="457" y="499" type="line"/>
      <point x="599" y="499" type="line"/>
      <point x="599" y="593" type="line"/>
      <point x="457" y="593" type="line"/>
    </contour>
    <contour>
      <point x="10" y="499" type="line"/>
      <point x="157" y="499" type="line"/>
      <point x="157" y="593" type="line"/>
      <point x="10" y="593" type="line"/>
    </contour>
    <contour>
      <point x="432" y="320" type="line"/>
      <point x="599" y="320" type="line"/>
      <point x="599" y="414" type="line"/>
      <point x="462" y="414" type="line"/>
    </contour>
    <contour>
      <point x="10" y="320" type="line"/>
      <point x="161" y="320" type="line"/>
      <point x="161" y="414" type="line"/>
      <point x="10" y="414" type="line"/>
    </contour>
    <contour>
      <point x="249" y="378" type="line"/>
      <point x="249" y="569" type="line"/>
      <point x="311" y="569" type="line" smooth="yes"/>
      <point x="348" y="569"/>
      <point x="363" y="537"/>
      <point x="363" y="475" type="curve" smooth="yes"/>
      <point x="363" y="411"/>
      <point x="351" y="378"/>
      <point x="311" y="378" type="curve" smooth="yes"/>
    </contour>
    <contour>
      <point x="75" y="0" type="line"/>
      <point x="249" y="0" type="line"/>
      <point x="249" y="224" type="line"/>
      <point x="269.0158399038525" y="219.9968320192295"/>
      <point x="308.83216783216784" y="204.0"/>
      <point x="342" y="204" type="curve" smooth="yes"/>
      <point x="428.16279069767444" y="204.0"/>
      <point x="537.0" y="236.0"/>
      <point x="537" y="477" type="curve" smooth="yes"/>
      <point x="537.0" y="715.0"/>
      <point x="423.9734513274336" y="743"/>
      <point x="331" y="743" type="curve" smooth="yes"/>
      <point x="75" y="743" type="line"/>
    </contour>
  </outline>
</glyph>
<glyph name="guarani" format="2">
  <advance width="609"/>
  <unicode hex="20B2"/>
  <note>
GF Latin Plus glyph
</note>
  <outline>
    <contour>
      <point x="364" y="-80" type="line"/>
      <point x="364" y="793" type="line"/>
      <point x="281" y="793" type="line"/>
      <point x="281" y="-80" type="line"/>
    </contour>
    <contour>
      <point x="16" y="370" type="curve" smooth="yes"/>
      <point x="16" y="164"/>
      <point x="56" y="-5"/>
      <point x="239" y="-5" type="curve" smooth="yes"/>
      <point x="327.44444444444446" y="-5.0"/>
      <point x="404.7709024558007" y="26.154995438362977"/>
      <point x="438" y="49" type="curve"/>
      <point x="464" y="0" type="line"/>
      <point x="590" y="0" type="line"/>
      <point x="590" y="441" type="line"/>
      <point x="416" y="441" type="line"/>
      <point x="416" y="183" type="line"/>
      <point x="396.2898237884437" y="178.61996084187638"/>
      <point x="354.5098039215686" y="173.0"/>
      <point x="304" y="173" type="curve" smooth="yes"/>
      <point x="222" y="173"/>
      <point x="190" y="205"/>
      <point x="190" y="370" type="curve" smooth="yes"/>
      <point x="190" y="532"/>
      <point x="208" y="576"/>
      <point x="342" y="576" type="curve" smooth="yes"/>
      <point x="436" y="576"/>
      <point x="518" y="569"/>
      <point x="563" y="562" type="curve"/>
      <point x="563" y="713" type="line"/>
      <point x="482" y="735"/>
      <point x="423" y="750"/>
      <point x="305" y="750" type="curve" smooth="yes"/>
      <point x="62" y="750"/>
      <point x="16" y="599"/>
    </contour>
  </outline>
</glyph>
<glyph name="cedi" format="2">
  <advance width="609"/>
  <unicode hex="20B5"/>
  <note>
GF Latin Plus glyph
</note>
  <outline>
    <contour>
      <point x="416" y="-80" type="line"/>
      <point x="416" y="793" type="line"/>
      <point x="333" y="793" type="line"/>
      <point x="333" y="-80" type="line"/>
    </contour>
    <contour>
      <point x="44" y="364" type="curve" smooth="yes"/>
      <point x="44" y="52"/>
      <point x="154" y="-6"/>
      <point x="327" y="-6" type="curve" smooth="yes"/>
      <point x="445" y="-6"/>
      <point x="513" y="7"/>
      <point x="561" y="26" type="curve"/>
      <point x="561" y="167" type="line"/>
      <point x="525" y="162"/>
      <point x="468" y="158"/>
      <point x="372" y="158" type="curve" smooth="yes"/>
      <point x="242" y="158"/>
      <point x="218" y="193"/>
      <point x="218" y="362" type="curve" smooth="yes"/>
      <point x="218" y="550"/>
      <point x="259" y="576"/>
      <point x="380" y="576" type="curve" smooth="yes"/>
      <point x="427" y="576"/>
      <point x="508" y="573"/>
      <point x="561" y="569" type="curve"/>
      <point x="561" y="710" type="line"/>
      <point x="524" y="721"/>
      <point x="450" y="740"/>
      <point x="337" y="740" type="curve" smooth="yes"/>
      <point x="164" y="740"/>
      <point x="44" y="666"/>
    </contour>
  </outline>
</glyph>
<glyph name="manat" format="2">
  <advance width="609"/>
  <unicode hex="20BC"/>
  <note>
GF Latin Plus glyph
</note>
  <outline>
    <contour>
      <point x="346" y="80" type="line"/>
      <point x="346" y="793" type="line"/>
      <point x="263" y="793" type="line"/>
      <point x="263" y="80" type="line"/>
    </contour>
    <contour>
      <point x="304" y="719" type="curve" smooth="yes"/>
      <point x="64.29431438127091" y="719.0"/>
      <point x="24.9998073120776" y="412.9920419888048"/>
      <point x="15" y="0" type="curve"/>
      <point x="189" y="0" type="line"/>
      <point x="199" y="309" type="line" smooth="yes"/>
      <point x="202.4621051061273" y="415.9790477793333"/>
      <point x="215.43478260869566" y="545.0"/>
      <point x="304" y="545" type="curve" smooth="yes"/>
      <point x="392.63793103448273" y="545.0"/>
      <point x="406.537893031595" y="415.979105323715"/>
      <point x="410" y="309" type="curve" smooth="yes"/>
      <point x="420" y="0" type="line"/>
      <point x="594" y="0" type="line"/>
      <point x="584.0001920565102" y="412.9920680661286"/>
      <point x="543.7333333333333" y="719.0"/>
    </contour>
  </outline>
</glyph>
<glyph name="ruble" format="2">
  <advance width="609"/>
  <unicode hex="20BD"/>
  <note>
GF Latin Plus glyph
</note>
  <outline>
    <contour>
      <point x="188" y="90" type="line"/>
      <point x="489" y="90" type="line"/>
      <point x="489" y="184" type="line"/>
      <point x="198" y="184" type="line"/>
    </contour>
    <contour>
      <point x="10" y="90" type="line"/>
      <point x="177" y="90" type="line"/>
      <point x="177" y="184" type="line"/>
      <point x="10" y="184" type="line"/>
    </contour>
    <contour>
      <point x="265" y="418" type="line"/>
      <point x="265" y="569" type="line"/>
      <point x="321" y="569" type="line" smooth="yes"/>
      <point x="358" y="569"/>
      <point x="373.0" y="544.0"/>
      <point x="373" y="495" type="curve" smooth="yes"/>
      <point x="373" y="444"/>
      <point x="361" y="418"/>
      <point x="321" y="418" type="curve" smooth="yes"/>
    </contour>
    <contour>
      <point x="81" y="0" type="line"/>
      <point x="265" y="0" type="line"/>
      <point x="265" y="264" type="line"/>
      <point x="283.76094626981177" y="260.24781074603766"/>
      <point x="321.1290322580645" y="250.0"/>
      <point x="352" y="250" type="curve" smooth="yes"/>
      <point x="442" y="250"/>
      <point x="557" y="279"/>
      <point x="557" y="497" type="curve" smooth="yes"/>
      <point x="557.0" y="717.0"/>
      <point x="439" y="743"/>
      <point x="341" y="743" type="curve" smooth="yes"/>
      <point x="81" y="743" type="line"/>
    </contour>
    <contour>
      <point x="10" y="324" type="line"/>
      <point x="177" y="324" type="line"/>
      <point x="177" y="418" type="line"/>
      <point x="10" y="418" type="line"/>
    </contour>
  </outline>
</glyph>
<glyph name="numero" format="2">
  <advance width="1198"/>
  <unicode hex="2116"/>
  <note>
GF Latin Plus glyph
</note>
  <outline>
    <contour>
      <point x="55" y="0" type="line"/>
      <point x="249" y="0" type="line"/>
      <point x="249" y="542" type="line" smooth="yes"/>
      <point x="249" y="550"/>
      <point x="253" y="555"/>
      <point x="258" y="555" type="curve" smooth="yes"/>
      <point x="262" y="555"/>
      <point x="267" y="551"/>
      <point x="270" y="542" type="curve" smooth="yes"/>
      <point x="393" y="153" type="line" smooth="yes"/>
      <point x="427" y="46"/>
      <point x="490" y="-6"/>
      <point x="605" y="-6" type="curve" smooth="yes"/>
      <point x="692" y="-6"/>
      <point x="771" y="48"/>
      <point x="771" y="155" type="curve" smooth="yes"/>
      <point x="771" y="521" type="line" smooth="yes"/>
      <point x="771" y="590"/>
      <point x="788" y="604"/>
      <point x="833" y="604" type="curve" smooth="yes"/>
      <point x="1003" y="604" type="line" smooth="yes"/>
      <point x="1034" y="604"/>
      <point x="1043" y="590"/>
      <point x="1043" y="542" type="curve" smooth="yes"/>
      <point x="1043" y="505"/>
      <point x="1035" y="492"/>
      <point x="1015" y="492" type="curve" smooth="yes"/>
      <point x="1006" y="492" type="line" smooth="yes"/>
      <point x="983" y="492"/>
      <point x="969" y="506"/>
      <point x="969" y="554" type="curve"/>
      <point x="827" y="554" type="line"/>
      <point x="827" y="398"/>
      <point x="885" y="360"/>
      <point x="997" y="360" type="curve" smooth="yes"/>
      <point x="1023" y="360" type="line" smooth="yes"/>
      <point x="1134" y="360"/>
      <point x="1185" y="419"/>
      <point x="1185" y="542" type="curve" smooth="yes"/>
      <point x="1185.0" y="680.3461538461538"/>
      <point x="1139.0" y="760"/>
      <point x="1008" y="760" type="curve" smooth="yes"/>
      <point x="802" y="760" type="line" smooth="yes"/>
      <point x="669.0" y="760"/>
      <point x="577" y="711.6355140186915"/>
      <point x="577" y="535" type="curve" smooth="yes"/>
      <point x="577" y="200" type="line" smooth="yes"/>
      <point x="577" y="192"/>
      <point x="574" y="188"/>
      <point x="569" y="188" type="curve" smooth="yes"/>
      <point x="563" y="188"/>
      <point x="560" y="194"/>
      <point x="558" y="200" type="curve" smooth="yes"/>
      <point x="435" y="593" type="line" smooth="yes"/>
      <point x="402" y="698"/>
      <point x="344" y="749"/>
      <point x="231" y="749" type="curve" smooth="yes"/>
      <point x="130" y="749"/>
      <point x="55" y="688"/>
      <point x="55" y="569" type="curve" smooth="yes"/>
    </contour>
  </outline>
</glyph>
<glyph name="trademark" format="2">
  <advance width="716"/>
  <unicode hex="2122"/>
  <note>
GF Latin Plus glyph
</note>
  <outline>
    <contour>
      <point x="309" y="383" type="line"/>
      <point x="423" y="383" type="line"/>
      <point x="442" y="551" type="line"/>
      <point x="468" y="383" type="line"/>
      <point x="551" y="383" type="line"/>
      <point x="578" y="553" type="line"/>
      <point x="594" y="383" type="line"/>
      <point x="708" y="383" type="line"/>
      <point x="657" y="732" type="line"/>
      <point x="534" y="732" type="line"/>
      <point x="512" y="553" type="line"/>
      <point x="479" y="732" type="line"/>
      <point x="356" y="732" type="line"/>
    </contour>
    <contour>
      <point x="11" y="638" type="line"/>
      <point x="104" y="638" type="line"/>
      <point x="104" y="383" type="line"/>
      <point x="218" y="383" type="line"/>
      <point x="218" y="638" type="line"/>
      <point x="310" y="638" type="line"/>
      <point x="310" y="732" type="line"/>
      <point x="11" y="732" type="line"/>
    </contour>
  </outline>
</glyph>
<glyph name="partialdiff" format="1">
  <advance width="625"/>
  <unicode hex="2202"/>
  <outline>
    <contour>
      <point x="224" y="230" type="curve" smooth="yes"/>
      <point x="224" y="267"/>
      <point x="244" y="294"/>
      <point x="298" y="294" type="curve" smooth="yes"/>
      <point x="328" y="294"/>
      <point x="353" y="286"/>
      <point x="367" y="278" type="curve"/>
      <point x="367" y="248"/>
      <point x="353" y="166"/>
      <point x="293" y="166" type="curve" smooth="yes"/>
      <point x="257" y="166"/>
      <point x="224" y="187"/>
    </contour>
    <contour>
      <point x="32" y="227" type="curve" smooth="yes"/>
      <point x="32" y="69"/>
      <point x="154" y="-5"/>
      <point x="285" y="-5" type="curve" smooth="yes"/>
      <point x="500" y="-5"/>
      <point x="579" y="154"/>
      <point x="579" y="387" type="curve" smooth="yes"/>
      <point x="579" y="603"/>
      <point x="490" y="740"/>
      <point x="295" y="740" type="curve" smooth="yes"/>
      <point x="210" y="740"/>
      <point x="143" y="706"/>
      <point x="76" y="662" type="curve"/>
      <point x="99" y="515" type="line"/>
      <point x="136" y="538"/>
      <point x="214" y="566"/>
      <point x="292" y="566" type="curve" smooth="yes"/>
      <point x="357.0" y="566.0"/>
      <point x="384.0" y="516.9620253164557"/>
      <point x="384" y="417" type="curve"/>
      <point x="353" y="452"/>
      <point x="307.0" y="465.0"/>
      <point x="256" y="465" type="curve" smooth="yes"/>
      <point x="122" y="465"/>
      <point x="32" y="378"/>
    </contour>
  </outline>
</glyph>
<glyph name="increment" format="2">
  <advance width="706"/>
  <unicode hex="2206"/>
  <outline>
    <contour>
      <point x="252" y="174" type="line"/>
      <point x="344" y="532" type="line"/>
      <point x="441" y="174" type="line"/>
    </contour>
    <contour>
      <point x="5" y="0" type="line"/>
      <point x="687" y="0" type="line"/>
      <point x="457" y="743" type="line"/>
      <point x="235" y="743" type="line"/>
    </contour>
  </outline>
</glyph>
<glyph name="product" format="2">
  <advance width="656"/>
  <unicode hex="220F"/>
  <outline>
    <contour>
      <point x="11" y="569" type="line"/>
      <point x="77" y="569" type="line"/>
      <point x="77" y="0" type="line"/>
      <point x="271" y="0" type="line"/>
      <point x="271" y="569" type="line"/>
      <point x="384" y="569" type="line"/>
      <point x="384" y="0" type="line"/>
      <point x="578" y="0" type="line"/>
      <point x="578" y="569" type="line"/>
      <point x="645" y="569" type="line"/>
      <point x="645" y="743" type="line"/>
      <point x="11" y="743" type="line"/>
    </contour>
  </outline>
</glyph>
<glyph name="summation" format="1">
  <advance width="559"/>
  <unicode hex="2211"/>
  <outline>
    <contour>
      <point x="22" y="-22" type="line"/>
      <point x="22" y="-199" type="line"/>
      <point x="548" y="-199" type="line"/>
      <point x="548" y="-22" type="line"/>
      <point x="262" y="-22" type="line"/>
      <point x="474" y="276" type="line"/>
      <point x="262" y="569" type="line"/>
      <point x="548" y="569" type="line"/>
      <point x="548" y="743" type="line"/>
      <point x="22" y="743" type="line"/>
      <point x="22" y="569" type="line"/>
      <point x="236" y="276" type="line"/>
    </contour>
  </outline>
</glyph>
<glyph name="divisionslash" format="2">
  <advance width="609"/>
  <unicode hex="2215"/>
  <note>
GF Latin Plus glyph
</note>
  <outline>
    <contour>
      <point x="422" y="712" type="line"/>
      <point x="62" y="0" type="line"/>
      <point x="187" y="0" type="line"/>
      <point x="547" y="712" type="line"/>
    </contour>
  </outline>
</glyph>
<glyph name="bulletoperator" format="2">
  <advance width="609"/>
  <unicode hex="2219"/>
  <note>
GF Latin Plus glyph
</note>
  <outline>
    <contour>
      <point x="224" y="301" type="line" smooth="yes"/>
      <point x="224" y="287"/>
      <point x="234" y="278"/>
      <point x="248" y="278" type="curve" smooth="yes"/>
      <point x="360" y="278" type="line" smooth="yes"/>
      <point x="374" y="278"/>
      <point x="385" y="283"/>
      <point x="385" y="301" type="curve" smooth="yes"/>
      <point x="385" y="409" type="line" smooth="yes"/>
      <point x="385" y="425"/>
      <point x="378" y="434"/>
      <point x="360" y="434" type="curve" smooth="yes"/>
      <point x="248" y="434" type="line" smooth="yes"/>
      <point x="232" y="434"/>
      <point x="224" y="424"/>
      <point x="224" y="409" type="curve" smooth="yes"/>
    </contour>
  </outline>
</glyph>
<glyph name="radical" format="2">
  <advance width="685"/>
  <unicode hex="221A"/>
  <outline>
    <contour>
      <point x="11" y="204" type="line"/>
      <point x="63" y="204" type="line"/>
      <point x="166" y="0" type="line"/>
      <point x="359" y="0" type="line"/>
      <point x="674" y="800" type="line"/>
      <point x="461" y="800" type="line"/>
      <point x="248" y="263" type="line"/>
      <point x="201" y="378" type="line"/>
      <point x="11" y="378" type="line"/>
    </contour>
  </outline>
</glyph>
<glyph name="infinity" format="1">
  <advance width="742"/>
  <unicode hex="221E"/>
  <outline>
    <contour>
      <point x="458" y="340" type="curve"/>
      <point x="474" y="365"/>
      <point x="495" y="391"/>
      <point x="533" y="391" type="curve" smooth="yes"/>
      <point x="576" y="391"/>
      <point x="581" y="369"/>
      <point x="581" y="341" type="curve" smooth="yes"/>
      <point x="581" y="313"/>
      <point x="569" y="292"/>
      <point x="533" y="292" type="curve" smooth="yes"/>
      <point x="499" y="292"/>
      <point x="474" y="316"/>
    </contour>
    <contour>
      <point x="161" y="341" type="curve" smooth="yes"/>
      <point x="161" y="369"/>
      <point x="163" y="391"/>
      <point x="207" y="391" type="curve" smooth="yes"/>
      <point x="235" y="391"/>
      <point x="264" y="366"/>
      <point x="280" y="341" type="curve"/>
      <point x="264" y="317"/>
      <point x="241" y="292"/>
      <point x="207" y="292" type="curve" smooth="yes"/>
      <point x="169" y="292"/>
      <point x="161" y="313"/>
    </contour>
    <contour>
      <point x="28" y="341" type="curve" smooth="yes"/>
      <point x="28" y="249"/>
      <point x="67" y="169"/>
      <point x="194" y="169" type="curve" smooth="yes"/>
      <point x="268" y="169"/>
      <point x="317" y="179"/>
      <point x="365" y="255" type="curve"/>
      <point x="423" y="179"/>
      <point x="485" y="169"/>
      <point x="548" y="169" type="curve" smooth="yes"/>
      <point x="675" y="169"/>
      <point x="714" y="249"/>
      <point x="714" y="341" type="curve" smooth="yes"/>
      <point x="714" y="428"/>
      <point x="686" y="514"/>
      <point x="548" y="514" type="curve" smooth="yes"/>
      <point x="472" y="514"/>
      <point x="405" y="493"/>
      <point x="367" y="427" type="curve"/>
      <point x="320" y="487"/>
      <point x="270" y="514"/>
      <point x="194" y="514" type="curve" smooth="yes"/>
      <point x="56" y="514"/>
      <point x="28" y="428"/>
    </contour>
  </outline>
</glyph>
<glyph name="greaterequal" format="2">
  <advance width="609"/>
  <unicode hex="2265"/>
  <note>
GF Latin Plus glyph
</note>
  <outline>
    <contour>
      <point x="98" y="230" type="line"/>
      <point x="513" y="346" type="line"/>
      <point x="513" y="516" type="line"/>
      <point x="98" y="626" type="line"/>
      <point x="98" y="456" type="line"/>
      <point x="323" y="433" type="line"/>
      <point x="98" y="400" type="line"/>
    </contour>
    <component base="minus" yOffset="-250"/>
  </outline>
</glyph>
<glyph name="Omega" format="1">
  <advance width="751"/>
  <unicode hex="A7B6"/>
  <unicode hex="03A9"/>
  <outline>
    <contour>
      <point x="36" y="408" type="curve" smooth="yes"/>
      <point x="36" y="296"/>
      <point x="79" y="212"/>
      <point x="143" y="168" type="curve"/>
      <point x="32" y="158" type="line"/>
      <point x="32" y="0" type="line"/>
      <point x="320" y="0" type="line"/>
      <point x="320" y="168" type="line"/>
      <point x="257" y="234"/>
      <point x="230.0" y="303.0"/>
      <point x="230" y="390" type="curve" smooth="yes"/>
      <point x="230" y="460"/>
      <point x="246" y="565"/>
      <point x="376" y="565" type="curve" smooth="yes"/>
      <point x="496" y="565"/>
      <point x="516" y="460"/>
      <point x="516" y="395" type="curve" smooth="yes"/>
      <point x="516.0" y="306.0"/>
      <point x="491" y="230"/>
      <point x="437" y="168" type="curve"/>
      <point x="437" y="0" type="line"/>
      <point x="725" y="0" type="line"/>
      <point x="725" y="157" type="line"/>
      <point x="614" y="167" type="line"/>
      <point x="662" y="226"/>
      <point x="710" y="286"/>
      <point x="710" y="403" type="curve" smooth="yes"/>
      <point x="710" y="585"/>
      <point x="624" y="739"/>
      <point x="376" y="739" type="curve" smooth="yes"/>
      <point x="114" y="739"/>
      <point x="36" y="562"/>
    </contour>
  </outline>
</glyph>
<glyph name="fi" format="2">
  <advance width="685"/>
  <unicode hex="FB01"/>
  <note>
GF Latin Plus glyph
</note>
  <outline>
    <contour>
      <point x="5" y="385" type="line"/>
      <point x="77" y="385" type="line"/>
      <point x="77" y="0" type="line"/>
      <point x="271" y="0" type="line"/>
      <point x="271" y="385" type="line"/>
      <point x="540" y="385" type="line"/>
      <point x="540" y="539" type="line"/>
      <point x="271" y="539" type="line"/>
      <point x="271" y="559" type="line" smooth="yes"/>
      <point x="271" y="597"/>
      <point x="287" y="612"/>
      <point x="322" y="612" type="curve" smooth="yes"/>
      <point x="347" y="612"/>
      <point x="383" y="611"/>
      <point x="400" y="610" type="curve"/>
      <point x="400" y="751" type="line"/>
      <point x="370" y="761"/>
      <point x="310" y="769"/>
      <point x="252" y="769" type="curve" smooth="yes"/>
      <point x="141" y="769"/>
      <point x="77" y="734"/>
      <point x="77" y="588" type="curve" smooth="yes"/>
      <point x="77" y="539" type="line"/>
      <point x="5" y="509" type="line"/>
    </contour>
    <component base="i" xOffset="403"/>
  </outline>
</glyph>
<glyph name="fl" format="2">
  <advance width="729"/>
  <unicode hex="FB02"/>
  <note>
GF Latin Plus glyph
</note>
  <outline>
    <contour>
      <point x="5" y="385" type="line"/>
      <point x="77" y="385" type="line"/>
      <point x="77" y="0" type="line"/>
      <point x="271" y="0" type="line"/>
      <point x="271" y="385" type="line"/>
      <point x="389" y="385" type="line"/>
      <point x="389" y="539" type="line"/>
      <point x="271" y="539" type="line"/>
      <point x="271" y="559" type="line" smooth="yes"/>
      <point x="271" y="597"/>
      <point x="296" y="612"/>
      <point x="352" y="612" type="curve" smooth="yes"/>
      <point x="445" y="612"/>
      <point x="578.1158216474403" y="608.9926462446069"/>
      <point x="641" y="605" type="curve"/>
      <point x="641" y="738" type="line"/>
      <point x="580" y="754"/>
      <point x="447" y="769"/>
      <point x="322" y="769" type="curve" smooth="yes"/>
      <point x="167" y="769"/>
      <point x="77" y="730"/>
      <point x="77" y="568" type="curve" smooth="yes"/>
      <point x="77" y="539" type="line"/>
      <point x="5" y="509" type="line"/>
    </contour>
    <contour>
      <point x="447" y="178" type="line" smooth="yes"/>
      <point x="447" y="61"/>
      <point x="506" y="0"/>
      <point x="634" y="0" type="curve" smooth="yes"/>
      <point x="717" y="0" type="line"/>
      <point x="717" y="141" type="line"/>
      <point x="684" y="146" type="line" smooth="yes"/>
      <point x="653" y="151"/>
      <point x="641" y="170"/>
      <point x="641" y="208" type="curve" smooth="yes"/>
      <point x="641" y="703" type="line"/>
      <point x="447" y="703" type="line"/>
    </contour>
  </outline>
</glyph>
<glyph name="f_f_i" format="1">
  <advance width="1088.0"/>
  <unicode hex="FB03"/>
  <note>
    GF Latin Plus glyph
  </note>
  <outline>
    <contour>
      <point x="5" y="385" type="line"/>
      <point x="77" y="385" type="line"/>
      <point x="77" y="0" type="line"/>
      <point x="271" y="0" type="line"/>
      <point x="271" y="385" type="line"/>
      <point x="576" y="385" type="line"/>
      <point x="576" y="539" type="line"/>
      <point x="271" y="539" type="line"/>
      <point x="271" y="559" type="line" smooth="yes"/>
      <point x="271" y="597"/>
      <point x="287" y="612"/>
      <point x="322" y="612" type="curve" smooth="yes"/>
      <point x="347" y="612"/>
      <point x="383" y="611"/>
      <point x="400" y="610" type="curve"/>
      <point x="400" y="751" type="line"/>
      <point x="370" y="761"/>
      <point x="310" y="769"/>
      <point x="252" y="769" type="curve" smooth="yes"/>
      <point x="141" y="769"/>
      <point x="77" y="734"/>
      <point x="77" y="588" type="curve" smooth="yes"/>
      <point x="77" y="539" type="line"/>
      <point x="5" y="509" type="line"/>
    </contour>
    <component base="fi" xOffset="403"/>
  </outline>
</glyph>
<glyph name="s_t" format="2">
  <advance width="881"/>
  <unicode hex="FB06"/>
  <outline>
    <contour>
      <point x="482" y="143" type="curve" smooth="yes"/>
      <point x="482" y="198" type="line" smooth="yes"/>
      <point x="482" y="289"/>
      <point x="440" y="346"/>
      <point x="323" y="346" type="curve" smooth="yes"/>
      <point x="230" y="346" type="line" smooth="yes"/>
      <point x="200" y="346"/>
      <point x="190" y="351"/>
      <point x="190" y="367" type="curve" smooth="yes"/>
      <point x="190" y="380" type="line" smooth="yes"/>
      <point x="190" y="395"/>
      <point x="199" y="400"/>
      <point x="219" y="400" type="curve" smooth="yes"/>
      <point x="567" y="400" type="line"/>
      <point x="560" y="203" type="line" smooth="yes"/>
      <point x="555" y="49"/>
      <point x="607" y="0"/>
      <point x="745" y="0" type="curve" smooth="yes"/>
      <point x="857" y="0" type="line"/>
      <point x="857" y="144" type="line"/>
      <point x="788" y="151" type="line" smooth="yes"/>
      <point x="763" y="154"/>
      <point x="752" y="169"/>
      <point x="752" y="204" type="curve" smooth="yes"/>
      <point x="752" y="385" type="line"/>
      <point x="861" y="385" type="line"/>
      <point x="861" y="539" type="line"/>
      <point x="752" y="539" type="line"/>
      <point x="752" y="690" type="line"/>
      <point x="598" y="690" type="line"/>
      <point x="572" y="525" type="line"/>
      <point x="501" y="534"/>
      <point x="405.7307692307692" y="544.0"/>
      <point x="310" y="544" type="curve" smooth="yes"/>
      <point x="85" y="544"/>
      <point x="26" y="487"/>
      <point x="26" y="388" type="curve" smooth="yes"/>
      <point x="26" y="347" type="line" smooth="yes"/>
      <point x="26" y="232"/>
      <point x="101" y="192"/>
      <point x="191" y="192" type="curve" smooth="yes"/>
      <point x="281" y="192" type="line" smooth="yes"/>
      <point x="313" y="192"/>
      <point x="318" y="184"/>
      <point x="318" y="171" type="curve" smooth="yes"/>
      <point x="318" y="158" type="line" smooth="yes"/>
      <point x="318" y="145"/>
      <point x="314" y="138"/>
      <point x="288" y="138" type="curve" smooth="yes"/>
      <point x="38" y="138" type="line"/>
      <point x="38" y="25" type="line"/>
      <point x="89" y="3"/>
      <point x="170" y="-6"/>
      <point x="247" y="-6" type="curve" smooth="yes"/>
      <point x="405" y="-6"/>
      <point x="482" y="34"/>
    </contour>
  </outline>
</glyph>
<glyph name="A.smcp" format="2">
  <advance width="580"/>
  <anchor x="288.0" y="650.0" name="top"/>
  <anchor x="288.0" y="-140.0" name="bottom"/>
  <anchor x="561.0" y="0.0" name="ogonek"/>
  <outline>
    <contour>
      <point x="238" y="202" type="line"/>
      <point x="289" y="430" type="line"/>
      <point x="342" y="202" type="line"/>
    </contour>
    <contour>
      <point x="9" y="0" type="line"/>
      <point x="197" y="0" type="line"/>
      <point x="209" y="66" type="line"/>
      <point x="368" y="66" type="line"/>
      <point x="381" y="0" type="line"/>
      <point x="571" y="0" type="line"/>
      <point x="424" y="560" type="line"/>
      <point x="155" y="560" type="line"/>
    </contour>
  </outline>
</glyph>
<glyph name="AE.smcp" format="2">
  <advance width="821"/>
  <anchor x="438.0" y="650.0" name="top"/>
  <outline>
    <contour>
      <point x="296" y="203" type="line"/>
      <point x="376" y="382" type="line"/>
      <point x="376" y="203" type="line"/>
    </contour>
    <contour>
      <point x="9" y="0" type="line"/>
      <point x="187" y="0" type="line"/>
      <point x="225" y="67" type="line"/>
      <point x="386" y="67" type="line"/>
      <point x="377" y="82" type="line"/>
      <point x="390" y="13"/>
      <point x="441" y="-5"/>
      <point x="543" y="-5" type="curve" smooth="yes"/>
      <point x="659" y="-5"/>
      <point x="705" y="2"/>
      <point x="786" y="12" type="curve"/>
      <point x="786" y="146" type="line"/>
      <point x="582" y="146" type="line" smooth="yes"/>
      <point x="558" y="146"/>
      <point x="546" y="152"/>
      <point x="546" y="176" type="curve" smooth="yes"/>
      <point x="546" y="206" type="line"/>
      <point x="745" y="215" type="line"/>
      <point x="745" y="345" type="line"/>
      <point x="546" y="354" type="line"/>
      <point x="546" y="379" type="line" smooth="yes"/>
      <point x="546" y="398"/>
      <point x="550" y="411"/>
      <point x="577" y="411" type="curve" smooth="yes"/>
      <point x="786" y="411" type="line"/>
      <point x="786" y="546" type="line"/>
      <point x="723" y="553"/>
      <point x="659" y="560"/>
      <point x="537" y="560" type="curve" smooth="yes"/>
      <point x="372" y="560"/>
      <point x="289" y="541"/>
      <point x="213" y="400" type="curve" smooth="yes"/>
    </contour>
  </outline>
</glyph>
<glyph name="B.smcp" format="1">
  <advance width="546"/>
  <outline>
    <contour>
      <point x="234" y="335" type="line"/>
      <point x="234" y="414" type="line"/>
      <point x="303" y="414" type="line" smooth="yes"/>
      <point x="312.0" y="414"/>
      <point x="323" y="407"/>
      <point x="324" y="375" type="curve" smooth="yes"/>
      <point x="325" y="356"/>
      <point x="320.0" y="335"/>
      <point x="302" y="335" type="curve" smooth="yes"/>
    </contour>
    <contour>
      <point x="234" y="146" type="line"/>
      <point x="234" y="228" type="line"/>
      <point x="312" y="228" type="line" smooth="yes"/>
      <point x="332.0" y="228"/>
      <point x="338" y="211"/>
      <point x="338" y="185" type="curve" smooth="yes"/>
      <point x="338" y="163"/>
      <point x="329.0" y="146"/>
      <point x="312" y="146" type="curve" smooth="yes"/>
    </contour>
    <contour>
      <point x="50" y="0" type="line"/>
      <point x="329" y="0" type="line" smooth="yes"/>
      <point x="452.5960591133005" y="0"/>
      <point x="522.0" y="45.0"/>
      <point x="522" y="153" type="curve" smooth="yes"/>
      <point x="522" y="229"/>
      <point x="477" y="272"/>
      <point x="414" y="291" type="curve"/>
      <point x="468" y="305"/>
      <point x="498" y="346"/>
      <point x="498" y="409" type="curve" smooth="yes"/>
      <point x="498.0" y="501.0"/>
      <point x="444.91666666666674" y="560"/>
      <point x="316" y="560" type="curve" smooth="yes"/>
      <point x="50" y="560" type="line"/>
    </contour>
    <contour>
      <point x="246" y="650" type="move" name="top"/>
    </contour>
  </outline>
</glyph>
<glyph name="C.smcp" format="2">
  <advance width="495"/>
  <anchor x="255" y="650" name="top"/>
  <anchor x="284" y="-150" name="bottom"/>
  <outline>
    <contour>
      <point x="35" y="282" type="curve" smooth="yes"/>
      <point x="35" y="40"/>
      <point x="125" y="-5"/>
      <point x="256" y="-5" type="curve" smooth="yes"/>
      <point x="366" y="-5"/>
      <point x="420" y="5"/>
      <point x="457" y="21" type="curve"/>
      <point x="457" y="157" type="line"/>
      <point x="427" y="154"/>
      <point x="380" y="151"/>
      <point x="299" y="151" type="curve" smooth="yes"/>
      <point x="226" y="151"/>
      <point x="219" y="182"/>
      <point x="219" y="280" type="curve" smooth="yes"/>
      <point x="219" y="398"/>
      <point x="237" y="410"/>
      <point x="296" y="410" type="curve" smooth="yes"/>
      <point x="370" y="410"/>
      <point x="425" y="403"/>
      <point x="457" y="397" type="curve"/>
      <point x="457" y="532" type="line"/>
      <point x="430" y="546"/>
      <point x="368" y="565"/>
      <point x="254" y="565" type="curve" smooth="yes"/>
      <point x="131" y="565"/>
      <point x="35" y="517"/>
    </contour>
  </outline>
</glyph>
<glyph name="D.smcp" format="1">
  <advance width="577"/>
  <outline>
    <contour>
      <point x="234" y="155" type="line"/>
      <point x="234" y="405" type="line"/>
      <point x="301" y="405" type="line" smooth="yes"/>
      <point x="333" y="405"/>
      <point x="358" y="401"/>
      <point x="358" y="280" type="curve" smooth="yes"/>
      <point x="358" y="185"/>
      <point x="348" y="155"/>
      <point x="301" y="155" type="curve" smooth="yes"/>
    </contour>
    <contour>
      <point x="50" y="0" type="line"/>
      <point x="321" y="0" type="line" smooth="yes"/>
      <point x="470" y="0"/>
      <point x="542" y="76"/>
      <point x="542" y="280" type="curve" smooth="yes"/>
      <point x="542" y="430"/>
      <point x="502" y="560"/>
      <point x="321" y="560" type="curve" smooth="yes"/>
      <point x="50" y="560" type="line"/>
    </contour>
    <contour>
      <point x="282" y="650" type="move" name="top"/>
    </contour>
    <contour>
      <point x="239" y="-150" type="move" name="bottom"/>
    </contour>
  </outline>
</glyph>
<glyph name="E.smcp" format="2">
  <advance width="509"/>
  <anchor x="263" y="650" name="top"/>
  <anchor x="464" y="10" name="ogonek"/>
  <anchor x="289" y="-150" name="bottom"/>
  <outline>
    <contour>
      <point x="50" y="127" type="line" smooth="yes"/>
      <point x="50" y="3"/>
      <point x="165" y="-5"/>
      <point x="216" y="-5" type="curve" smooth="yes"/>
      <point x="313" y="-5"/>
      <point x="390" y="0"/>
      <point x="474" y="10" type="curve"/>
      <point x="474" y="146" type="line"/>
      <point x="256" y="146" type="line" smooth="yes"/>
      <point x="242" y="146"/>
      <point x="234" y="159"/>
      <point x="234" y="176" type="curve" smooth="yes"/>
      <point x="234" y="206" type="line"/>
      <point x="433" y="215" type="line"/>
      <point x="433" y="345" type="line"/>
      <point x="234" y="354" type="line"/>
      <point x="234" y="388" type="line" smooth="yes"/>
      <point x="234" y="402"/>
      <point x="245" y="411"/>
      <point x="266" y="411" type="curve" smooth="yes"/>
      <point x="474" y="411" type="line"/>
      <point x="474" y="547" type="line"/>
      <point x="407" y="554"/>
      <point x="371" y="560"/>
      <point x="208" y="560" type="curve" smooth="yes"/>
      <point x="137" y="560"/>
      <point x="50" y="531"/>
      <point x="50" y="422" type="curve" smooth="yes"/>
    </contour>
  </outline>
</glyph>
<glyph name="Eng.smcp" format="2">
  <advance width="596"/>
  <outline>
    <contour>
      <point x="271" y="-192" type="line"/>
      <point x="296" y="-198"/>
      <point x="335" y="-205"/>
      <point x="375" y="-205" type="curve" smooth="yes"/>
      <point x="506" y="-205"/>
      <point x="552" y="-143"/>
      <point x="552" y="-46" type="curve" smooth="yes"/>
      <point x="552" y="69" type="line"/>
      <point x="368" y="69" type="line"/>
      <point x="368" y="-18" type="line" smooth="yes"/>
      <point x="368" y="-33"/>
      <point x="363" y="-49"/>
      <point x="337" y="-49" type="curve" smooth="yes"/>
      <point x="343" y="-49"/>
      <point x="266" y="-51"/>
      <point x="271" y="-52" type="curve"/>
    </contour>
    <component base="N.smcp"/>
  </outline>
</glyph>
<glyph name="Eth.smcp" format="1">
  <advance width="577"/>
  <outline>
    <contour>
      <point x="19" y="225" type="line"/>
      <point x="280" y="225" type="line"/>
      <point x="280" y="335" type="line"/>
      <point x="19" y="335" type="line"/>
    </contour>
    <component base="D.smcp"/>
  </outline>
</glyph>
<glyph name="F.smcp" format="1">
  <advance width="503"/>
  <outline>
    <contour>
      <point x="50" y="0" type="line"/>
      <point x="234" y="0" type="line"/>
      <point x="234" y="186" type="line"/>
      <point x="433" y="195" type="line"/>
      <point x="433" y="325" type="line"/>
      <point x="234" y="334" type="line"/>
      <point x="234" y="390" type="line" smooth="yes"/>
      <point x="234" y="396"/>
      <point x="240" y="411"/>
      <point x="262" y="411" type="curve" smooth="yes"/>
      <point x="474" y="411" type="line"/>
      <point x="474" y="546" type="line"/>
      <point x="361" y="561"/>
      <point x="267" y="560"/>
      <point x="208" y="560" type="curve" smooth="yes"/>
      <point x="137" y="560"/>
      <point x="50" y="531"/>
      <point x="50" y="422" type="curve" smooth="yes"/>
    </contour>
    <contour>
      <point x="263" y="650" type="move" name="top"/>
    </contour>
  </outline>
</glyph>
<glyph name="G.smcp" format="1">
  <advance width="567"/>
  <outline>
    <contour>
      <point x="35" y="278" type="curve" smooth="yes"/>
      <point x="35" y="136"/>
      <point x="64" y="-3"/>
      <point x="209" y="-4" type="curve" smooth="yes"/>
      <point x="277.0" y="-4.0"/>
      <point x="331.7910677553137" y="25.078908765953287"/>
      <point x="354" y="42" type="curve"/>
      <point x="378" y="0" type="line"/>
      <point x="517" y="0" type="line"/>
      <point x="517" y="344" type="line"/>
      <point x="490" y="344"/>
      <point x="461" y="345"/>
      <point x="420" y="345" type="curve" smooth="yes"/>
      <point x="379" y="345"/>
      <point x="314" y="342"/>
      <point x="278" y="338" type="curve"/>
      <point x="278" y="202" type="line"/>
      <point x="361" y="202" type="line"/>
      <point x="361" y="156" type="line"/>
      <point x="350.6811594202899" y="156.0"/>
      <point x="318.4347826086956" y="156.0"/>
      <point x="272" y="156" type="curve" smooth="yes"/>
      <point x="236" y="156"/>
      <point x="219" y="171"/>
      <point x="219" y="278" type="curve" smooth="yes"/>
      <point x="219" y="386"/>
      <point x="226" y="410"/>
      <point x="311" y="410" type="curve" smooth="yes"/>
      <point x="387" y="410"/>
      <point x="449" y="405"/>
      <point x="486" y="399" type="curve"/>
      <point x="486" y="535" type="line"/>
      <point x="418" y="553"/>
      <point x="379" y="565"/>
      <point x="275" y="565" type="curve" smooth="yes"/>
      <point x="70" y="565"/>
      <point x="35" y="445"/>
    </contour>
    <contour>
      <point x="269" y="650" type="move" name="top"/>
    </contour>
    <contour>
      <point x="304" y="-150" type="move" name="bottom"/>
    </contour>
  </outline>
</glyph>
